<?xml version="1.0" encoding="utf-8"?>
<!-- Generator: Adobe Illustrator 22.0.0, SVG Export Plug-In . SVG Version: 6.00 Build 0)  -->
<svg version="1.1" id="Layer_1" xmlns="http://www.w3.org/2000/svg" xmlns:xlink="http://www.w3.org/1999/xlink" x="0px" y="0px"
	 viewBox="0 0 512 512" style="enable-background:new 0 0 512 512;" xml:space="preserve">
<style type="text/css">
	.st0{fill:#FFFFFF;}
</style>
<g>
	<path class="st0" d="M334.3,27.3c-2.4,0.4-7,2-10.3,3.6c-21.2,10.5-25.6,38.7-8.6,55.6c13.3,13.3,34.7,13.5,48.6,0.2
		c6-5.6,9.1-12.2,10.4-21.4l0.9-7.1h6.3c5.9,0,6.4-0.2,8.1-2.2c1.2-1.5,1.5-2.9,1.2-4.3c-1-3.9-2.4-4.5-11.3-4.8l-8.3-0.3l-3.3-4.9
		C361.3,31.3,347.5,25.5,334.3,27.3z"/>
	<path class="st0" d="M236,126.1c-36.8,17.5-69.1,32.8-71.8,33.9c-5.9,2.4-9.1,5.2-11.1,9.6c-2.6,5.7-1.5,12.8,2.7,17.3l1.7,1.9
		l-5.2-0.5c-4.9-0.5-5.4-0.4-7.4,1.7c-1.8,1.8-2.3,3-2.3,5.7c0,4.6,2.5,7,9.1,8.9c15.9,4.3,16.2,4.5,16.2,7c0,1.2,2.8,10.3,6.1,20
		c3.3,9.8,6.1,17.9,6.1,18c0,0.2-33.7,0.3-74.9,0.3c-82.8,0-77.4-0.3-79.3,5.3c-1.1,3.5,0.7,7.8,3.8,9.3c1.5,0.7,21,0.9,70.5,0.9
		c37.7,0,68.5,0.2,68.5,0.4c0,0.5-12.8,19.9-13.9,21c-0.3,0.4-3.2-0.4-6.2-1.7c-7.4-3.3-17.3-6.3-24.8-7.6c-7.8-1.4-27.2-1.4-35.1,0
		C46.2,285.2,12.2,318.3,4,360c-2.3,11.3-2.8,20.5-1.7,30.6c4.8,47.2,38.9,84.3,85.6,93.1c10,1.9,28.3,1.7,38.4-0.3
		c14.4-2.9,25.4-7.4,37.1-15.1c21.7-14.2,37.8-36.5,44-61c1.1-3.9,2.1-7.3,2.4-7.6c0.2-0.3,7.3,0.1,15.6,0.9
		c14.7,1.4,15.2,1.4,17.5-0.1c1.3-0.9,24.7-27.2,52-58.7c59.8-68.9,55-63.5,55.8-62.7c0.4,0.4,1.6,2.9,2.8,5.4l2,4.6l-4.2,2.6
		c-21,12.9-37.5,34.1-44.9,57.7c-3.2,10.3-4.6,19.6-4.6,31.6c0,21.7,5.6,40.2,17.7,58.7c4.9,7.4,20.1,22.8,27.7,27.7
		c18.8,12.3,36.7,17.7,59.1,17.7c12.1,0,22.8-1.6,32.5-4.9c51-17.1,80.9-70.2,69-122.4c-9.1-39.9-40.4-70.6-80.5-79.2
		c-6.6-1.4-11.3-1.8-21.1-1.9c-13-0.1-20.1,1-31,4.3c-3.3,1.1-4.9,1.2-5.1,0.6c-0.2-0.5-5.1-11.2-10.8-23.7
		c-5.7-12.6-10.5-23.2-10.7-23.7c-0.3-0.7,5.4-1.1,19.8-1.5c22.1-0.7,27.2-0.2,32.1,3.2c4,2.6,7.5,9.7,7.7,15.4
		c0.2,6.9,2.6,9.6,8.4,9.6c2.3,0,3.5-0.6,5.2-2.5c4.2-4.6,3.8-12.1-1.3-22.7c-3.3-6.8-6.8-11-11.7-13.9l-3.6-2l2.9-2
		c7.3-4.9,7.6-15,0.7-20.2c-2-1.5-3.9-1.7-21.4-2.1c-10.5-0.3-27.3-0.6-37.3-0.7l-18-0.1l-0.5-3.1c-1.1-6.8-7.9-69.7-8.6-78.2
		c-0.6-8.6-0.8-9.5-3-12.2c-1.4-1.7-4.1-3.9-6-5C306.4,92.3,309.5,91.1,236,126.1z M303.3,154.8c0,1.1,0.9,11.8,2,24.1
		c1.1,12.2,1.8,22.9,1.5,23.8c-0.8,3,2,9,5.4,11.1c2.4,1.6,4.4,2,11.5,2.5l8.6,0.5l-2.7,2.7c-3.3,3.3-3.3,5.2-0.2,12.3
		c1.4,3,2.3,5.6,2.1,5.8c-0.2,0.2-3.3,0.6-6.9,0.8c-6.4,0.5-6.6,0.4-9.3-1.9c-1.5-1.3-25-14.1-52.2-28.5
		c-27.2-14.3-49.5-26.3-49.5-26.5c0-0.5,86.4-28.4,88.3-28.5C302.8,153,303.3,153.6,303.3,154.8z M206.8,219.9
		c1.1,0,2.6-0.4,3.5-0.9c1.3-0.7,5.5,1.2,25.5,11.7c13.8,7.3,23.2,12.6,22.2,12.6c-3.1,0.4-57,4.3-59.2,4.3c-2,0-2.4-0.6-7.6-15.7
		c-2.9-8.6-5.4-16.1-5.4-16.6c0-0.6,3.6,0.1,9.5,1.8C200.6,218.6,205.8,219.9,206.8,219.9z M340.8,256.6c0.9,1.7,1.6,3.8,1.6,4.4
		c0,1.1-99,115.6-100.3,116.2c-0.5,0.2-5.3-12.3-7.7-20c-0.5-1.5,6-9.4,41.4-50.8c23.2-27,42.3-49.5,42.7-50.2
		c0.5-0.7,3.7-1.3,10.4-1.9c5.4-0.4,9.9-0.8,10-0.9C339.1,253.4,339.9,254.8,340.8,256.6z M271,261.9c-6.2,7.6-48.9,57.3-49.3,57.4
		c-0.5,0.1-19.4-54.9-19.1-55.3c0.3-0.4,69.9-5.6,70.4-5.3C273.2,258.9,272.3,260.3,271,261.9z M198.1,301.7l11.1,32l-1.7,3.2
		c-1,2-1.6,4.8-1.6,7.3c0,3.4-0.1,3.8-0.7,2.1c-7.6-18.8-17.6-33.5-30.5-44.5c-3.1-2.5-5.5-5.1-5.5-5.5c0-1.2,17-27.3,17.5-26.8
		C186.8,269.6,192,284.2,198.1,301.7z M128.3,301c4.1,1.1,8.9,2.9,10.8,3.7l3.5,1.5l-23.3,35.6c-12.8,19.7-23.4,36.7-23.7,37.9
		c-0.6,2.6,1.4,6.9,3.7,8.2c0.9,0.4,21,2.6,44.6,4.9s43.2,4.2,43.4,4.4c0.5,0.6-2.3,10.1-4.6,15.3c-15,35-50.8,55.6-87.9,50.3
		c-22.5-3.1-43.8-16.4-56.8-35.3c-4.9-7.1-10.1-18.8-12.2-27.1c-2.6-10.4-2.6-29.5,0-39.3c7.3-28,27.7-49.9,54.3-58.8
		c10.9-3.6,14.8-4.1,28.6-3.8C119.1,298.8,122.1,299.2,128.3,301z M426.4,300.5c13.4,3.5,25.5,10.3,35.8,20.1
		c8.2,7.7,13.3,14.8,18,24.5c6.4,13.2,7.7,19.3,7.7,36.3c0,13.1-0.2,14.9-2.2,21.5c-4.6,15.3-11,25.9-21.7,36.5
		c-7.5,7.5-12.7,11.3-21.8,15.7c-24.4,12.2-53.5,11.3-77.3-2.3c-46.5-26.5-56-89.1-19.6-128.5c4.8-5.1,16.9-14.7,18.5-14.7
		c0.6,0,8.6,17.1,18.1,38c11.5,25.5,17.7,38.5,19.1,39.6c2.4,1.9,6.8,2,9.5,0.2c1.1-0.7,2.4-2.7,2.9-4.3c0.9-2.9,0.4-4.1-16.6-41.8
		c-14.2-31.3-17.3-38.8-16.3-39.4c0.6-0.3,4.3-1.4,8.2-2.2C398.6,297.6,416.6,298,426.4,300.5z M165.4,323.3
		c12.2,12.6,19.6,26.8,22.4,43c1.7,9.9,1.6,14.3-0.2,14.3c-3,0-68.9-6.4-69.3-6.8c-0.6-0.6,37.5-58.5,38.4-58.5
		C157.3,315.3,161.2,318.9,165.4,323.3z M209.7,354.9c0.7,1.1,3,2.7,5,3.6c3.5,1.8,3.5,1.8,7.4,13c2.1,6.1,4.1,11.7,4.3,12.2
		c0.2,0.7-0.3,1-2,0.7c-1.3-0.2-4.8-0.6-7.7-0.8l-5.3-0.5l-1-10c-0.6-5.5-1.6-12.9-2.5-16.5c-0.8-3.6-1.1-5.9-0.6-5
		C207.8,352.4,208.9,353.9,209.7,354.9z"/>
	<path class="st0" d="M33.2,189.3v49.4h49.4h49.4v-49.4v-49.4h-21.2H89.5v10.6v10.6h-7.3h-7.3v-10.6v-10.6H54H33.2V189.3z"/>
</g>
</svg>
