<?xml version="1.0" encoding="utf-8"?>
<!-- Generator: Adobe Illustrator 22.0.0, SVG Export Plug-In . SVG Version: 6.00 Build 0)  -->
<svg version="1.1" id="Layer_1" xmlns="http://www.w3.org/2000/svg" xmlns:xlink="http://www.w3.org/1999/xlink" x="0px" y="0px"
	 viewBox="0 0 32 32" style="enable-background:new 0 0 32 32;" xml:space="preserve">
<style type="text/css">
	.st0{fill:#000000;}
</style>
<g id="alert" transform="translate(250 366.483)">
	<g id="Group_1434" transform="translate(0 29.517)">
		<path id="Path_4621" class="st0" d="M-218.7-372.9l-11.3-18.9c-1.3-2.2-4.2-3-6.4-1.6c-0.7,0.4-1.2,1-1.6,1.6l-11.3,18.9
			c-1.3,2.2-0.6,5.1,1.7,6.4c0.7,0.4,1.5,0.7,2.4,0.7h22.6c2.6,0,4.7-2.1,4.7-4.7C-218-371.4-218.2-372.2-218.7-372.9z M-234-388.4
			c1,0,1.9,0.8,1.9,1.9v7.5c0,1-0.8,1.9-1.9,1.9s-1.9-0.8-1.9-1.9v-7.5l0,0C-235.9-387.5-235-388.4-234-388.4z M-234-369.6
			c-1.6,0-2.8-1.3-2.8-2.8c0-1.6,1.3-2.8,2.8-2.8c1.6,0,2.8,1.3,2.8,2.8l0,0C-231.2-370.8-232.4-369.6-234-369.6z"/>
	</g>
</g>
</svg>
