<?xml version="1.0" encoding="utf-8"?>
<!-- Generator: Adobe Illustrator 22.0.0, SVG Export Plug-In . SVG Version: 6.00 Build 0)  -->
<svg version="1.1" id="Layer_1" xmlns="http://www.w3.org/2000/svg" xmlns:xlink="http://www.w3.org/1999/xlink" x="0px" y="0px"
	 viewBox="0 0 32 32" style="enable-background:new 0 0 32 32;" xml:space="preserve">
<style type="text/css">
	.st0{fill:#f8bbab;}
	.st1{fill:#FAFBFC;}
</style>
<g id="check-2" transform="translate(251 362)">
	<path id="Path_4619-2" class="st0" d="M-235-362c-8.8,0-16,7.2-16,16s7.2,16,16,16c8.8,0,16-7.2,16-16
		C-219-354.8-226.2-362-235-362z"/>
	<path id="Path_4620-2" class="st1" d="M-226.9-349.4l-8.7,8.7c-0.5,0.5-1.4,0.5-1.9,0c0,0,0,0,0,0l-4.3-4.3
		c-0.5-0.5-0.6-1.3-0.1-1.9c0.5-0.5,1.3-0.6,1.9-0.1c0,0,0.1,0.1,0.1,0.1l3.4,3.4l7.7-7.7c0.5-0.5,1.4-0.5,1.9,0.1
		C-226.4-350.7-226.4-349.9-226.9-349.4L-226.9-349.4z"/>
</g>
</svg>
