<?xml version="1.0" encoding="utf-8"?>
<!-- Generator: Adobe Illustrator 22.0.0, SVG Export Plug-In . SVG Version: 6.00 Build 0)  -->
<svg version="1.1" id="Layer_1" xmlns="http://www.w3.org/2000/svg" xmlns:xlink="http://www.w3.org/1999/xlink" x="0px" y="0px"
	 viewBox="0 0 512 512" style="enable-background:new 0 0 512 512;" xml:space="preserve">
<style type="text/css">
	.st0{fill:#FFFFFF;}
	.st1{opacity:0.5;fill:#FFFFFF;enable-background:new    ;}
</style>
<g id="Group_1191" transform="translate(32 284.881)">
	<path id="Path_2114" class="st0" d="M206,219.2l-94.5-94.5H-6.2c-13.3,0.9-24.9-9.2-25.8-22.5c-0.1-1.1-0.1-2.2,0-3.3v-358
		c-0.9-13.3,9.2-24.9,22.5-25.8c1.1-0.1,2.2-0.1,3.3,0h460.4c13.3-0.9,24.9,9.2,25.8,22.5c0.1,1.1,0.1,2.2,0,3.3V99.2
		c0.9,13.3-9.2,24.9-22.5,25.8c-1.1,0.1-2.2,0.1-3.3,0H336.5L242,219.5c-9.4,9.9-25.1,10.2-35,0.8
		C206.7,219.9,206.3,219.6,206,219.2z M19.2,73.4h102.4c6.8-0.2,13.4,2.6,17.9,7.7l84.4,84.4l84.4-84.4c4.6-5.1,11.1-7.9,17.9-7.7
		h102.4v-307.1H19.2V73.4z"/>
	<path id="Path_2115" class="st1" d="M326.3-105.7H121.8c-13.3,0.9-24.9-9.2-25.8-22.5c-0.1-1-0.1-1.9,0-2.9
		c-0.9-13.3,9.2-24.9,22.5-25.8c1.1-0.1,2.2-0.1,3.3,0h204.7c13.3-0.9,24.9,9.2,25.8,22.5c0.1,1.1,0.1,2.2,0,3.3
		c0.7,13.3-9.5,24.7-22.9,25.4C328.3-105.6,327.3-105.6,326.3-105.7z"/>
	<path id="Path_2116" class="st1" d="M326.3-3.4H121.8C107.6-5.1,97.6-18,99.3-32.1c1.4-11.7,10.7-21,22.4-22.4h204.7
		c14.1,1.7,24.2,14.6,22.4,28.7c-1.4,11.7-10.7,21-22.4,22.4H326.3z"/>
</g>
</svg>
