<?xml version="1.0" encoding="utf-8"?>
<!-- Generator: Adobe Illustrator 22.0.0, SVG Export Plug-In . SVG Version: 6.00 Build 0)  -->
<svg version="1.1" id="Layer_1" xmlns="http://www.w3.org/2000/svg" xmlns:xlink="http://www.w3.org/1999/xlink" x="0px" y="0px"
	 viewBox="0 0 512 512" style="enable-background:new 0 0 512 512;" xml:space="preserve">
<style type="text/css">
	.st0{fill:#FFFFFF;}
	.st1{opacity:0.5;fill:#FFFFFF;enable-background:new    ;}
</style>
<g id="Group_1256" transform="translate(33.702 251.993)">
	<path id="Path_2160" class="st0" d="M452.7,193.2H-8.1c-13.3,0.8-24.8-9.4-25.6-22.7c-0.1-1-0.1-1.9,0-2.9v-307.2
		c-0.8-13.3,9.4-24.8,22.7-25.6c1-0.1,1.9-0.1,2.9,0h460.7c13.3-0.8,24.8,9.4,25.6,22.7c0.1,1,0.1,1.9,0,2.9v307.2
		c0.8,13.3-9.4,24.8-22.7,25.6C454.6,193.2,453.6,193.2,452.7,193.2z M17.7,142h409.4v-256H17.5L17.7,142z"/>
	<rect id="Rectangle_1945" x="68.7" y="-62.8" class="st1" width="307.2" height="51.2"/>
</g>
</svg>
