<?xml version="1.0" encoding="utf-8"?>
<!-- Generator: Adobe Illustrator 22.0.0, SVG Export Plug-In . SVG Version: 6.00 Build 0)  -->
<svg version="1.1" id="Layer_1" xmlns="http://www.w3.org/2000/svg" xmlns:xlink="http://www.w3.org/1999/xlink" x="0px" y="0px"
	 viewBox="0 0 512 512" style="enable-background:new 0 0 512 512;" xml:space="preserve">
<style type="text/css">
	.st0{fill:#FFFFFF;}
	.st1{opacity:0.5;fill:#FFFFFF;enable-background:new    ;}
</style>
<g id="Group_1255" transform="translate(33.702 321.144)">
	<path id="Path_2159" class="st0" d="M204.3,183.1c-18-20.6-188-193.1-188-301.2c1.6-113.8,95.2-204.7,209-203
		c111.4,1.6,201.4,91.6,203,203c0,108.1-167.4,280.7-188,301.3c-9.5,9.9-25.3,10.3-35.2,0.8C204.8,183.7,204.6,183.4,204.3,183.1z
		 M222.3-272.6C137.1-272.4,68-203.4,67.8-118.1c0,64.4,97.9,185.4,154.5,244.6c56.7-59.2,154.5-180.3,154.5-244.6
		C376.6-203.3,307.6-272.4,222.3-272.6z"/>
	<circle id="Ellipse_407" class="st1" cx="222.3" cy="-118.2" r="51.5"/>
</g>
</svg>
