<?xml version="1.0" encoding="utf-8"?>
<!-- Generator: Adobe Illustrator 22.0.0, SVG Export Plug-In . SVG Version: 6.00 Build 0)  -->
<svg version="1.1" id="Layer_1" xmlns="http://www.w3.org/2000/svg" xmlns:xlink="http://www.w3.org/1999/xlink" x="0px" y="0px"
	 viewBox="0 0 512 512" style="enable-background:new 0 0 512 512;" xml:space="preserve">
<style type="text/css">
	.st0{opacity:0.5;fill:#000000;enable-background:new    ;}
	.st1{fill:#000000;}
</style>
<g id="Group_1192" transform="translate(43.574 405.091) rotate(180)">
	<path id="Path_2117" class="st0" d="M17.8-81.1v460.4c0.9,13.3-9.2,24.9-22.5,25.8c-1.1,0.1-2.2,0.1-3.3,0h-127.7v-51.3h102.4
		V-55.7h-102.4v-51.2h128c13.3-0.8,24.8,9.4,25.6,22.7C17.9-83.1,17.9-82.1,17.8-81.1z"/>
	<path id="Path_2118" class="st1" d="M-281.5,3.2c-9.9,9.4-10.3,25.1-0.8,35c0.3,0.3,0.6,0.6,0.8,0.8l84.4,84.4h-219.9
		c-13.3-0.9-24.9,9.2-25.8,22.5c-0.1,1.1-0.1,2.2,0,3.3c-0.9,13.3,9.2,24.9,22.5,25.8c1.1,0.1,2.2,0.1,3.3,0H-197l-84.4,84.1
		c-9.6,10.2-9.1,26.2,1.1,35.8c9.8,9.2,25,9.2,34.7,0l127.9-128c9.9-9.4,10.3-25.1,0.8-35c-0.3-0.3-0.6-0.6-0.8-0.8L-245.7,3.2
		c-9.4-9.9-25.1-10.3-35-0.8C-280.9,2.6-281.2,2.9-281.5,3.2z"/>
</g>
</svg>
