<?xml version="1.0" encoding="utf-8"?>
<!-- Generator: Adobe Illustrator 22.0.0, SVG Export Plug-In . SVG Version: 6.00 Build 0)  -->
<svg version="1.1" id="Layer_1" xmlns="http://www.w3.org/2000/svg" xmlns:xlink="http://www.w3.org/1999/xlink" x="0px" y="0px"
	 viewBox="0 0 512 512" style="enable-background:new 0 0 512 512;" xml:space="preserve">
<style type="text/css">
	.st0{opacity:0.5;fill:#000000;enable-background:new    ;}
	.st1{fill:#000000;}
</style>
<g id="Group_1192" transform="translate(43.574 405.091) rotate(180)">
	<path id="Path_2117" class="st0" d="M-442.7-84.2c0.8-13.3,12.2-23.5,25.6-22.7h128v51.2h-102.4v409.4h102.4V405h-127.7
		c-1.1,0.1-2.2,0.1-3.3,0c-13.3-0.9-23.4-12.4-22.5-25.8V-81.1C-442.8-82.1-442.8-83.1-442.7-84.2z"/>
	<path id="Path_2118" class="st1" d="M-144.2,2.3c-9.9-9.4-25.6-9-35,0.8l-127.9,127.9c-0.3,0.3-0.6,0.6-0.8,0.8
		c-9.4,9.9-9,25.6,0.8,35l127.9,128c9.8,9.2,25,9.2,34.7,0c10.2-9.6,10.7-25.6,1.1-35.8l-84.4-84.1H-7.9c1.1,0.1,2.2,0.1,3.3,0
		c13.3-0.9,23.4-12.4,22.5-25.8c0.1-1.1,0.1-2.2,0-3.3c-0.9-13.3-12.4-23.4-25.8-22.5h-219.9l84.4-84.4c0.3-0.3,0.6-0.6,0.8-0.8
		c9.4-9.9,9-25.6-0.8-35C-143.6,2.9-143.9,2.6-144.2,2.3z"/>
</g>
</svg>
