<svg xmlns="http://www.w3.org/2000/svg" viewBox="0 0 94.81 179.79"><defs><style>.cls-1{fill:#628bc8;}.cls-2{fill:#7097cf;}.cls-3{fill:#4b75b9;}.cls-4{fill:#fbd556;}.cls-5{fill:#f9b02e;}.cls-6{fill:#f6a22f;}.cls-7{fill:#e28118;}</style></defs><g id="Layer_2" data-name="Layer 2"><g id="Layer_1-2" data-name="Layer 1"><g id="sports-and-competition"><path id="Path_5826" data-name="Path 5826" class="cls-1" d="M94.81,5.27V61.45a5.26,5.26,0,0,1-2.09,4.2L73.41,80.29,50.58,97.6a5.25,5.25,0,0,1-6.36,0L21.4,80.29,2.09,65.65A5.26,5.26,0,0,1,0,61.45V5.27A5.27,5.27,0,0,1,5.27,0H89.54A5.27,5.27,0,0,1,94.81,5.27Z"/><path id="Path_5827" data-name="Path 5827" class="cls-1" d="M89.54,0H47.4V98.67a5.27,5.27,0,0,0,3.18-1.07L73.41,80.29,92.72,65.65a5.26,5.26,0,0,0,2.09-4.2V5.27A5.27,5.27,0,0,0,89.54,0Z"/><path id="Path_5828" data-name="Path 5828" class="cls-2" d="M73.41,0V80.29L50.59,97.6a5.27,5.27,0,0,1-6.37,0L21.4,80.29V0Z"/><path id="Path_5829" data-name="Path 5829" class="cls-3" d="M47.4,0V98.67a5.27,5.27,0,0,0,3.18-1.07L73.41,80.29V0Z"/><path id="Path_5830" data-name="Path 5830" class="cls-4" d="M47.4,88.14A45.83,45.83,0,1,0,93.23,134,45.82,45.82,0,0,0,47.4,88.14Z"/><path id="Path_5831" data-name="Path 5831" class="cls-5" d="M47.4,88.14v91.64a45.82,45.82,0,0,0,0-91.64Z"/><path id="Path_5832" data-name="Path 5832" class="cls-6" d="M71,128.16a5.27,5.27,0,0,0-3.8-3.5l-10-2.36-5.32-8.76a5.27,5.27,0,0,0-7.24-1.77,5.35,5.35,0,0,0-1.77,1.77l-5.32,8.76-10,2.36a5.27,5.27,0,0,0-2.79,8.56L31.5,141l-.84,10.22a5.27,5.27,0,0,0,4.82,5.68,5.17,5.17,0,0,0,2.46-.39l9.47-4,9.46,4a5.26,5.26,0,0,0,7.28-5.29L63.31,141,70,133.22A5.25,5.25,0,0,0,71,128.16Z"/><path id="Path_5833" data-name="Path 5833" class="cls-7" d="M71,128.16a5.27,5.27,0,0,0-3.8-3.5l-10-2.36-5.32-8.76A5.25,5.25,0,0,0,47.4,111v41.54l9.47,4a5.27,5.27,0,0,0,6.89-2.82,5.36,5.36,0,0,0,.39-2.47L63.31,141,70,133.22A5.25,5.25,0,0,0,71,128.16Z"/></g></g></g></svg>