<svg xmlns="http://www.w3.org/2000/svg" viewBox="0 0 601.62 510.3"><g id="Layer_2" data-name="Layer 2"><g id="Layer_1-2" data-name="Layer 1"><path d="M13.11,228.46A21.57,21.57,0,0,0,5.89,233a10.88,10.88,0,0,1-1.09,1.06,1.91,1.91,0,0,1-2.68-.62,19.2,19.2,0,0,1-1-2.66,61.73,61.73,0,0,1,11.52-7.06,9.14,9.14,0,0,0,3.14-2.34,15.59,15.59,0,0,1,3-2.61c2.55-1.72,5.17-3.33,7.76-5a16.6,16.6,0,0,1,9.05-2.48c4,0,8-.22,12,0a68.55,68.55,0,0,1,11.49,1.55,8,8,0,0,0,1.81.27c4.09,0,7.89,1.24,11.58,2.74a43.39,43.39,0,0,0,7.88,2.48c3.44.67,6.56,2.23,9.8,3.44,1.42.54,2.81,1.17,4.11,1.72,1.19-1.28,2.32-2.42,3.36-3.64a3.42,3.42,0,0,0,.78-1.61,58.15,58.15,0,0,1,2.48-9.8,3.46,3.46,0,0,1,.25-.88c1.79-2.71,2.09-6,3.25-8.91a2.49,2.49,0,0,0,.2-.58c.44-3.44.83-6.88,1.32-10.32.43-3,0-6.1.46-9.13a3.69,3.69,0,0,0-.15-1.81c-.71-2-1.5-4-2.28-6-.53-1.34-1.07-2.66-1.66-4a8.72,8.72,0,0,1-.56-6.28,2.78,2.78,0,0,0-.59-2.83c-1.7-2-2-4.68-2.77-7.09a75.67,75.67,0,0,1-2.88-15.36,8.69,8.69,0,0,1,0-1.53c.13-1.93.3-3.85.4-5.78a7.8,7.8,0,0,0-.23-1.49c-.14-1.2-.27-2.4-.41-3.65l1.67-.82c-1-3.9-1.89-7.77-2.88-11.62-1.27-5-1.67-10.07-2.36-15.13-.9-6.61-.75-13.27-.91-19.91a121.45,121.45,0,0,1,.44-13.49,46,46,0,0,1,3.89-16,36.41,36.41,0,0,1,4.19-7.48c2.24-2.73,4.66-5.42,8-7,2.75-1.34,5.37-2.93,8.12-4.27a43.37,43.37,0,0,1,4.74-1.71,16.07,16.07,0,0,1-3-5.56,13.77,13.77,0,0,1-.75-2.65,5.13,5.13,0,0,1,1.15-4.31,20.06,20.06,0,0,0,1.9-2.75,2.47,2.47,0,0,1,1.93-1.36c3-.26,5.92-.4,8.76.8A4.36,4.36,0,0,1,133,12.81a21.72,21.72,0,0,0,1,3.2A7,7,0,0,1,133,23.47c-1.09,1.32-1.77,3-3.56,3.63a53.77,53.77,0,0,1,3,4.59c.74,1.43,1.07,3.08,1.76,4.54a78.75,78.75,0,0,0,4.72,9.3c2.3,3.55,3.74,7.47,5.6,11.21,2.94,5.89,6.47,11.35,11.74,15.64a35.16,35.16,0,0,0,7.29-2.87c2.19-1.31,4.7-2,7.35-1,1.94.75,2.35,1.3,2.24,3.43a9.79,9.79,0,0,1-1.68,4.89,67.1,67.1,0,0,1-4.78,6.38,14.4,14.4,0,0,1-2.86,2,7.93,7.93,0,0,0,.93,1.07,22.64,22.64,0,0,1,6.52,9.12c1.05,2.46,2.55,4.64,3.78,7,.84,1.62,2.06,3,2.34,4.94a1.86,1.86,0,0,0,.43.79c2.75,3.37,4.21,7.45,6.15,11.26a30,30,0,0,1,1,3.22c1,2.66,2,5.29,3.14,8.1a19.59,19.59,0,0,0,5.68.2,15.1,15.1,0,0,1,9.77,1.73c3.2,1.67,5.6,4.06,6.13,7.84a1.26,1.26,0,0,1-.06.61c-.13.38-.3.76-.48,1.2a7.61,7.61,0,0,0-1.71.56c-2.83,1.75-5.7.94-8.56.18-1-.26-1.92-.73-3-.12a6.56,6.56,0,0,0,1.73,5,83.22,83.22,0,0,1,4.83,7.46c.38.61.74,1.23,1.12,1.84,2.89,4.62,4.78,9.69,6.83,14.71.92,2.27,2.06,4.45,3,6.69a23.75,23.75,0,0,1,2.14,5.4,6.58,6.58,0,0,0,.76,1.67,18,18,0,0,1,1.34,2.76,76,76,0,0,1,2,8,14.9,14.9,0,0,0,1.48,4.64c.53,1,1,2,1.59,3a8,8,0,0,0,1.17,1.38,19.83,19.83,0,0,1,2.33,2.44,88.27,88.27,0,0,0,9.47,11.65c.69.76,1.36,1.53,2.07,2.27a32.8,32.8,0,0,1,6.16,9.44c1.45,3.27,2.91,6.53,4.33,9.81.52,1.21,1,2.45,1.42,3.69a29.76,29.76,0,0,0,2.88,5.72,10.26,10.26,0,0,1,1.14,3.44,20.13,20.13,0,0,0,2,5.11c2.06,4.11,4.09,8.24,6.54,12.15a86.92,86.92,0,0,1,5.55,11.6c1.38,3.18,2.46,6.47,3.69,9.71,1.09,2.85,2.21,5.7,3.17,8.6a23.67,23.67,0,0,1,1,4.78,6.42,6.42,0,0,0,1,3.46,1.85,1.85,0,0,1,.26,1.17,18.17,18.17,0,0,0,1.38,7.43c.34,1,.61,1.95.86,2.94q1.2,4.59,2.35,9.18c.15.59.19,1.2.31,1.79.57,3,.44,6.1,1.17,9.09.15.6-.27,1.33-.46,2.13,2,1.68,2.1,4,1.68,6.39-.23,1.3-.6,2.58-.94,4a3.79,3.79,0,0,0,.7.78,2.37,2.37,0,0,1,1.08,2.66,3.54,3.54,0,0,0,.84,3.29c-.42,1.58-1.45,2.94-.6,4.83a4.92,4.92,0,0,0,1.41.52,2.45,2.45,0,0,1,2.34,2.41,35.86,35.86,0,0,0,3.08,9c1.47,3.35,2.95,6.68,4.34,10.06,1.5,3.66,3.61,7.07,5.42,10.61,1.2,2.32,3.25,4.19,4.87,6.3a7.42,7.42,0,0,1,1.43,2.34,20.5,20.5,0,0,0,4.74,7.81,28.49,28.49,0,0,1,4,6.8c1.13,2.4,2.77,4.49,4,6.84a9.72,9.72,0,0,1,.87,1.61c.87,3.35,3,6,4.68,8.91a12.36,12.36,0,0,1,1.17,2.81,24.65,24.65,0,0,0,2.37,5.59c1.8,3.08,3.71,6.1,5.5,9.18a27.16,27.16,0,0,1,.92,2.58c1.14,2.62,2.34,5.21,3.52,7.81a15.59,15.59,0,0,1,.74,1.68,70.29,70.29,0,0,1,3,11.5c.13.91.55,1.76.74,2.66a32.6,32.6,0,0,1,.93,5.12c.16,3.73,2.1,6.07,5.37,7.46,1.78.77,3.62,1.4,5.43,2.11.76.29,1.51.61,2.48,1a5.42,5.42,0,0,0-1.17-3.94c.76-.15,1.27-.42,1.66-.3,2.77.86,5.39,2.07,7.2,4.42a9.06,9.06,0,0,0,4.18,3,41.74,41.74,0,0,1,6.05,2.95,9,9,0,0,1,4,4.32c-.41.45-.84,1-1.33,1.45a2.67,2.67,0,0,1-2.87.5,9.61,9.61,0,0,1-3.85-2.45,20.39,20.39,0,0,0-1.75-1.73c-1.46-1.15-3-2-5-1.69a6.2,6.2,0,0,1-3.26-.53c-4.07-1.69-8.23-3.09-12.4-4.51a15,15,0,0,1-5.51-3.26,3.55,3.55,0,0,0-.47-.4c-4-2.59-5.48-6.66-6.39-11.07-.65-3.2-1.23-6.44-2.16-9.57-1.47-5-2.84-10-5.42-14.61s-5-9.17-7.76-13.59c-.44-.7-.92-1.36-1.38-2-2.12-3.13-4.25-6.26-6.35-9.4a90.31,90.31,0,0,0-10-12.77,28.94,28.94,0,0,1-2.6-3.41c-1.6-2.25-3.1-4.57-4.79-6.75a29.13,29.13,0,0,1-4.83-8.48c-1.19-3.48-2.48-6.92-3.73-10.37a3,3,0,0,1-.19-.58,117,117,0,0,0-2.83-12.26,47.39,47.39,0,0,1-.83-5.75,11.59,11.59,0,0,0-.25-1.2,3.11,3.11,0,0,0-1.78-2.35,6.61,6.61,0,0,1-1.53-1,4.74,4.74,0,0,1-1.95-4c.09-2.24.16-4.5.42-6.73a5.81,5.81,0,0,0-.67-4.11,7.28,7.28,0,0,1-.66-2.63,1.94,1.94,0,0,1,1.35-2.43c.17-.06.28-.29.52-.54,0-1.89.51-3.89.16-6a5.41,5.41,0,0,0-3.25.19,14.52,14.52,0,0,0-.28,2,9.61,9.61,0,0,1-1.11,4.41c-1.35,2.68-2.7,3.37-5.65,2.69-.29-.07-.59-.12-1.11-.22a22.77,22.77,0,0,0-1.13,2c-.21.46-.14,1.06-.39,1.47-1.53,2.51-1.54,5.45-2.43,8.14a5.67,5.67,0,0,0-.41,1.79c0,3.81-1.83,7.06-3,10.52-1.36,4.1-3.77,7.7-5.79,11.47a79.49,79.49,0,0,1-4.57,6.87c-1.5,2.19-3,4.38-4.57,6.51-1.09,1.47-2.32,2.85-3.49,4.26a6.35,6.35,0,0,0-.8.93c-2.82,5.29-7.47,8.9-11.84,12.73a110,110,0,0,1-10.16,7.9,79.29,79.29,0,0,0-8.54,7.47,35.29,35.29,0,0,1-4.68,3.93,51,51,0,0,0-4.65,3.86c-.26,2.15-.59,4.47-.82,6.81-.25,2.53-.36,5.08-.62,7.62-.23,2.34-.58,4.66-.85,7a6.55,6.55,0,0,0,0,1.82,17.62,17.62,0,0,1-.43,6.39c-.22,1.2-.29,2.43-.39,3.65-.13,1.64-.28,3.28,1.08,4.4a17.06,17.06,0,0,1-3.71,4.68c-3,2.81-5.75,5.84-9.43,7.78a5.67,5.67,0,0,0-1.23.89,9,9,0,0,1-3.46,1.91,31.32,31.32,0,0,0-4.2,1.85c-3,1.56-5.94,3.19-8.89,4.83a35.75,35.75,0,0,0-3.36,2.12c-3.3,2.36-5.11,1.8-6.35-2-.09-.28-.2-.56-.38-1-1.68.21-3.31.3-4.79,1.43-1.92,1.47-3.25,1.18-4.65-.75a6.54,6.54,0,0,1-.64-1.05c-1.09-2.21-.57-3.54,1.85-4.08a15.9,15.9,0,0,0,6.88-3.87,3.26,3.26,0,0,0,.7-1c.07-.15,0-.39-.06-.69a7.88,7.88,0,0,0-4.72.25c-2.19,1-5.37-1.28-5.78-4.07a1.23,1.23,0,0,1,1.06-1.29,8.33,8.33,0,0,1,2.74.14c2.55.83,4.76-.32,7.29-.85-.25-.67-.39-1.14-.58-1.59A134.35,134.35,0,0,0,147,463.62a86.31,86.31,0,0,1-5.87-10.77,62.94,62.94,0,0,0-6.71-11.68,24.75,24.75,0,0,1-4-8.18,61.46,61.46,0,0,1-1.75-6.52,4,4,0,0,0-2.64-3.09c-.74-.31-1.52-.54-2.23-.78-.22.25-.46.38-.46.53-.08,1.59.4,3.12,0,4.81s.08,3.44.08,5.18-.12,3.27-.21,4.9-.29,3.27-.27,4.9c0,2.75.16,5.51.25,8.26a21.34,21.34,0,0,1-.42,5.8,14.84,14.84,0,0,0-.18,2.76,6,6,0,0,1-.14,1.82c-.85,2-.56,4-.49,6,.05,1.12-.06,2.25-.11,3.37a32.4,32.4,0,0,0,0,7,19.23,19.23,0,0,1-.12,4c-2.09,1.06-3.83,2.5-6.19,2.76a4,4,0,0,0-3,1.83,3.42,3.42,0,0,1-2.56,1.54c-2.93.32-5.86,1-8.84.28a12,12,0,0,0-5.47.33,20.45,20.45,0,0,1-7,.15,44.11,44.11,0,0,0-4.59-.36,36.91,36.91,0,0,1-7.61-.8,21.25,21.25,0,0,0-9.42,0c-2.6.55-5.19,1.21-7.81,1.63a22.2,22.2,0,0,1-4.89.14,7.63,7.63,0,0,1-2.53-.94c-.47-.22-.33-1,.16-1.25a3.79,3.79,0,0,1,.86-.29l12.38-2.14a3.86,3.86,0,0,0,.81-.36c-1-1.8-1-1.86-2.29-2a24.77,24.77,0,0,0-7.64-.06,29.73,29.73,0,0,1-5.51.33,5.51,5.51,0,0,1-2-.61.92.92,0,0,1-.39-.74.94.94,0,0,1,.49-.69,8.83,8.83,0,0,1,2.07-.51,66.92,66.92,0,0,1,9.8-.62,18.83,18.83,0,0,0,2.3-.19c-.24-.79-.44-1.43-.66-2.14A49.84,49.84,0,0,1,53.78,475a21,21,0,0,0-4.51-.76c-2.59-.36-4.71-1.36-5.68-4a2,2,0,0,1-.12-.59,6.77,6.77,0,0,1,.07-.74,5,5,0,0,1,3-1.1c4.58-.34,9.15-.6,13.71.49A42.55,42.55,0,0,0,67,469a1.88,1.88,0,0,0,2.17-2,17.74,17.74,0,0,0-.51-3.62c-.65-2.79-1.37-5.55-2.1-8.32a19.61,19.61,0,0,0-1-3.2,31.1,31.1,0,0,1-1.58-5.25,126.33,126.33,0,0,1-2.7-15.08c-.79-5.36-2-10.63-3.23-15.89a13,13,0,0,1-.33-1.5c-.36-3.24-.76-6.48-1-9.74-.16-2.05-.67-4-1-6a104.41,104.41,0,0,1-1.47-18.6c.11-4.3.18-8.6.24-12.9,0-.92-.11-1.84-.1-2.76,0-4,0-8,.21-12a19,19,0,0,1,1-4.77c1.1-3.4,2.33-6.76,3.5-10.13a5.92,5.92,0,0,1,.45-1.13c3-4.6,5.66-9.49,9.14-13.8,1.09-1.34,1.85-2.65,1.33-4.46a6.12,6.12,0,0,1-.08-2.14,96.15,96.15,0,0,0-.27-13.47,56.9,56.9,0,0,1,.21-5.83,52.83,52.83,0,0,1,.68-7.93,56.31,56.31,0,0,1,2.21-8.91,53.87,53.87,0,0,0,2-7.07c.62-2.71,1.72-5.24,2.58-7.86s1.78-5.21,2.51-7.86a84.4,84.4,0,0,1,3.43-10.17,7.62,7.62,0,0,0,.33-1.52c-1.19-.57-2.29-1.08-3.38-1.61-2.75-1.36-5.44-2.87-8.25-4.08a71,71,0,0,0-13.53-3.88,44.19,44.19,0,0,1-9.16-2.42,13.8,13.8,0,0,0-4.5-.82c-2.8-.22-5.45.51-8.17.85a2.9,2.9,0,0,0-.87.25c-4.41,2-9.23,2.6-13.72,4.29a1.61,1.61,0,0,1-.89.17c-2.07-.64-3.58.68-5,1.63-2.32,1.49-4.43,3.29-6.62,5-.56.44-1.06,1-1.61,1.42a3.9,3.9,0,0,1-2.85.94,3.52,3.52,0,0,1-2.56-1.71c1.64-2.1,4-3.26,5.88-4.87s4-3.16,6.07-4.83l-.89-1.57c-.36,0-.63-.09-.74,0a13.31,13.31,0,0,1-4.69,2.82,3.87,3.87,0,0,0-1.88,1.49A24.93,24.93,0,0,1,3.5,241a3.93,3.93,0,0,1-1.84,1c-.47.09-1-.31-1.66-.53.84-2.14,2.53-3.19,4-4.38,2.48-2,5-3.88,7.54-5.81a5.1,5.1,0,0,0,1.16-1A6.86,6.86,0,0,0,13.11,228.46Zm67,9.44-.08-.05a11,11,0,0,0,5,2.74c.86-1.54,1.62-3,2.45-4.39s1.94-2.9,2.72-4.44,2.3-2.32,2.53-4.15a9,9,0,0,0-1.19-.5c-2.07-.56-4.13-1.14-6.22-1.62-2.57-.6-5.17-1.08-7.75-1.67a34.34,34.34,0,0,1-4.11-1.16,32.07,32.07,0,0,0-8.92-2.11c-3.26-.22-6.45-1.12-9.74-1.08a8.5,8.5,0,0,1-1.2-.24c-1.31-.17-2.63-.41-4-.45-2.46-.07-4.91,0-7.37,0a23.83,23.83,0,0,0-10.39,2.37c-3.56,1.74-6.83,4.06-10.21,6.15a2.33,2.33,0,0,0-.68.61c-.29.37-.73.75-.15,1.4l5.95-.93c1.82-.29,3.65-.53,5.45-.9a41.41,41.41,0,0,1,11-.49,9.72,9.72,0,0,1,1.5.3c2.29.5,4.57,1.07,6.87,1.52s4.91.58,7.26,1.24c5.11,1.45,10.25,2.85,15,5.44a39.25,39.25,0,0,0,3.89,1.81A18.26,18.26,0,0,0,80.08,237.9ZM189.52,483.81a8.28,8.28,0,0,0,2.94-3c0-1.18-.06-2.29,0-3.4.09-1.42.27-2.84.41-4.26a25.66,25.66,0,0,1,.31-3,74.92,74.92,0,0,0,1.19-10.34,28.88,28.88,0,0,1,1-7,9.06,9.06,0,0,0,.23-1.82c.16-1.52.18-3.07.46-4.57a34.43,34.43,0,0,0,.85-7,2.33,2.33,0,0,1,.84-1.9c1.55-1.31,2.77-3,4.67-3.95a6.62,6.62,0,0,0,1.93-1.49,47,47,0,0,1,8.72-7.7c.59-.4,1.07-1,1.62-1.42a8.59,8.59,0,0,1,1.45-1.13c3.3-1.73,6-4.31,8.84-6.62,4.28-3.48,8.37-7.21,12.41-11a55.65,55.65,0,0,0,10.55-13.87c1.14-2.05,2.5-4,3.78-6a47.41,47.41,0,0,0,3.52-5.39c1.91-4.07,3.67-8.22,5.27-12.42,1.78-4.68,2.05-9.78,3.67-14.53a6.84,6.84,0,0,0,.08-1.82c.07-1,.13-2,.23-3.06a4.22,4.22,0,0,1,1.64-2.5,2.47,2.47,0,0,1,2.21-.72c1.14.14,1.56-.27,1.54-1.35-.06-3.28,0-3.08,2.43-5.28,2-1.82,2.85-3.57,2.06-6.13a8.56,8.56,0,0,1-.06-1.53c-.16-1.52-.34-3-.56-4.56-.63-4.37-2.39-8.43-3.66-12.62-1.09-3.62-1.53-7.39-3-10.92-2.36-5.78-4.39-11.69-6.86-17.41a212.87,212.87,0,0,0-10.32-21.55c-2.85-5-5.42-10.1-8.11-15.15a122.52,122.52,0,0,1-5.73-12.56,47.84,47.84,0,0,0-7.71-13.54,59.4,59.4,0,0,1-6.28-8.68,35.93,35.93,0,0,0-5.19-7.59,4.74,4.74,0,0,1-1-1.53c-.71-1.69-1.41-3.39-2-5.13a25.51,25.51,0,0,1-.69-3.26,5.39,5.39,0,0,0-.25-1.48,7.89,7.89,0,0,1-.79-2.93,13,13,0,0,0-.75-3.28c-1.14-2.85-2.43-5.62-3.62-8.45-1.3-3.1-2.52-6.24-3.82-9.35-1.89-4.52-3.57-9.13-6.2-13.31-.93-1.47-1.89-2.93-2.7-4.47-1.32-2.52-3.38-4.6-4.27-7.38a3,3,0,0,0-1.85-1.88c-1.47-.58-2-1.89-1.72-3.63a13.81,13.81,0,0,0,5.13-.54,1.54,1.54,0,0,1,1.38.41c1.33,1.74,3,1.8,4.93,1.37a15.93,15.93,0,0,1,2.76,0,10.42,10.42,0,0,0,1.64-.37,9,9,0,0,0-1.16-2,10.58,10.58,0,0,0-2.9-2.22c-2.83-1.16-5.71-2.24-8.9-1.51a16.31,16.31,0,0,1-3,.38,3.34,3.34,0,0,1-3.68-2.15c-.47-1.23-1-2.45-1.52-3.67a20.27,20.27,0,0,0-1-2.25,34.82,34.82,0,0,1-2.65-6.52,23.34,23.34,0,0,0-1.25-3.12c-1.59-3.2-3.28-6.36-4.86-9.56-2.49-5-4.91-10.13-7.41-15.17-1.08-2.19-2.33-4.31-3.47-6.48-.82-1.57-.65-2.16.81-3.35a25.08,25.08,0,0,0,6.53-7.67,1.77,1.77,0,0,0,0-2,2,2,0,0,0-2.24-.58,2.49,2.49,0,0,0-1.1.51,7.43,7.43,0,0,1-4.53,2.22,2.33,2.33,0,0,0-.55.27c-3.48,1.72-3.49,1.73-7.14.51a9,9,0,0,1-4-2.16,81,81,0,0,1-7-8.16c-2.47-3.54-4.15-7.5-6.26-11.23a11.7,11.7,0,0,1-.51-1.44c-1-2.46-1.9-5-3-7.38-1.62-3.52-3.43-7-5.07-10.48-.69-1.48-1.16-3.07-1.77-4.59a2.57,2.57,0,0,0-1.72-1.81c-1,.58-2.22,1.18-3.36,1.85a14.2,14.2,0,0,0-1.75,1.24,22,22,0,0,1-4.94,3,10.25,10.25,0,0,0-1.34.73,39.28,39.28,0,0,0-8,7.15,5.62,5.62,0,0,0-.91,1.22c-1.42,3-3.16,5.91-4.3,9.12a47,47,0,0,0-2.41,12.86c-.47,7.37.51,14.69,1.08,22,.42,5.4.93,10.8,1.74,16.16a38.72,38.72,0,0,0,1.24,6.84c1.19,3.46,1.8,7.11,2.71,10.67a12,12,0,0,0,1,2.87c1.88,3.28,3.83,6.52,5.79,9.76a5.82,5.82,0,0,0,1.38,1.62c2.78,2.08,5.51,4.29,9.13,4.77a4.54,4.54,0,0,0,4.65,0l2.32,1.27a1.73,1.73,0,0,1-.66,2.33,5.47,5.47,0,0,1-2.93.74c-4.12.3-7.84-1.13-11.57-2.6a26.33,26.33,0,0,1-8.28-5.71,6.45,6.45,0,0,1-1.11-1.78c-.23-.42-.5-.59-.9-.42,0,3.18,0,6.33,0,9.48a2.26,2.26,0,0,0,.3.87,12.17,12.17,0,0,1,.65,3.59c.48,4,1,7.9,3.81,11.09,1.18,1.32.82,3.05-.54,4.3-.28.26-.54.56-.74.76.06,2.19.1,2.17.78,3.35a34,34,0,0,1,4,9.54c.33,1.48.62,3,1,4.44a21.77,21.77,0,0,1,.68,6.95c-.32,3.24.43,6.57-.78,9.73a3.28,3.28,0,0,0-.08,1.22,21.89,21.89,0,0,1-1.42,7.8,52.23,52.23,0,0,0-2.25,9.21c-.22,1.49-.62,3,.32,4.49a2,2,0,0,1-.07,2,9,9,0,0,0-1.25,4.06c0,1.77-1.8,2.39-2.52,3.71a1,1,0,0,0-.12.28c-.35,1.67-1.53,2.87-2.47,4.19-1.41,2-3.15,3.75-4.07,6.08a5.73,5.73,0,0,1-.92,1.2,10.24,10.24,0,0,0-1.26,1.72,55.8,55.8,0,0,0-3.69,9.07,40.12,40.12,0,0,1-4.32,10.45,14,14,0,0,0-1.14,2.52c-1.89,5.39-3.85,10.77-5.58,16.22a37.61,37.61,0,0,0-1.91,9c-.1,1.63-.17,3.27-.32,4.89a36.42,36.42,0,0,0,.2,11,6,6,0,0,1,0,2.75,20.35,20.35,0,0,0-.14,8.51,7.94,7.94,0,0,1,0,1.82,23.87,23.87,0,0,0-.28,3c0,1.1.51,2.19.51,3.29a38.48,38.48,0,0,0,1.14,8.49,6.69,6.69,0,0,1,.18,1.83,17.37,17.37,0,0,0,.61,4.54,52.34,52.34,0,0,1,.92,5.44A26.19,26.19,0,0,1,80.89,357a4.59,4.59,0,0,1-1.48-.31,1.38,1.38,0,0,1-.57-1,11.36,11.36,0,0,0-1-3.84,13.12,13.12,0,0,1-.76-2.65c-.83-5.38-2.67-10.48-4.37-15.62-.11-.35-.14-.85-.86-.76-1,1.77-2.18,3.56-3.16,5.44-1.47,2.81-3.21,5.49-4.11,8.56-.55,1.85-.94,3.76-1.55,5.58a37.62,37.62,0,0,0-1.47,14.26c.27,4.6.51,9.19.34,13.8a53.45,53.45,0,0,0-.16,5.51,84.57,84.57,0,0,0,1.68,14c.58,2.47.91,5,1.31,7.5.66,4,1.28,8.07,1.92,12.11a8.29,8.29,0,0,0,.33,1.18,112,112,0,0,1,2.89,12.53c1,5,1.74,10.07,2.88,15.05a37.24,37.24,0,0,0,2.54,8.5,8.44,8.44,0,0,1,1,3.19,15.72,15.72,0,0,0,1.09,4.75,36.72,36.72,0,0,1,1.28,4.1c.51,2.13.25,4-1.76,5.43A5.76,5.76,0,0,1,72,475.47,16.2,16.2,0,0,0,67,475c-.36,1.77-.41,1.8,0,2.44.75,1.2,1.68,2.31,2.32,3.56a4.43,4.43,0,0,0,4,2.38c.91.06,1.84-.14,2.76-.1s2.23-.13,3,.37c1.77,1.17,3.7,1,5.61,1.17,4.18.33,8.37.66,12.54-.19a9.39,9.39,0,0,1,1.84,0c1.94,0,3.89.14,5.81-.06,2.09-.22,3.53-2,5.5-2.62.08,0,.13-.14.42-.47.09-1.35.3-3,.3-4.59a65,65,0,0,1,.87-10.69,55.93,55.93,0,0,0,1.3-10.34c-.07-4,.93-7.89,1.58-11.82.53-3.22,1.2-6.43.89-9.73a7.59,7.59,0,0,0-1-3.82,3.09,3.09,0,0,1-.5-1.73c0-2.45-.23-4.9.43-7.34a6.57,6.57,0,0,0,.42-3.27l-6.71-4.86a5.38,5.38,0,0,0-.75-.53,17.86,17.86,0,0,1-5.07-3.93,5.54,5.54,0,0,0-2.88-1.59,8.6,8.6,0,0,1-3.08-1.28c-2.46-1.83-4.86-3.75-7.14-5.79a26.88,26.88,0,0,1-3.12-3.75c-.33-.42.16-1,.69-1.06.81-.07,1.48.93,2.31.35a1.93,1.93,0,0,1,2.53.26c1.66,1.34,3.27,2.74,5.07,4.27a4.27,4.27,0,0,0,1,.09,5.17,5.17,0,0,1,5.29,3,6.94,6.94,0,0,0,2.07,2.21,8.57,8.57,0,0,1,2,1.85,15.26,15.26,0,0,0,3.62,3.28c1.4,1,2.75,2.13,4.17,3.13a8.93,8.93,0,0,0,3.13,1.86,11.12,11.12,0,0,1,4.54,2.41c1.08.79,2.11,1.63,3.2,2.39a1.24,1.24,0,0,0,1.81-.21c-.5-2.35-1.17-4.8-1.53-7.3-.54-3.84-.94-7.71-1.25-11.58a29.5,29.5,0,0,1,0-6.44,79.16,79.16,0,0,0,.54-8.26,87.62,87.62,0,0,1,1.77-14c.71-3.48,1.71-6.91,2.7-10.34a73.64,73.64,0,0,1,5.13-13.75c.89-1.72,1.57-3.55,2.32-5.34,2.14-5.06,3.51-10.5,7.39-14.68a5.73,5.73,0,0,0,.46-.8,97,97,0,0,1,9.56-12c2.08-2.25,4.31-4.37,6.49-6.53a2.9,2.9,0,0,1,.77-.37c.76,3.52.68,5.38-.49,8.06a37.55,37.55,0,0,1-2.08,4.1c-1.19,2-2.57,3.94-3.72,6-1.81,3.2-3.5,6.47-5.24,9.7a14.3,14.3,0,0,1-1.08,1.86,24.41,24.41,0,0,0-3.42,7.46c-1.06,3.41-2.14,6.82-3.43,10.15a98.56,98.56,0,0,0-4,11.56c-1.33,5.34-3.22,10.54-3.32,16.13,0,.3-.11.6-.15.91-.19,1.51-.45,3-.55,4.55-.45,7,.39,13.88.85,20.8a9.76,9.76,0,0,0,.35,1.49c.2.9.42,1.8.57,2.7,1.26,7.46,2.82,14.83,5.71,21.86,1.37,3.33,2.72,6.62,5.36,9.18a3.07,3.07,0,0,1,.35.51A59,59,0,0,1,154,456.64c.25.56.53,1.11.82,1.66a147.45,147.45,0,0,0,8.79,14.36c2.07,3,3.32,6.55,5.44,9.56a8.42,8.42,0,0,1,.68,1.38c.66,1.49,1.28,3,2,4.47a3.32,3.32,0,0,0,.94,1.19c1.11.86,2.28,1.65,3.44,2.47,5-1.94,9.07-5.22,13.48-8ZM124.93,24.58a9.84,9.84,0,0,0,1.34-2.33,56.1,56.1,0,0,0,.86-6.05,4.28,4.28,0,0,0-.62-2,1,1,0,0,0-1.32-.45,2.07,2.07,0,0,0-1.5,1.42A13,13,0,0,0,124.93,24.58Z"/><path d="M530.15,245.79c-1.16,1.13-1.42,2.69-1.8,4.14a75.52,75.52,0,0,1-3.23,9.88,102.27,102.27,0,0,1-6.89,13c-.69,1.15-1.35,2.3-3,2.16v4.22c.5.32.59-.17.78-.47a3.87,3.87,0,0,1,2.47-1.71A9.4,9.4,0,0,0,522,275.2c3-2.25,6.12-4.45,9.12-6.74a103.09,103.09,0,0,0,19-18.63c1.56-2,2.94-4.21,4.64-6.11,2.93-3.27,6-6.45,9.12-9.55,3.91-3.88,8-7.56,11.91-11.5,2.28-2.32,4.25-5,6.35-7.49a3.41,3.41,0,0,0,1-2.49,1.37,1.37,0,0,1,.73-1.49c.25-.16.32-.7.38-1.09s0-1,.08-1.53c.2-1.92.2-1.91-1.19-3.65a3.85,3.85,0,0,0,2.08-4l-3.52-2.34c-.11.09-.46.23-.55.47-.82,2.29-2.53,3.93-4.12,5.66a117.94,117.94,0,0,1-12.8,11.88q-5.14,4.14-10.18,8.4a55.17,55.17,0,0,0-4.3,3.93c-3,3.14-6.72,5.35-10.27,7.75-.93.63-1.93,1.16-2.88,1.78a5.4,5.4,0,0,1-3.81.78,1,1,0,0,1-.66-.52,1,1,0,0,1,.14-.82,3.17,3.17,0,0,1,.93-.77c5.17-3,9.57-7,14.06-10.88a93.56,93.56,0,0,0,8.71-8.65,20.91,20.91,0,0,1,2.92-2.72,76.14,76.14,0,0,0,12.55-12.57c1.68-2.05,3.59-3.92,5.4-5.88,1.11-1.2,2.17-2.46,3.36-3.58a37.44,37.44,0,0,1,3.75-3.15c1.61-1.17,3.34-1.58,5.08-.18a2.69,2.69,0,0,0,.53.28,5.61,5.61,0,0,0,.57.06c.88-1,1.83-2.24,2.82-3.4.86-1,1.73-2,2.65-3a3.78,3.78,0,0,1,3.39-1,1.27,1.27,0,0,1,.87,2.23c-1.13,1.32-2.31,2.59-3.45,3.91-1.41,1.62-2.85,3.22-4.18,4.91a28.58,28.58,0,0,0-2.18,3.34,1.29,1.29,0,0,0,.33,2,6.34,6.34,0,0,0,2.62-2.34c1-1.28,2.09-2.53,3.17-3.76a3.77,3.77,0,0,1,3.51-1.48c1.79.26,2.48,1.65,1.34,3.05a47.86,47.86,0,0,1-4.78,5.18c-1.89,1.7-3.61,3.63-5.85,4.95a1.93,1.93,0,0,0-.63,2.77c1.07.08,1.53-.85,2.1-1.46a7.48,7.48,0,0,1,3-2.1,2.37,2.37,0,0,1,2.78.62,8,8,0,0,1-3.32,5c-1.68,1.14-3.19,2.54-5,4,.44,1.63-.41,3.12-1,4.74a18.21,18.21,0,0,1-4.71,6.3c-3.36,3.29-6.55,6.75-9.84,10.1-1.58,1.6-3.28,3.08-4.85,4.68-2.94,3-5.81,6.05-8.76,9A81.05,81.05,0,0,0,551,259.55a41.74,41.74,0,0,1-3.54,4.23c-1.92,2.13-3.9,4.21-5.85,6.31a5,5,0,0,1-.64.66,86.21,86.21,0,0,1-9.64,7.05c-1.15.67-2.29,1.37-3.49,1.92a14.7,14.7,0,0,1-3.73,1.37,14.62,14.62,0,0,0-7.71,3.37c-1.39-.46-.85-2.07-2-2.87a21.3,21.3,0,0,0-.61,2.67c-.3,3.38-1.69,6.52-2.23,9.84a11.53,11.53,0,0,0-1.33,5.59,34.79,34.79,0,0,1-1.06,4.13c-.81,3.89-1.52,7.8-2.33,11.7a37,37,0,0,1-1.43,5.62c-2.4,6.42-4.19,13-6.33,19.52a148.25,148.25,0,0,0-4,15.09A39.53,39.53,0,0,1,492,366c-1,2-1.67,4.16-2.53,6.35.37.46.77.91,1.11,1.4.52.74,1,1.49,1.49,2.27.31.53.48,1.14.79,1.66,1.69,2.78,2.22,5.91,2.84,9,.24,1.2.4,2.42.67,3.61A72.81,72.81,0,0,1,498.25,407c0,2.35.33,4.7.31,7a38.46,38.46,0,0,1-.86,9.74,8.47,8.47,0,0,0-.31,1.48c-.15,1.63-.15,3.27-.4,4.88-.56,3.72-1.14,7.43-2,11.11-.83,3.4-2.33,6.53-3.18,9.9a26.58,26.58,0,0,1-1.12,2.52c-.6,1.62-1.13,3.26-1.69,4.9a9.52,9.52,0,0,1-.78,2.31c-1.62,2.37-1.92,5.13-2.48,7.81A7.57,7.57,0,0,1,485,471c-1.71,2.88-1.81,6.24-3.12,9.39a12.08,12.08,0,0,0,2.08.88c3.78.7,7.09,2.58,10.59,4,1.06.43,1.59,1.65,2.82,1.75,1,.08,2,.16,3.06.28a10.4,10.4,0,0,1,1.2.28c1.21.3,1.82.77,1.77,1.36a2.61,2.61,0,0,1-2.34,2.43c-.71,0-1.43-.14-2.14-.15a7.23,7.23,0,0,0-3,.21,5.4,5.4,0,0,0,2.93,1.54,4.32,4.32,0,0,1,2.74,1.51,3.81,3.81,0,0,1-2.06,2.08c-1.73-.21-3.23-.46-4.75-.55-1.07-.07-1.12.08-1.55,1.9,2,.48,3.93.94,5.89,1.45,1.19.3,2.37.64,3.53,1A1.08,1.08,0,0,1,503,502a2.72,2.72,0,0,1-2,1.34,16.46,16.46,0,0,1-6.1.25,26,26,0,0,0-7.31-.46,2.38,2.38,0,0,1-1.2-.09c-2-1.12-4.38-1-6.54-1.58a10.11,10.11,0,0,0-3.34-.2,33.11,33.11,0,0,1-8.55-.51,3.17,3.17,0,0,0-1.21-.13c-1.77.43-3.44-.06-5.13-.44a3.33,3.33,0,0,0-1.48-.16c-3,.83-5.67-.18-8.32-1.3a11,11,0,0,0-2.94-.72,6.15,6.15,0,0,1-5.24-3.72A32.91,32.91,0,0,1,441,482.69c-.09-1.73-.28-3.46-.39-5.2s-.26-3.27-.24-4.9a108.31,108.31,0,0,0-.68-14.41,17.15,17.15,0,0,1-.19-2.76,59.09,59.09,0,0,0-.79-10.71c-.46-3.33-1.13-6.64-1.74-10a5.49,5.49,0,0,0-.54-1.75,54.73,54.73,0,0,1-3.67-8.77,10.64,10.64,0,0,0-1-1.74c-.37.06-.62,0-.75.13-3.16,2.52-6.84,4-10.48,5.68-2.69,1.21-5.17,2.88-7.74,4.35-1.52,2.05-4,2.76-5.92,4.31a14.43,14.43,0,0,1-2.94,1.62c-1.09.54-2.21,1-3.34,1.49a7.32,7.32,0,0,1-4.18.69c-.89-.17-1.81-.22-2.66-.32A4.12,4.12,0,0,0,392,443a5.18,5.18,0,0,1-1.91,3.07,4.44,4.44,0,0,0-1.7,2.82c-.73,3.07-2.09,6-2.15,9.23a1.1,1.1,0,0,1-.11.6c-1.32,1.91-1,4.12-1.15,6.24a72.83,72.83,0,0,1-1.65,11.48,7.64,7.64,0,0,0,0,3.65,4.07,4.07,0,0,1-.23,2.95,5.88,5.88,0,0,0-.25,4.17,12.68,12.68,0,0,1,.66,4.77,12.09,12.09,0,0,0,.43,3.1,17.57,17.57,0,0,0,4.67,2.16c2.36,1,4.66,2.07,7,3.14.17.07.26.3.46.57a2.66,2.66,0,0,1-2.68,1.94,6.78,6.78,0,0,1-2.68-.4q-4.17-1.56-8.25-3.34a37,37,0,0,1-3.74-2.08,2.48,2.48,0,0,0-2.62-.11c-.14.07-.18.33-.34.65a9.1,9.1,0,0,0,1.17.83,35,35,0,0,0,7.56,3.28,7.22,7.22,0,0,1,3.69,2.13,3,3,0,0,1-3,2.23,4.84,4.84,0,0,1-2.11-.3c-4.76-2.1-9.61-4-13.87-7.13-1.64-1.19-1.83-1.79-1.09-4.34,2.29,1,4.55.13,6.64,0,1-.48.21-1.69,1.26-2.11.63-.25.4-1.1.22-1.66a7.17,7.17,0,0,1-.1-3,24,24,0,0,0,.08-6.72c-.48-2.64.13-5,.63-7.51a14.72,14.72,0,0,0,.51-3.64c-.2-3.77,1.05-7.26,1.84-10.85.7-3.19,1.41-6.37,2.13-9.56.6-2.69,1-5.43,1.88-8.05a24.43,24.43,0,0,1,2.59-5.19,12.75,12.75,0,0,0,1.73-3.9,15.36,15.36,0,0,1,.84-2.62c1.92-4.74,4-9.42,5.77-14.2a58.28,58.28,0,0,0,1.81-7.11c.29-1.19.49-2.4.81-3.58a87.5,87.5,0,0,0,1.84-11.47,4,4,0,0,1,.11-.92c1.09-3.25,1.07-6.61,1.16-10,.09-3.07.54-6.12.74-9.18.23-3.47.38-6.95.51-10.43q.12-3.37.11-6.75c0-4.91,0-9.83-.24-14.73-.14-2.73-.77-5.44-1.18-8.15s-.66-5.28-1.27-7.86c-.8-3.34-.94-6.85-2.67-10a10.71,10.71,0,0,0-3.45-4.2,12.5,12.5,0,0,1-1.08-.83c-.06-1,.57-1.29,1.17-1.26a8.21,8.21,0,0,1,5.83,2.34c1.36,1.48,2.89,2.91,3.54,5a16.65,16.65,0,0,0,1.38,2.73,9.13,9.13,0,0,1,1.38,5,2.32,2.32,0,0,0,.08.91c1.41,3.76,1.32,7.84,2.45,11.67.32,1.07.3,2.23.53,3.32a32.31,32.31,0,0,1,1,10.59c1,4.34.64,8.76.84,13.15.23,4.92-.16,9.82-.06,14.73a37.92,37.92,0,0,1-.32,4c-.24,3.27-.44,6.53-.74,9.79a40.78,40.78,0,0,1-.74,4.21c-1,4.9-1.41,9.93-2.94,14.73a17.37,17.37,0,0,1-.91,2.6c-.65,1.29-1.37,2.52-1,4.05-.81,2.94-1.37,6-3.21,8.54a11.24,11.24,0,0,0-2,5.55,6.7,6.7,0,0,0,1.59-.49c2.59-1.63,5.09-3.41,7.73-5,3.88-2.27,7.68-4.74,12-6.2a22.28,22.28,0,0,0,5.43-2.83,40,40,0,0,1,4-2.32,51.75,51.75,0,0,0,7.46-4.24,6.21,6.21,0,0,1,1-.66c6-3.07,11.56-7,17.33-10.49a31.64,31.64,0,0,0,5.77-4,16,16,0,0,0,1.32-1.28,14.84,14.84,0,0,1,4-3.35,18.33,18.33,0,0,0,4-3.29c2.09-2.24,4.32-4.36,6.47-6.54a18,18,0,0,0,4.51-6.87,15.45,15.45,0,0,1,1-2.23,122.72,122.72,0,0,0,7.43-18.14,60.49,60.49,0,0,0,2.11-8.64,30.26,30.26,0,0,1,2-6.42c1.23-2.81,2.25-5.69,3.2-8.61,1.29-4,2.79-7.89,4.25-11.82a48.5,48.5,0,0,0,2.77-10.33c.14-1.1.56-2.17.78-3.26.65-3.31,1.25-6.63,1.9-9.93a15.08,15.08,0,0,1,.62-2.05,54.26,54.26,0,0,0,3.12-12.75c.1-1,.39-2,.58-3a14,14,0,0,0-.26-7.58,11.84,11.84,0,0,1-.33-2.57L512.9,268a4.65,4.65,0,0,0,.91-1.05c1-2.11,2-4.27,3-6.37a63.44,63.44,0,0,0,4.26-11.15c1.1-3.93,2.6-7.74,3.81-11.64a50.08,50.08,0,0,0,1.31-5.67c.63-3.32,1.62-6.54,2.46-9.8s1.67-6.51,2.7-9.72a4.44,4.44,0,0,0,.2-1.21c.2-4.19.38-8.38.57-12.57a19.21,19.21,0,0,1,1.51-7.44,65.68,65.68,0,0,0,3.77-11,22.27,22.27,0,0,1,2-4.79,14.64,14.64,0,0,0,1.86-4.83,22.74,22.74,0,0,1,1.07-3.83,37.38,37.38,0,0,0,2-11.43c0-.61.11-1.22.13-1.83.08-2.14.13-4.29.19-6.43,0-1.54.08-3.07.12-4.61.06-1.93.58-3.84.07-5.79a1.19,1.19,0,0,1,.84-1.46c2.45-.72,4.58-.17,4.88,2.86a18.27,18.27,0,0,1-.2,4c-.24,1.93-.72,3.83-.87,5.76a39.85,39.85,0,0,0,.11,4.88c.12,3.27.32,6.53.39,9.8a24.45,24.45,0,0,1-.91,7.6c-.76,2.51-1.51,5-2,7.6a7.2,7.2,0,0,1-1.57,3.26,12.63,12.63,0,0,0-2.49,5.53c-.51,2.29-1.07,4.58-1.8,6.81a19.76,19.76,0,0,1-1.91,3.82,7,7,0,0,0-.94,4.12,35.13,35.13,0,0,1-.56,7.8,25.5,25.5,0,0,0,.06,6.11,11.41,11.41,0,0,1-.71,5.09c-.66,1.93-1.25,3.88-1.86,5.82s-1.16,4.13-1.92,6.12a36.63,36.63,0,0,0-2.54,9.41c0,.49-.32,1-.39,1.46-.14.89-.21,1.79-.3,2.69ZM481.75,381a7.29,7.29,0,0,1-2.29,5.07c-2,2.19-4,4.37-5.82,6.67a43.74,43.74,0,0,1-4.79,5.12,41.84,41.84,0,0,1-9.91,7.1,9.76,9.76,0,0,0-1.31.8c-1.74,1.24-3.47,2.5-5.21,3.75a2.42,2.42,0,0,1-.8.44c-1.78.36-3.05,1.56-4.45,2.58-1.89,1.37-3.62,3-6.08,3.45a3.12,3.12,0,0,0-1.3.77c-.79.66-1.48,1.43-2.28,2.06s-1.64,1.1-2.59,1.73a31.27,31.27,0,0,1,5.25,9.49c.36.95,1,1.8,1.37,2.74a24.94,24.94,0,0,1,1.85,4.5c.84,3.57,1.45,7.19,2.14,10.8.07.4.1.81.13,1.22.32,4.18.56,8.36,1,12.54a91.4,91.4,0,0,1,.53,10.72c0,1.64,0,3.28.1,4.91.25,3.37.78,6.72.84,10.09a10.7,10.7,0,0,0,2,5.37,3.45,3.45,0,0,0,1.1,1,14.38,14.38,0,0,1,1.34.74c1.59,1.39,3.5,1.49,5.47,1.5s3.68.14,5.51.27c1,.07,2,.24,3,.39a85.43,85.43,0,0,0,12,.4,16.26,16.26,0,0,1,3.93.48c2.71.67,3.19.54,4.26-1.91a12.64,12.64,0,0,0,.52-2.1,6.25,6.25,0,0,1-3.76-3.81l5.59.57c-.34-.69-.44-1.23-.76-1.45-.93-.62-2-1.06-2.52-2.15a3.38,3.38,0,0,0-2.6-1.95c-1.44-.26-2.72-1.22-4.42-.47s-3,.08-3.94-1.77a16.76,16.76,0,0,1-.64-1.73c1-2.71,2-5.38,3-8.07,1.36-3.74,2.75-7.45,3.83-11.29,1.26-4.52,2.78-9,4.28-13.41.78-2.32,1.84-4.55,2.59-6.88A106,106,0,0,0,492,418a31.58,31.58,0,0,0,.38-6.41c-.4-3.28-.23-6.55-.37-9.82-.17-3.67,0-7.37-1-11a6.83,6.83,0,0,1-.18-.9c-.64-3.62-1.25-7.25-2-10.86a6,6,0,0,0-1.33-3C485.18,377.24,484.58,380.17,481.75,381Z"/><path d="M503.42,167.49c-.15,2.26-1.81,3.54-2.88,5.2.49,1.41.94,2.75,1.43,4.09a6.22,6.22,0,0,1,.23,3.62,2.68,2.68,0,0,1-2.75,2.41,4.68,4.68,0,0,1-3.52-.71,6,6,0,0,0-1.33-.51,10.54,10.54,0,0,1,.8,2.22,19.29,19.29,0,0,1,0,3,1.53,1.53,0,0,1-1.43,1.37c-1.41.07-2.84,0-4.39,0l-1.21,1.62a3.7,3.7,0,0,1-4.37,1.37,9.61,9.61,0,0,1-4.44-2.16c-.61.58-1.14,1.15-1.74,1.64a20.12,20.12,0,0,1-2,1.41,2.62,2.62,0,0,1-3.6-.45,16.11,16.11,0,0,1-1.68-2.19c-.86-1.27-1.66-2.57-2.46-3.82a33.14,33.14,0,0,1-17.37-.88,9.37,9.37,0,0,1-5.94,2.14,1.45,1.45,0,0,0-.83.33,109.36,109.36,0,0,1-12.45,7.12,71,71,0,0,0-7.74,5c-1.94,1.32-3.79,2.79-5.67,4.19a14.16,14.16,0,0,0-1.21,1c-3.48,3.15-6.94,6.35-10.45,9.47-1.68,1.48-3.47,2.83-5.06,4.12-.93,0-1-.59-1.23-1a5.72,5.72,0,0,0-2.28-2.42,11,11,0,0,1-3.35-3.12,10.3,10.3,0,0,0-1.41-1.61,17.58,17.58,0,0,1-4.51-6.41,33.14,33.14,0,0,0-2.46-4.58,98.74,98.74,0,0,1-5.94-12.46A20.06,20.06,0,0,0,377.5,182a19,19,0,0,1-3.56-8.39,24.22,24.22,0,0,0-.47-2.4,19.1,19.1,0,0,1-.74-5.77,71.9,71.9,0,0,0-.82-11.63,14.49,14.49,0,0,1,.1-3.35c.2-2.34.42-4.69.7-7,.22-1.82.58-3.63.81-5.45.17-1.42.28-2.85.35-4.27a.8.8,0,0,0-1-.89,1.11,1.11,0,0,0-.78.69c-.17,1.47-1.05,1.78-2.36,1.78-3,0-3.29.4-3,3.41a11.39,11.39,0,0,0,.21,1.14c-1.37.24-1.37.24-3.19-.81a8.83,8.83,0,0,0-2.44,3.79c-1,2.57-1.78,5.22-2.59,7.85a5.93,5.93,0,0,0-.2,2.14c.54,6.66-1,13.26-.52,19.92a5.53,5.53,0,0,1,0,1.22,53.63,53.63,0,0,0-.21,8.87,53.41,53.41,0,0,0,1,11.28c.5,2.29.72,4.65,1.24,6.93a55,55,0,0,0,4.88,12.88c1,2,2.29,3.86,3.41,5.81.55,1,1,2,1.53,3,.91,1.6,1.81,3.21,2.86,4.72a9.33,9.33,0,0,1,1.73,4.16c.35,2.5,1.13,4.94,1.77,7.57-1.89,1-3.76,2.06-5.65,3-3.07,1.62-6.25,3.06-9.21,4.86-3.84,2.35-7.88,4.31-11.71,6.65a60.71,60.71,0,0,0-9.84,6.8c-1.35,1.24-2.94,2.21-4.41,3.32a119.78,119.78,0,0,0-12.12,10.84c-2.6,2.61-5.28,5.14-7.75,7.87a72.49,72.49,0,0,0-8.3,11c-1.9,3.13-4.23,6-6.29,9a37.4,37.4,0,0,0-3.67,6,43.6,43.6,0,0,1-2.65,4.64c.17.4.36.86.56,1.3a1.8,1.8,0,0,1-.22,2c-1.83,2.25-2.87,4.92-4.15,7.48a74.06,74.06,0,0,1-4,6.87c-.76,1.2-1.29,1.31-3.62,1.25.15-2.5,1.55-4.56,2.3-6.83s1.63-4.61,2.44-6.87c-1.42-2.54-1.58-2.63-.07-5.29,2.77-4.88,4.88-10.14,8.4-14.6,1.27-1.6,2.26-3.4,3.4-5.1,1.89-2.8,3.81-5.57,5.68-8.38a51.62,51.62,0,0,1,6.38-7.46c3.3-3.36,6.58-6.74,9.94-10,2.78-2.72,5.68-5.31,8.52-8,1-1,2.05-2,3.09-3a7.66,7.66,0,0,1,.91-.8c4.61-3.22,9.29-6.33,14.2-9.09,3.48-1.95,7-3.77,10.45-5.82,3.69-2.21,7.25-4.61,10.87-6.93.34-.22.66-.47,1.07-.76a15.37,15.37,0,0,0-.85-1.49,71.35,71.35,0,0,1-8.3-13.59A16.07,16.07,0,0,0,360.4,216a63.48,63.48,0,0,1-6.65-15.78c-.68-2.24-1.15-4.55-1.67-6.84a8.63,8.63,0,0,1-.06-1.53,26.27,26.27,0,0,0-.3-4c-1-4.67-.48-9.39-.51-14.09,0-2.23.47-4.47.68-6.71a17.3,17.3,0,0,0,.11-3.37,29.88,29.88,0,0,1,.59-7,28.91,28.91,0,0,0,.41-5.48,19.52,19.52,0,0,1,1.43-8.09c1-2.57,1.8-5.22,3.46-7.48.91-1.23,1.9-2.41,2.86-3.62,0-1.21,0-2.43,0-3.65a9,9,0,0,0-1-4.12,13.29,13.29,0,0,1-1.22-3.13c-.38-1.65.57-2.4,2.26-2.15a4.43,4.43,0,0,1,3.47,2.72c.64,1.34,1.37,2.74.68,4.39a1.83,1.83,0,0,0,.48,2.23c2.65-.87,3.39-1.78,3.64-4.19.27-2.63.63-5.26,1-7.88a3.09,3.09,0,0,1,.27-.88,1.45,1.45,0,0,1,2.06-.69,5.5,5.5,0,0,1,2.15,2.17c-.18,1.66-.33,3.05-.49,4.44-.14,1.21-.26,2.43-.45,3.63-.11.66-.14,1.26.59,1.52a1.13,1.13,0,0,0,1.51-.65c1.18-2.49,2.66-4.82,3.31-7.55a22,22,0,0,1,1.22-3.47,1.63,1.63,0,0,1,1.75-1c1.15.1,1.86.63,2.83,2.14a12.66,12.66,0,0,1-1,1.08,2.91,2.91,0,0,0-1.18,2.38,4,4,0,0,1-1.52,3.22c-.55.46-1.21,1.16-.9,1.83.78,1.69-.44,3.16-.32,4.8.1,1.45-.63,3-1,4.45a24.75,24.75,0,0,0-.47,2.71c-.35,3.15-.69,6.3-1,9.46s-.57,6.5-.81,9.76a6.57,6.57,0,0,0,.24,1.81A88.64,88.64,0,0,1,378.33,168c.27,2.72.28,5.52,1.52,8.07a2.86,2.86,0,0,1,.25,1.19,5.11,5.11,0,0,0,1.83,3.76,16.2,16.2,0,0,1,3.91,6.16c1,2.59,2.05,5.13,3.09,7.68a3.61,3.61,0,0,0,.27.56c1.94,3,3.86,6,5.84,9a11.28,11.28,0,0,1,2,3.33c.35,1.26,1.57,2.28,2.5,3.55a12.89,12.89,0,0,0,1.2-.89c2-1.85,4.07-3.72,6.1-5.59s4.47-3.9,6.79-5.76A98,98,0,0,1,430,188.83c4-2.05,7.9-4.2,12.47-5.4-.38-.41-.53-.68-.76-.8L426,174.33a7.32,7.32,0,0,1-1.27-.87c-2.84-2.34-5.73-4.64-7.81-7.76-1.42-2.13-2.91-4.21-4.3-6.36a11.34,11.34,0,0,1-1.84-4.51,9.11,9.11,0,0,0-.9-2.92c-2.06-3.7-2.13-7.84-2.75-11.86-.18-1.1-.31-2.21-.46-3.32a9.33,9.33,0,0,1,.14-3.64c.67-2.66,5.47-4.91,8.14-3.61a7.52,7.52,0,0,1,3.23,2.25,12.69,12.69,0,0,0,1.43,1.6,4.47,4.47,0,0,0,3.6,1.39c2.34-.17,4.67-.44,7-.57a19.37,19.37,0,0,0,11.41-4.7c1.18-1,2.43-1.88,3.69-2.75a23.71,23.71,0,0,0,5.07-4.88c2.12-2.63,4.34-5.18,6.38-7.87s4-5.66,6-8.48c1-1.34,1.94-2.64,2.88-4a7,7,0,0,0,.53-1.1,9.2,9.2,0,0,0-3.47-1.4,10.21,10.21,0,0,1-7.37-7.56,10.79,10.79,0,0,1,1.73-9.36,6.41,6.41,0,0,1,9.21-1.49c2.32,1.66,4,3.77,4.24,6.79a4.24,4.24,0,0,0,.33,1.49c1.12,2.5,2.3,5,3.53,7.64,2-.1,4-.08,6.05-.33a48.84,48.84,0,0,1,11,0c6.53.68,12.89,2.25,19.33,3.41a27,27,0,0,1,6.34,2.21c3.26,1.51,6.68,2.53,10,3.78a17.41,17.41,0,0,1,2.78,1.26c3.17,1.88,6.27,3.87,9.47,5.71a21,21,0,0,1,8.36,8.35,19.41,19.41,0,0,0,1.73,2.52,9.43,9.43,0,0,0,1.24,1.12c2.47-1.24,5-2.41,7.37-3.72a30.57,30.57,0,0,1,5.94-2.48c4-1.19,6.83.16,8.5,3.9a16.13,16.13,0,0,1,1.38,9.27c-.14.81-.12,1.65-.33,2.43-.32,1.17-.09,2.6-1.16,3.42-1.6,1.22-3.11,2.6-5.32,2.76-1.42.1-2.8.53-4.21.77a18.11,18.11,0,0,1-2.08.22,20.52,20.52,0,0,0-3.34.13c-1.82.38-3-.58-4-1.73a5.46,5.46,0,0,1-1.41-4.84,2.11,2.11,0,0,1,1.88-1.77c.51-.06,1,0,1.54,0l7.05-.23a1.63,1.63,0,0,0,.31,0c5.26-1.06,5.34-1.74,5.33-6.15a14.11,14.11,0,0,0-.15-1.83c0-.18-.22-.33-.35-.54-1-.4-1.75.22-2.55.6-2.67,1.29-5.41,2.46-7.94,4-1.83,1.09-3.75.6-5.6.94a1.23,1.23,0,0,1-.84-.29c-1.7-1.31-3.58-2.4-4.79-4.26-.84-1.29-1.77-2.51-2.56-3.82a11.21,11.21,0,0,0-3.78-4c-1.58-1-3.12-2-4.76-2.79a16.38,16.38,0,0,1-4.64-2.92,3,3,0,0,0-1.31-.76,89.48,89.48,0,0,1-12.22-4.89,26.09,26.09,0,0,0-5-1.5q-5.82-1.35-11.67-2.56c-2.1-.44-4.23-.76-6.36-1s-3.91-1.14-6-1c-2.65.19-5.32.14-8,.23a10.71,10.71,0,0,0-5.19,1.21l-1.69-.67c-1.63,1.29-2.53,3-3.66,4.53A10.36,10.36,0,0,1,467,107.2a9.17,9.17,0,0,0-3,4.64c-.08.49,0,1.22-.33,1.43-1.47,1-1.78,2.93-3.18,4a6.21,6.21,0,0,0-2.41,3.48c-.54,2.31-2,4-3.55,5.55a18,18,0,0,0-3,4.18,10.65,10.65,0,0,1-4.21,4.74c-2.15,1.18-4.17,2.56-6.26,3.83a3.28,3.28,0,0,1-1.12.44,47.82,47.82,0,0,1-6.66,1.07c-2.53.06-5.12,0-7.41-1.5a20,20,0,0,0-2.74-1.26c-.07,0-.19,0-.34.08a2.33,2.33,0,0,0-.22.84,5.11,5.11,0,0,1-1.54,4.19,8.3,8.3,0,0,1-4.65,2.8l-2.17.4c.25,2.47.21,4.77,1.39,6.95,1,1.88,1.57,4,2.56,5.9a30.9,30.9,0,0,0,6.73,9,26.16,26.16,0,0,0,4.74,2.77A25.71,25.71,0,0,1,432.1,172a64,64,0,0,0,8.7,4.51,9.62,9.62,0,0,0,1.42.58A91.22,91.22,0,0,0,455.38,180a33.44,33.44,0,0,0,4.91.21c4.71,0,9.42.09,14.13,0a35.41,35.41,0,0,0,4.55-.59c.5-.07,1-.23,1.5-.29,7.3-.89,12.57-5.07,17.06-10.5.52-.63,1-1.3,1.49-2,1.29-1.69,2.67-1.7,4,0A5.13,5.13,0,0,1,503.42,167.49ZM463.73,83.38c-.53.93-.92,1.72-1.41,2.46a8.45,8.45,0,0,0-1.14,5.26,5.63,5.63,0,0,0,2.22,4.19,10,10,0,0,0,6.77,1.91,4.16,4.16,0,0,0-.41-2.63c-1.28-2.76-2.52-5.55-3.8-8.32a17.68,17.68,0,0,0-1.14-2.15C464.63,83.82,464.21,83.69,463.73,83.38Zm25.92,100.43c1-.58,1.55-1.09,1.63-2,.06-.67-.55-1.25-1.12-.95a16,16,0,0,0-1.75,1.19ZM482,186.12c1.31-1.06,1.38-1.05,1.41-1.57a5.85,5.85,0,0,0-.28-1.46l-2.24,1Zm-68.9-50.69a2.17,2.17,0,0,0-1.39,1.95.69.69,0,0,0,.32.47.6.6,0,0,0,.54,0A1.81,1.81,0,0,0,413.08,135.43ZM471.5,185c1.41,1.55,1.41,1.55,2.53.13Zm25.31-7.17c-.21-.28-.33-.6-.53-.66a.79.79,0,0,0-.67.29.52.52,0,0,0,.44.81C496.29,178.26,496.5,178,496.81,177.85Z"/><path d="M253.51,471.3a7.57,7.57,0,0,0-.82-.85c-1-.61-1.92-1.24-1.89-2.57,0-1.55.13-3.05,1.57-4.11s2.6-2.34,4.52-2.29c3.47-1.43,7.18-1.53,10.82-2a41,41,0,0,1,6.05.19c.51,0,1,.14,1.52.11,3.65-.22,6.77,1.32,9.81,3,1.42.79,2.71,1.92,2.62,3.84a2.68,2.68,0,0,1-.26,1.45c-.81,1-.68,2.07-.67,3.2,0,2.45.07,4.91-.11,7.35-.15,1.92-.65,3.81-.95,5.72-.14.91-.18,1.83-.24,2.74-.2,3.34-.33,6.69-.62,10-.16,1.93-.62,3.83-.87,5.75a2.93,2.93,0,0,1-1.54,2.16c-.31.19-.89.38-1.11.22-1.7-1.17-3,.44-4.54.51-2.85,1.74-6,1.78-9.13,1.4-.82-.1-1.62-.28-2.43-.33a5,5,0,0,1-3.06-1.26,4.06,4.06,0,0,0-1-.7c-2.84-1.25-3.85-3.67-4.22-6.52-.34-2.63-.58-5.28-1.16-7.86-.49-2.2-.72-4.42-1-6.64-.35-2.83-.92-5.64-1.26-8.47A33.48,33.48,0,0,1,253.51,471.3Zm6.85,29.14c5.72,2.28,11.27,2.06,16.6-1.28a10.44,10.44,0,0,0,2.1-1.76,3.27,3.27,0,0,0,.74-1.61q.87-5.75,1.64-11.5a18.07,18.07,0,0,0,.22-2.74,19.2,19.2,0,0,1,.9-6.65,5.22,5.22,0,0,0,0-3.55,2.11,2.11,0,0,0-.68-.09,34.32,34.32,0,0,1-10.27,1.45,50.79,50.79,0,0,0-5.79.48,13.39,13.39,0,0,1-5.46-.24c-.76-.2-1.54-.29-2.29-.42-.66,1.16-.29,2.17-.18,3.16.13,1.22.37,2.43.42,3.65a49.5,49.5,0,0,0,1.13,8.49A63.13,63.13,0,0,1,260.36,500.44Zm20.37-34.33c-1.66-1-3.33-1.92-5.39-1.26a2.9,2.9,0,0,1-1.2-.06c-1.42-.17-2.83-.4-4.24-.52-3.82-.33-7.52.52-11.23,1.22-.4.08-.77.29-.68.82C264.94,467.81,271.29,467.58,280.73,466.11Z"/><path d="M234.3,122.8a26.09,26.09,0,0,0,2.08,1.86,31.37,31.37,0,0,0,2.76,1.53,53.92,53.92,0,0,0,3.35-7.85,15.58,15.58,0,0,0-4.56-5.43,57.24,57.24,0,0,1-4.94-5,10.86,10.86,0,0,0-2.74-2.56c-.32.25-.75.43-.92.74a47.62,47.62,0,0,0-4.28,11.72,7.17,7.17,0,0,0,.23,2.15c-2.57.81-3.38,3.35-4.73,5.59-2.26-1.8-4.14-3.48-5-6-.69-2-1.67-4-1.55-6.2a3.4,3.4,0,0,1,.1-1.21,2,2,0,0,1,1-1,1.72,1.72,0,0,1,1.37.32c1.32,1.12,2.55,2.34,3.85,3.49a4.36,4.36,0,0,0,1,.51c1.77-2.27,4.16-8.15,5.7-14l-1.65-2c1.61-1.85,3.13-3.63,4.69-5.37a1.66,1.66,0,0,1,2.24-.26,14.71,14.71,0,0,1,2.61,2.11,40.68,40.68,0,0,1,5.51,6.56c.65,1,1.38,2,2.12,3,1.59,2.11,3.06,4.32,5.45,5.71a3.46,3.46,0,0,1,.67,5.73c-1.75,1.61-1.71,3.84-2.46,5.8-.21.56-.2,1.21-.42,1.77-1.08,2.76-2.18,5.51-3.32,8.25a23,23,0,0,1-1.2,2.25,2,2,0,0,1-2.48-.22c-2-1.65-3.91-3.3-5.78-5.05a9,9,0,0,1-2.39-4.56,1.58,1.58,0,0,1,1.29-2.07A24,24,0,0,1,234.3,122.8Zm-16.19-6.14a1.89,1.89,0,0,0,1.09,2.14C220.5,117.75,220.43,117.59,218.11,116.66Z"/><path d="M307,25.41a107.17,107.17,0,0,0-11.23,4c-1.67.76-3.41,1.35-5.13,2A7.21,7.21,0,0,0,287,33.69c-3.23-.61-3.41-3.57-4.52-5.86a4.53,4.53,0,0,0,1.12-3.75,41.3,41.3,0,0,1-.63-9.16c0-.58-.09-1.15-.15-2-1.42.64-2.57,1.26-3.79,1.7a2.38,2.38,0,0,1-3.45-2.2c-.35-3.24.3-4.43,3.21-5.84a11.48,11.48,0,0,0,1.68-.72,4.69,4.69,0,0,1,5.36-.09c.65,2.51,1.56,5.05,1.19,7.92a64.24,64.24,0,0,0-.25,7.35,11.92,11.92,0,0,0,.26,2.13,7.73,7.73,0,0,0,.42,1.22,7.32,7.32,0,0,0,1.24-.25c3.24-1.22,6.49-2.44,9.72-3.72a13.73,13.73,0,0,1,5.7-1,10.21,10.21,0,0,0,1.07-.06c.63-.52.32-1,.28-1.49q-.29-3.36-.51-6.72A3.41,3.41,0,0,0,304,8.58c-.93.2-1.91.47-2.91.6A4,4,0,0,1,296.27,6,9.71,9.71,0,0,1,296,4.45c-.23-2.18-.17-2.25,2-2.83a3.39,3.39,0,0,0,.85-.28A11.4,11.4,0,0,1,306.3.12c2.64.28,3.32,1.42,3.17,4.14s-.1,5.72-.13,8.57c0,.72,0,1.43,0,2.15.1,3.25.28,6.49,1.69,9.52a1.32,1.32,0,0,1-.28,1.68,1.57,1.57,0,0,1-1.95.39C308.21,26.22,307.63,25.82,307,25.41ZM302,4.24a1.9,1.9,0,0,0-2.38,1.13c1.24.07,2-.19,2.33-1.19.62,0,1.19-.1,1.31-1.27C302.65,3.44,302.19,3.68,302,4.24Zm-23.46,7.67c1.82.85,2.93-.44,4.38-1.06-.07-.79-.13-1.53-.2-2.44C280.71,9.11,279.07,9.77,278.52,11.91Z"/><path d="M419.6,90.6A7.52,7.52,0,0,1,413,93.24a4.44,4.44,0,0,1-3.79-2.73,1.81,1.81,0,0,1,.36-2.27c1.54-1.23,2.64-3.14,5-3.12a4.73,4.73,0,0,0-.12-1.1q-3.24-7.6-6.53-15.21a5,5,0,0,0-.66-.84c-3.32,1.66-5.77,4.46-8.76,6.31-.15,1.89.93,3.1,1.65,4.41.88,1.61,2,3.07,1.72,5.09a3.47,3.47,0,0,0,.6,1.7c1.37,2.74,2.76,5.46,4.16,8.22-.24,1.18-1,2.12-.93,3.47S403.5,99.94,402,100a8.16,8.16,0,0,1-7.66-4.61c1-1.63,1-1.63,6.43-3.13a5.51,5.51,0,0,0-.3-1.35c-1.57-3.33-3.07-6.7-4.81-9.94-1.3-2.43-3-4.65-6-5.69.3-.59.41-1.32.81-1.53,3.2-1.71,5.62-4.44,8.59-6.43,2.3-1.53,4.69-2.9,7-4.34.26-.16.55-.28.82-.42a4.54,4.54,0,0,1,3-.32c1,.16,1.48,1,2.1,2-.17.44-.38,1-.71,1.79.32,1,.69,2.27,1.14,3.51,1.44,3.93,2.72,7.92,4.47,11.74a19.19,19.19,0,0,1,2,7.33A8.35,8.35,0,0,0,419.6,90.6ZM416,89.37l-.2-.07.12.24Z"/><path d="M457,127.21a12.08,12.08,0,0,1,1.59-1.4,17.43,17.43,0,0,1,9.78-3c2.44,0,4.86-.34,7.33-.05a39.67,39.67,0,0,1,7.63,2.09,3,3,0,0,1,1.95,2.2,16.56,16.56,0,0,1,.49,2.71c.24,2.8-.47,3.83-3.2,4.73-1.64.55-3.3,1-4.93,1.58a10.09,10.09,0,0,1-4.19.56c-2.84-.21-5.7-.32-8.55-.38a6.13,6.13,0,0,1-4.32-2A12.91,12.91,0,0,1,457,127.21Zm23.7.66c-1-.82-1.42-1.44-2-1.64a10.22,10.22,0,0,0-6.15-.44c-.28,1.39-.56,2.67-.79,4a1,1,0,0,0,1.34,1.1C475.4,130,477.72,129,480.66,127.87Zm-16,2.72c-.16-2.32-.17-2.31-1.21-3.46-.72.13-1.2.53-.78,1.24A18.53,18.53,0,0,0,464.7,130.59Z"/><path d="M505.76,132a3.39,3.39,0,0,1,3.41-1.93c3.57.11,7.15.12,10.71.29,2.45.13,4.89.41,7.32.72a6.2,6.2,0,0,1,4.71,8.57,4.49,4.49,0,0,1-.95,1.19,9.8,9.8,0,0,1-4.55,2.43,18.77,18.77,0,0,1-3.94.6A32.55,32.55,0,0,1,511,142.47c-3.21-1-5-4.56-5.21-7.35C505.71,134.1,505.76,133.07,505.76,132Zm14.61,7.79c2.49.33,4.23-.45,5.16-2.37a2.09,2.09,0,0,0-.51-2.73c-1.35-.9-2.83-1.41-4.33-.71C520.58,136,520.47,137.86,520.37,139.74Zm-6.52.08-3.1-5a2,2,0,0,0-1.39,2.36,2.05,2.05,0,0,0,1.52,1.7C511.61,139.18,512.35,139.37,513.85,139.82Z"/><path d="M314.91,165.1c3.62,0,4.85,2.07,5.34,4.52a3.62,3.62,0,0,1-.07,1.5,32.23,32.23,0,0,1-1,3.8,3.59,3.59,0,0,1-1.26,1.66,13.14,13.14,0,0,0-3.06,2.94,6.41,6.41,0,0,1-2.67,1.94c-2.36.91-4.8,1.64-7.23,2.37a4.33,4.33,0,0,1-4.7-2,5.17,5.17,0,0,1,0-5.52,21.69,21.69,0,0,1,7.23-7.34,39,39,0,0,0,4.59-3C312.76,165.37,313.94,165.37,314.91,165.1Zm1.2,5.14c-.71.14-1.09.1-1.25.27-2,2.1-3.48,4.57-5.51,7.23a4.83,4.83,0,0,0,3.15-1.9C313.82,174.23,315.49,172.83,316.11,170.24Zm-9,2.18c-2.09,1.24-4.13,2.54-4.43,5.65A13.91,13.91,0,0,0,307.11,172.42Z"/><path d="M258.54,78.55c1,0,2,0,3.06,0a3.31,3.31,0,0,1,3.32,2.62c.23.88.58,1.74.72,2.63a5.71,5.71,0,0,0,1.06,2.48c1.4,2,1.31,3-.32,4.86a27.19,27.19,0,0,1-1.95,1.92c-1,.88-2,1.68-3,2.6a4.85,4.85,0,0,1-4.7,1.53c-1.38-.32-2.75-.72-4.12-1.08a2,2,0,0,1-1.47-1.45c-.72-2.85-1.53-5.7-2-8.6a6.77,6.77,0,0,1,6-7.46c1.11-.11,2.24,0,3.36,0Zm2,3.86c-2.14,3.56-2.24,7-2.19,10.58a4.19,4.19,0,0,0,3.16-1.58,5.15,5.15,0,0,0,1.61-2.86,1,1,0,0,0,0-.3A9.72,9.72,0,0,0,260.59,82.41Zm-6.12,9.42c.38-2.94,1-5.31,1.33-8.19a6.53,6.53,0,0,0-2.24,4A4.69,4.69,0,0,0,254.47,91.83Z"/><path d="M274.48,120.77c2.19.71,4,1.22,5.84,1.91,2.66,1,4.39,2.83,4.58,5.84a14.14,14.14,0,0,0,.35,1.79c.18.9.33,1.81.52,2.71a6.81,6.81,0,0,1-2.34,6.87,7.19,7.19,0,0,0-2.2,4,9,9,0,0,1-1,2.51c-.21.37-.79.53-1.29.84a10.86,10.86,0,0,0-5.09-3.35c-1.1-.29-1.69-1.43-2.16-2.48-1.9-4.28-2.4-8.63-.54-13.06C272.16,125.86,273.28,123.46,274.48,120.77Zm2.64,22.36a5.53,5.53,0,0,0,.37-1.78c-.29-1.49-.78-2.93-1.08-4.42-.42-2.08-.72-4.18-1.12-6.27a9.23,9.23,0,0,0-.66-1.56c-1.95,2.67-1.88,5.69-2.6,8.35A8.67,8.67,0,0,0,277.12,143.13Zm1.51-16.41a12.62,12.62,0,0,0-.56,1.61,13.82,13.82,0,0,0-.19,2.13c0,2.41.46,4.29,2,8.06C282.43,135.3,282.66,129.33,278.63,126.72Z"/><path d="M265.72,203.25c-1.53-.78-2.86-1.34-4.06-2.1-2.2-1.39-3.76-3.29-3.27-6.08.41-2.4,1.09-4.77,1.68-7.14.2-.79.57-1.55.7-2.35a8.38,8.38,0,0,1,2.87-4.6,2.2,2.2,0,0,1,2.52-.51c1.15.42,1.17.35,2.7-.11,2.29,1.58,3.57,4,4.71,6.49a1.07,1.07,0,0,1,.14.59,11.44,11.44,0,0,0,.11,5c.09.4-.47,1.17-.93,1.44a6,6,0,0,0-2.48,3,7,7,0,0,1-1.46,1.93c-.95.93-1.93,1.77-2,3.26C266.88,202.47,266.23,202.78,265.72,203.25Zm-.69-3.89a11.81,11.81,0,0,0,3.93-3.83,8,8,0,0,0,1.62-4.21c.15-2,.06-4.06,0-6.09a1.09,1.09,0,0,0-1.09-1.18,1.31,1.31,0,0,0-1.19,1.18c-.06.3,0,.62-.08.91-.74,3.15-1,6.39-2.37,9.4A21.78,21.78,0,0,0,265,199.36Zm-3-1.76c1.5-2,1.27-4.4,2-6.55a18.14,18.14,0,0,0,.49-3.16c-1.53,1.63-1.85,1.91-2,2.9C262.23,193,261.38,195.24,262,197.6Z"/><path d="M332.68,33.23A23.41,23.41,0,0,1,340,31.69c1,0,2,.12,3,.18a4.83,4.83,0,0,1,3.43,1.85,26.78,26.78,0,0,0,4.23,4,6,6,0,0,1,.89.85c1.29,1.54,1.22,2.4-.18,3.93a20.33,20.33,0,0,0-2.11,2.62,2.39,2.39,0,0,1-3.13,1.09c-1.16-.36-2.53-.18-3.59-.69C337.51,43,333.4,39.72,332.68,33.23Zm11.16,6.5a3.2,3.2,0,0,0-1-2.62,5.34,5.34,0,0,0-2-1.23c-.43-.18-1-.11-1.27.74ZM339,38.86c0,.68-.12,1,0,1.23a7.32,7.32,0,0,0,3.56,2.72c.51.18,1,0,.93-.84Z"/><path d="M238.11,33.53c2.21-.79,4.39-1.59,6.59-2.35a14.41,14.41,0,0,1,6.36-.3c1.33.15,2.57,1.12,4,1.78.16,1.14.29,2.24.49,3.32.41,2.13-.63,3.57-2.3,4.58-4.37,2.63-8.91,1.89-11.89-1.56-.74-.84-1.63-1.56-2.34-2.41A2.88,2.88,0,0,1,238.11,33.53Z"/><path d="M314.59,46.44a18.22,18.22,0,0,0,2.55,1.4,4.35,4.35,0,0,1,2.32,2.28,2.55,2.55,0,0,1,.24,2.05c-.93,3.44-4.33,7.69-9.27,7.47a11.11,11.11,0,0,1-5-.94A5.26,5.26,0,0,1,303,56a3.56,3.56,0,0,1,.13-3.22A11.62,11.62,0,0,1,312.2,47,13.19,13.19,0,0,0,314.59,46.44Zm-.34,6.35a46.65,46.65,0,0,0-6.13,2.64c1.37.8,1.58.92,2.26.67C311.78,55.58,313.32,55.23,314.25,52.79Zm-5.33-2.26a8,8,0,0,0-2.59,2.3c-.26.3-.34.71.26,1,1.4-.57,2.88-1.17,4.35-1.79.12-.06.15-.33.25-.58Z"/><path d="M294.4,231.48c1.4.54,2.75.15,4.15-.2,1.7-.43,2.47-.06,3.3,1.43a37.47,37.47,0,0,1,2,4.12,6.74,6.74,0,0,1-1.17,7.41,11,11,0,0,1-5,3.34,3.15,3.15,0,0,1-2.92-.38,9.78,9.78,0,0,1-3.5-4.17,8.67,8.67,0,0,1-.63-5.32C291.07,235,292.5,233.29,294.4,231.48Zm5.09,11.68A2.94,2.94,0,0,0,301,239.6c-.37-1.56-1-3.07-1.45-4.54a4,4,0,0,0-4.4,1.15A53.82,53.82,0,0,0,299.49,243.16Zm-7.18-5.2c-.34.8-.64,1.17-.6,1.51a6.54,6.54,0,0,0,3.41,5.42c.71.39,1.38.17,1.78-.8C295.46,242.24,294.28,240.11,292.31,238Z"/><path d="M291.43,97.7c1.66-.56,3-1,4.36-1.45a4.07,4.07,0,0,1,2.07-.26,31.39,31.39,0,0,0,4.71,1.14c1.24.16,2,1.38,2.5,2.5s.77,2.1,1.22,3.33c-.42.59-.83,1.28-1.33,1.89a4.76,4.76,0,0,1-5.5,1.54,8.63,8.63,0,0,0-1.73-.59c-3.09-.13-4.48-2.52-6.07-4.57A3.76,3.76,0,0,1,291.43,97.7Zm6.33,2.92c-.28-.18-.51-.37-.54-.34-.25.24-.46.52-.69.79.13.1.33.32.37.29C297.19,101.15,297.45,100.89,297.76,100.62Z"/><path d="M286,274.23c1.63.43,3,.82,4.35,1.15a2.56,2.56,0,0,1,2.07,2,9.13,9.13,0,0,1-.79,7.37c-1,1.77-2.84,2.57-4.61,3.37a1.69,1.69,0,0,1-.89,0,5.81,5.81,0,0,1-4.76-7C282.15,277.13,282.6,276.74,286,274.23Zm2.17,8.72c1.53-1.84,1.54-2.09.11-3.6C287,280.62,287,280.62,288.13,283Zm-4.94-1.36c-.24,1.05-.32,1.83.77,2.36A2.31,2.31,0,0,0,283.19,281.59Z"/><path d="M277.69,225.74c1.15.42,2.2.76,3.22,1.2a3.29,3.29,0,0,1,2,2.58,10.18,10.18,0,0,1-1.94,8.37,9.06,9.06,0,0,1-4.93,2.88,3.62,3.62,0,0,1-3.67-1.66,5.86,5.86,0,0,1-.59-5.3,11.81,11.81,0,0,1,2.56-4.49C275.38,228.24,276.4,227.11,277.69,225.74Zm-1.38,11.5c1.3.36,2-.52,2.74-1.26a6.54,6.54,0,0,0,1.31-3.34,3,3,0,0,0-.36-2.56C278.33,231.1,277.56,232.62,276.31,237.24Zm.68-6.5a5.38,5.38,0,0,0-3.12,3.62c-.18.93-.54,2,.73,2.79.87-2,1.71-3.94,2.52-5.87C277.18,231.14,277,230.92,277,230.74Z"/><path d="M302,274.75a1.9,1.9,0,0,1-1.81-1.6c-.17-1.11-.35-2.33.46-3.24,1.75-2,3-4.34,5.3-5.87a38.39,38.39,0,0,0,3.83-3.52,14.41,14.41,0,0,1,2.24-1.55,1.84,1.84,0,0,1,2.25.36,1.68,1.68,0,0,1,.45,2.42,3.57,3.57,0,0,1-.38.49c-3.31,3.32-6.22,7.05-9.83,10.08C303.69,273,303,273.87,302,274.75Z"/><path d="M243.83,71.72c1.56-2.68,4.08-3.54,6.53-4.43a5.29,5.29,0,0,1,5,.52,2.34,2.34,0,0,1,1,2.91,6,6,0,0,1-6.17,4.79,7.33,7.33,0,0,0-2.93.54,1.44,1.44,0,0,1-2-.88C244.71,74.07,244.31,72.92,243.83,71.72Zm7-2.5c-.47.55-.95,1.1-1.6,1.87C250.69,71.11,251,70.31,250.85,69.22Z"/><path d="M317.47,360.11a38.42,38.42,0,0,1-4.22,8.16,11.83,11.83,0,0,1-5.46,3.73c-.18.07-.55-.18-.76-.37a.62.62,0,0,1,0-.58,2.68,2.68,0,0,1,.62-1c2.39-1.93,3.48-4.72,4.83-7.33.42-.81.79-1.65,1.23-2.45.76-1.34,1.32-1.52,2.74-.88A7,7,0,0,1,317.47,360.11Z"/><path d="M309.12,389a5.59,5.59,0,0,1-.05-1.54c.49-1.33,1-2.64,1.61-3.93,1.15-2.61,2.32-5.21,3.48-7.81.17-.37.26-.78.45-1.13a1.44,1.44,0,0,1,1.79-.76,1.54,1.54,0,0,1,1,1.69,12.14,12.14,0,0,1-.83,2.58C314.8,382,313,385.83,309.12,389Z"/><path d="M544.68,330.12a2.59,2.59,0,0,1-1,2.07,1.44,1.44,0,0,1-2.43-1,4,4,0,0,1,0-.91,13.72,13.72,0,0,0-2.35-8.63,1.11,1.11,0,0,1,.61-1.72c1.32-.51,3.08,0,3.25,1.33a73.61,73.61,0,0,0,2,8.55A1.91,1.91,0,0,1,544.68,330.12Z"/><path d="M503.91,243.13a2.4,2.4,0,0,1,2.53,1,3.8,3.8,0,0,1,.4,2,13.64,13.64,0,0,1-2.4,6.5,4.23,4.23,0,0,1-1.95,1.33,1.11,1.11,0,0,1-1.47-1.34c.2-.88.53-1.73.79-2.6C502.52,247.71,503.22,245.4,503.91,243.13Z"/><path d="M52.27,314.17a8.39,8.39,0,0,1,1.55-.08c1,.17,1.39,1,.75,1.77a29.81,29.81,0,0,1-2.7,2.91,5.33,5.33,0,0,0-1.54,2.57,9.86,9.86,0,0,1-1.11,2.48c-.87,1.37-1.85,2.67-2.92,4.18l-1.72-.84C46.14,322.1,50.18,318.74,52.27,314.17Z"/><path d="M306.25,335.93a9.25,9.25,0,0,1,.58-1.59c2-3.09,3.95-6.21,6.07-9.22a23,23,0,0,1,3.38-3.53,3.92,3.92,0,0,1,1.65-.67c.48-.12,1,.55.83,1a3.53,3.53,0,0,1-.54,1.08q-5.4,6.28-10.87,12.52C307.2,335.69,306.85,335.71,306.25,335.93Z"/><path d="M318.51,343.52c-1.89,5.36-5.46,9.22-9.29,12.87a6.43,6.43,0,0,1-1.4.7c0-.58-.1-.92,0-1.13.85-1.5,1.68-3,2.65-4.46,1.26-1.85,2.6-3.66,4-5.39a23,23,0,0,1,2.84-2.74C317.51,343.22,318,343.45,318.51,343.52Z"/><path d="M224.25,428.76a17.14,17.14,0,0,1,2.55-1.22,14.62,14.62,0,0,0,5.84-3.24,21,21,0,0,1,5.48-3.31,4.26,4.26,0,0,1,1.46-.29.71.71,0,0,1,.6,1.09,9,9,0,0,1-1.3,1.25,24.14,24.14,0,0,0-2.21,1.62c-2.12,2.2-4.87,3.28-7.59,4.45C227.58,429.76,226.19,429.43,224.25,428.76Z"/><path d="M363.61,449.6a6.09,6.09,0,0,1,2,5.62,7.87,7.87,0,0,1-2.59,5.27c0,2.63.73,5.36-1.89,7.56-.26-.61-.67-1.08-.58-1.44.59-2.45.63-5,1.61-7.41a17.55,17.55,0,0,0,.77-6.94C362.93,451.39,362.58,450.4,363.61,449.6Z"/><path d="M48.81,312.24c1,1.72.86,3.08-.42,4.33-.51.5-.94,1.08-1.42,1.61-1.31,1.46-2.5,3-2.68,5.05a3.84,3.84,0,0,1-.59,1.39,1,1,0,0,1-1.32.44,2,2,0,0,1-.9-1.1,2.9,2.9,0,0,1,.25-1.48,27.41,27.41,0,0,1,5.58-9.43A5.76,5.76,0,0,1,48.81,312.24Z"/><path d="M491.6,202.41c.37-.62.64-1.14,1-1.63a9,9,0,0,0,1.19-1.77c.95-2.8,3.49-4.09,5.4-6,1.18.62,1.63,1.48,1.14,2.58-1.62,3.56-3.84,6.49-8,7.19C492.18,202.76,492.08,202.67,491.6,202.41Z"/><path d="M316.88,398.19a5.39,5.39,0,0,1,0-1.45,21,21,0,0,1,.94-2.25,21.23,21.23,0,0,0,2.12-6.32,7.84,7.84,0,0,1,1-2.51,1,1,0,0,1,1.59-.12,2.06,2.06,0,0,1,.71,1.91,16,16,0,0,1-2.75,7.67,31.25,31.25,0,0,1-3,3.28Z"/><path d="M294.19,268.42a9,9,0,0,1,.77-1.21q3.68-3.9,7.37-7.79c.57-.58,1.16-.67,1.62-.29a1.41,1.41,0,0,1,.29,1.92,7.74,7.74,0,0,1-.55.73c-1.66,2-3.58,3.88-4.91,6.19-.24.41-.75.66-1.21,1.06Z"/><path d="M294.69,351.41a14.62,14.62,0,0,1,.84-3c1.52-2.53,3.13-5,4.75-7.47a5.41,5.41,0,0,1,1.31-1.26,1.19,1.19,0,0,1,1.65.18,1,1,0,0,1,.25,1.38c-2.16,3.31-3.94,6.91-7.21,9.37A13,13,0,0,1,294.69,351.41Z"/><path d="M363,475.08c1,.85,1.85,1.55,2.68,2.28a3.92,3.92,0,0,1,1.17,3.32c0,.3-.21.62-.17.9.32,2.2-1.08,3.11-2.78,3.81a1.14,1.14,0,0,1-1.69-1.1c0-1.32.09-2.65.21-4C362.61,478.7,362.82,477.09,363,475.08Z"/><path d="M266.5,260.16c.25,0,.63-.2.8-.08a17,17,0,0,1,2.61,2.07,36.2,36.2,0,0,1,2.21,2.93c1.61,2.1,2.8,4.51,4.8,6.32a1.14,1.14,0,0,1,.16,1.1.92.92,0,0,1-1.34.29,13.2,13.2,0,0,1-4.15-4c-1.66-2.68-3.39-5.32-5.08-8C266.42,260.67,266.5,260.43,266.5,260.16Z"/><path d="M302.92,350.87a20.88,20.88,0,0,1,.75-2c1.35-2.51,2.7-5,4.11-7.51a21.19,21.19,0,0,1,1.71-2.53c.59-.77,1.2-.93,1.85-.62s.83,1.14.37,2.15a11.3,11.3,0,0,1-.59,1.08c-1.15,1.92-2.29,3.86-3.47,5.76A8.65,8.65,0,0,1,302.92,350.87Z"/><path d="M372.17,190.73c-2.19,1.24-2.41,1.22-3.27-.27a9.41,9.41,0,0,1-1-2.2,22.4,22.4,0,0,1-.27-9.37c1.77.83,2.45,1.71,2.55,3.42.08,1.32,0,2.65.07,4C370.28,187.94,370.55,189.55,372.17,190.73Z"/><path d="M425.91,209.63c0-.3,0-.43,0-.49a25.86,25.86,0,0,1,8.34-6.1,1.6,1.6,0,0,1,2.41,1.09,1.3,1.3,0,0,1-.41,1.65,27.41,27.41,0,0,1-4,2.16c-1.7.69-3.49,1.15-5.25,1.67A4.1,4.1,0,0,1,425.91,209.63Z"/><path d="M442.2,200.79c2.58-2.72,5.47-3.93,8.4-5a1.67,1.67,0,0,1,2.08.81c.53,1,.44,1.93-.47,2.4C449.24,200.5,446.18,201.78,442.2,200.79Z"/><path d="M332.53,410.12a2.42,2.42,0,0,1,1.26,2.68,13.84,13.84,0,0,1-3,6.62c-.59.69-1.14,1.41-1.74,2.1-.22.26-1,0-1-.3a3.38,3.38,0,0,1,0-1.48q1.57-4.14,3.3-8.22A6.72,6.72,0,0,1,332.53,410.12Z"/><path d="M506.19,214.64a2.5,2.5,0,0,1-1.3-2.25,13.37,13.37,0,0,1,0-2.45c.14-1.31.33-2.62.56-3.92a3.78,3.78,0,0,1,.58-1.37,1.44,1.44,0,0,1,1.59-.67,1.39,1.39,0,0,1,1,1.35,4.53,4.53,0,0,1,0,1.22c-.32,2.12-.65,4.25-1,6.36A1.86,1.86,0,0,1,506.19,214.64Z"/><path d="M513.74,223.44a2.78,2.78,0,0,1,1.58,3.73c-.42,1.47-.79,3-1.25,4.41a7,7,0,0,1-2.85,3.7c-.66,0-.91-.46-.77-.82,1.37-3.42,1.63-7.13,2.79-10.6C513.29,223.7,513.54,223.61,513.74,223.44Z"/><path d="M523.14,189.67a2.67,2.67,0,0,1,1.45,2.34c0,1.73.09,3.47,0,5.2a39.43,39.43,0,0,1-.61,4.85,5.31,5.31,0,0,1-1,1.87c-.11.16-.55.09-1,.16,0-.47,0-.84,0-1.22.07-1.84.11-3.68.21-5.51.11-2,.24-4.08.41-6.12A7.38,7.38,0,0,1,523.14,189.67Z"/><path d="M354.49,472.47c2.41,2.42,2.54,5,2.18,7.72a2.87,2.87,0,0,1-1.12,2.1c-1,.7-2.25.29-2.32-.88a16.23,16.23,0,0,1,.32-6.09C353.83,474.45,354.12,473.58,354.49,472.47Z"/><path d="M329.17,400.22c1.43,1.11,1.41,2.41,1.06,3.92a17.33,17.33,0,0,1-3.09,6.6,6.21,6.21,0,0,1-.86.84c-.27.23-1,0-1-.38a3.75,3.75,0,0,1,0-1.21c.21-.68.52-1.32.79-2a11.16,11.16,0,0,0,1.14-4.72A2.93,2.93,0,0,1,329.17,400.22Z"/><path d="M358,274.75c.18-.5.21-.84.4-1q2.88-3.16,5.81-6.28a10.17,10.17,0,0,1,2.06-1.77c.29-.18,1,.07,1.34.31a.91.91,0,0,1,.3,1.34c-2.47,3-4.75,6.18-8.69,7.42A4.4,4.4,0,0,1,358,274.75Z"/><path d="M276.78,413c-.26,1.27-.4,2.36-.72,3.41a1.79,1.79,0,0,1-2.74.85,18.64,18.64,0,0,1-2.32-2.38,1.37,1.37,0,0,1-.25-1.13c.39-1.11.5-2.39,1.61-3.28Z"/><path d="M371.74,457.39a3.75,3.75,0,0,1,1.21,2.16,14.05,14.05,0,0,1-.29,8.39c-.45,1.25-1.08,2.42-2.87,2.54a5.7,5.7,0,0,1-.11-1.44c.32-1.69.63-3.4,1.11-5.05a18.3,18.3,0,0,0,.69-5.7A4,4,0,0,1,371.74,457.39Z"/><path d="M496.49,225.76c-2.15-1.62-2.22-1.77-1.65-3.42.71-2,1.42-4,2.19-6a8.27,8.27,0,0,1,.87-1.41c1,0,1.16.63,1.39,1.17a1.75,1.75,0,0,1,.13.9A22.64,22.64,0,0,1,496.49,225.76Z"/><path d="M343.09,441.36c-.52.13-1.13-.29-1.53.44-.72,1.33-1.52,2.61-2.51,4.28a7.43,7.43,0,0,1-.66-2,7.32,7.32,0,0,1,.52-2.07c.55-1.64,1.1-3.29,1.74-4.9a9.49,9.49,0,0,1,1.23-2.08,1,1,0,0,1,1.74.35,5.06,5.06,0,0,1,.19,2.08C343.65,438.79,343.34,440.07,343.09,441.36Z"/><path d="M297.13,372.06c-.07-.95-.25-1.43-.09-1.73,1.37-2.59,2.77-5.16,4.24-7.69a1.72,1.72,0,0,1,1.29-.55,1.31,1.31,0,0,1,1.11,2c-1.28,2.52-2.41,5.16-5,6.72A16.24,16.24,0,0,0,297.13,372.06Z"/><path d="M363.45,193.69c1.79,1.37,2.79,2.6,3,4.11a14,14,0,0,0,2.26,5.63,2.49,2.49,0,0,1,.21.56,1,1,0,0,1-1.06,1.17,1.88,1.88,0,0,1-1.08-.47A15.5,15.5,0,0,1,363.45,193.69Z"/><path d="M534.39,172.24c.37-3.33.67-6.12,1-8.91a5.27,5.27,0,0,1,.55-1.27,5.52,5.52,0,0,1,1.27.7,3.64,3.64,0,0,1,1,3.09,39.89,39.89,0,0,1-.69,4.49,2.65,2.65,0,0,1-1,1.43A7.39,7.39,0,0,1,534.39,172.24Z"/><path d="M410.65,223.78c1,.38,1.52,1,1,1.73-2.21,3.15-4.86,5.76-8.85,6.53-.07,0-.17-.1-.26-.15s-.13-.46-.05-.54q3.72-3.63,7.48-7.23A3.59,3.59,0,0,1,410.65,223.78Z"/><path d="M495.65,242.05a2.53,2.53,0,0,1,0-.92c1.34-2.63,2.71-5.24,4.07-7.85.28-.53.49-1.16,1.27-1.15.57,0,1.1.72.95,1.66-.59,3.54-1.94,6.64-5.42,8.31C496.31,242.21,496,242.08,495.65,242.05Z"/><path d="M514.81,201.26c1.33.21,1.45,1.24,1.71,2.06.35,1.07.15,9.68-.14,11.21a.87.87,0,0,1-1.39-.62c-.44-2.4-1.08-4.77-.64-7.26.19-1.09.08-2.24.16-3.35C514.55,202.62,514.7,202,514.81,201.26Z"/><path d="M263.21,261.28l10,14c-.87-.09-1.44,0-1.73-.22a10,10,0,0,1-1.89-2c-1.95-2.71-3.84-5.48-5.74-8.22C263.24,264,263.11,263,263.21,261.28Z"/><path d="M457.18,204c.7,1.19.69,2.15.08,2.89-1.62,2-3.25,3.95-5.63,5.08a2.32,2.32,0,0,1-2.47,0,60.78,60.78,0,0,1,6.08-6.78A10.55,10.55,0,0,1,457.18,204Z"/><path d="M374.09,258.18c0-.38,0-.51,0-.58a4.72,4.72,0,0,1,.69-1c2.19-1.93,4.4-3.84,6.62-5.76a2.66,2.66,0,0,1,.86.38c.86.9,1,1.29.34,2.07C380.49,256.06,377.92,258,374.09,258.18Z"/><path d="M386.25,240.12a7.14,7.14,0,0,1,.71-1.2c1.79-1.81,3.58-3.62,5.41-5.37a2.07,2.07,0,0,1,1.33-.52,1.26,1.26,0,0,1,.84,2.06,14,14,0,0,1-4.76,4.2,13.86,13.86,0,0,1-2.24,1A3.84,3.84,0,0,1,386.25,240.12Z"/><path d="M444.65,194.46c-2.53,2-5,3.43-8.49,2.79a6.72,6.72,0,0,1,.68-1.26,15.35,15.35,0,0,1,5.38-4c1.27-.56,2.58-.52,2.54,1.7C444.75,193.9,444.7,194.1,444.65,194.46Z"/><path d="M518.5,229.89a15.75,15.75,0,0,1,.67,7.3,9.31,9.31,0,0,1-2.8,5.63.86.86,0,0,1-.81.11c-.21-.1-.32-.46-.38-.73a1.23,1.23,0,0,1,.15-.59c1.13-3.38,1.86-6.87,2.66-10.33A11.57,11.57,0,0,1,518.5,229.89Z"/><path d="M299.43,333.2c-.09-2.09,1.16-3.42,2.07-4.79,1.33-2,2.21-4.48,5.11-5.17a3.45,3.45,0,0,1-.35,2.6A34.6,34.6,0,0,1,303,330.6,6.84,6.84,0,0,1,299.43,333.2Z"/><path d="M363.62,258l1.61,1.68c-1.92,3.07-4.35,4.78-8.81,6.25a.63.63,0,0,1-.17-1C358.47,262.5,360.94,260.4,363.62,258Z"/><path d="M529.1,178.41c2.38,1.56,2.74,2.38,2.1,4.74a13.19,13.19,0,0,1-.79,2.29,4.48,4.48,0,0,1-1.06,1.42,1.16,1.16,0,0,1-1.9-.61c0-.1-.1-.2-.09-.29C527.86,183.43,527.5,180.7,529.1,178.41Z"/><path d="M506.17,218.58c.95,1.75,1.45,3,.94,4.66a18.23,18.23,0,0,1-1.33,4,5.36,5.36,0,0,1-.73,1,1,1,0,0,1-1.71-.39,3.87,3.87,0,0,1-.14-1.8C504,223.65,504.36,221.11,506.17,218.58Z"/><path d="M263.53,405.93l3.25,3.36c0,.76.11,1.66.1,2.57a1.52,1.52,0,0,1-1,1.38c-1.09.49-1.94-.06-2.8-.65a1.82,1.82,0,0,1-.88-2.08C262.53,409.16,263,407.83,263.53,405.93Z"/><path d="M417.13,219.43c.11-.36.11-.71.29-.87,2.07-1.82,4.14-3.64,6.29-5.37a5.8,5.8,0,0,1,2.2-.95,1,1,0,0,1,1,1.39A3.47,3.47,0,0,1,425.8,215c-2,1.23-4.06,2.38-6.11,3.51C418.93,218.91,418.27,219.69,417.13,219.43Z"/><path d="M370.14,197.62c.57.53,1.35,1,1.67,1.61a17.86,17.86,0,0,0,4.42,5.86c-.09,1-.65,1.53-1.37,1.57a2.58,2.58,0,0,1-1.63-.58,11.36,11.36,0,0,1-3.27-6,16,16,0,0,1-.26-2.08Z"/><path d="M349.59,445.1c-.37-1.1-.63-1.48-.59-1.83.24-2.09.54-4.18.82-6.28.13-1,.2-2,.41-3,.07-.3.49-.6.81-.73s.58.15.75.35a3.24,3.24,0,0,1,.69,2.85c-.35,1.57-.69,3.15-1.17,4.67C351,442.28,350.37,443.34,349.59,445.1Z"/><path d="M565.36,222.29l6.51-5.86c1.5,1.26,1.62,1.51.92,2.48a16.14,16.14,0,0,1-4.84,4.55C566.24,223.07,566.24,223.07,565.36,222.29Z"/><path d="M526.85,265.22a4.58,4.58,0,0,1,.47-1.07,30.74,30.74,0,0,1,5.76-5,7.36,7.36,0,0,1,1.89-1,1.72,1.72,0,0,1,1.4.17c.47.42.06.95-.31,1.3-1.19,1.11-2.41,2.21-3.63,3.3A9,9,0,0,1,526.85,265.22Z"/><path d="M551.6,240.3c.77.94.95,1.76.31,2.41-1.57,1.57-3.18,3.1-4.87,4.53a1.5,1.5,0,0,1-2.2,0,1.25,1.25,0,0,1-.2-1.86c.2-.23.4-.53.66-.63C547.75,243.89,549.47,242,551.6,240.3Z"/><path d="M368.67,162.35a5.94,5.94,0,0,1,2.49,4.11c.42,2.41.1,4.85.32,7.5-.7-.13-1.17-.07-1.41-.28a3.1,3.1,0,0,1-1.05-2.45c0-2-.13-4.09-.21-6.13C368.77,164.19,368.72,163.29,368.67,162.35Z"/><path d="M360.07,254.05a35.73,35.73,0,0,1-6.81,5.45,12.42,12.42,0,0,1-2.16.92c-.08-.39-.21-.64-.13-.75a27.45,27.45,0,0,1,6.76-6.58C358.55,252.49,358.79,252.62,360.07,254.05Z"/><path d="M545.44,321.15a2.54,2.54,0,0,1,2.74,1,5.43,5.43,0,0,1,1.3,4.27c-.38,1.88-1,3.73-1.5,5.57a1.34,1.34,0,0,1-1.51.95c.28-2.05.62-4,.79-6S546.58,323.15,545.44,321.15Z"/><path d="M307.19,302.88a1.19,1.19,0,0,1,0-1.79,40.8,40.8,0,0,1,3-3.38c1.78-1.65,3.65-3.21,5.5-4.78a3.27,3.27,0,0,1,1.07-.54.64.64,0,0,1,.52.2.59.59,0,0,1,.11.53,8.89,8.89,0,0,1-1,1.12c-1,1-2,1.95-3.08,2.91Z"/><path d="M337.58,269.25a23.34,23.34,0,0,1,6.57-6.64,1.39,1.39,0,0,1,.85-.26,1.91,1.91,0,0,1,1,.55c.15.17.07.58,0,.86a1,1,0,0,1-.35.49C343.21,266.24,341,268.54,337.58,269.25Z"/><path d="M313.5,305.16a10.8,10.8,0,0,1-.83,1.27,34.94,34.94,0,0,0-4.23,5.59,20.53,20.53,0,0,1-2.72,3.27c-.12.13-.52,0-.88,0,0-1.94,1.15-3.33,2.07-4.68a42.8,42.8,0,0,1,4.23-4.82C311.67,305.22,311.93,305.21,313.5,305.16Z"/><path d="M371.51,181.91a5.11,5.11,0,0,1,3,2.8c.77,2,1.33,4,1.92,6.07.1.34-.11.76-.22,1.34a4.58,4.58,0,0,1-1.43-.63,4,4,0,0,1-.88-1.56C373.1,187.36,372.36,184.77,371.51,181.91Z"/><path d="M562.77,227.41c1.44,1.17,1.6,1.46,1,2.1-1.42,1.44-2.87,2.85-4.41,4.15a3.27,3.27,0,0,1-3.7.29c-.12,0-.13-.35-.25-.74A23.64,23.64,0,0,0,562.77,227.41Z"/><path d="M362.37,150.17a2.79,2.79,0,0,1,1.71,2.39c.12,1.94,0,3.89-.05,5.83a1.49,1.49,0,0,1-.35.83c-.17.22-.48.51-.69.47a1.51,1.51,0,0,1-1-.55,3.09,3.09,0,0,1-.33-1.45c0-2.25.09-4.5.18-6.75C361.86,150.69,362.17,150.45,362.37,150.17Z"/><path d="M368.58,156.63l-1.74.59a31.52,31.52,0,0,0,.24-3.52c0-1.1-.32-2.2-.4-3.31a8.77,8.77,0,0,1,.12-2.11.87.87,0,0,1,.62-.56.84.84,0,0,1,.7.43C368.8,150.78,370.29,153.32,368.58,156.63Z"/><path d="M366.52,172.65c-1.51-.22-2.11-.87-2.22-1.85a25.07,25.07,0,0,1,.18-7.71,2.8,2.8,0,0,1,2.09,2.54A47.25,47.25,0,0,1,366.52,172.65Z"/><path d="M370.4,250.87a11.61,11.61,0,0,1,.79-1.46,21.32,21.32,0,0,1,4.89-4,2.44,2.44,0,0,1,1.4-.48,1.78,1.78,0,0,1,1.16.74c.17.24,0,.74-.06,1.1a.88.88,0,0,1-.38.46A16.93,16.93,0,0,1,370.4,250.87Z"/><path d="M325.65,281.27a3.78,3.78,0,0,1,1.38-2.53c1.87-1.57,3.78-3.1,5.68-4.64.16-.12.36-.29.53-.28.38,0,.88,0,1.08.26a1.11,1.11,0,0,1,.09,1.08c-1.06,1.08-2.19,2.1-3.35,3.08a12.29,12.29,0,0,1-1.36.67c-.95.58-1.86,1.22-2.81,1.81A10.21,10.21,0,0,1,325.65,281.27Z"/><path d="M361.93,178.09a3.59,3.59,0,0,1,1.48,2.48c.41,2.19.73,4.39,1,6.6,0,.25-.16.72-.34.76a1.32,1.32,0,0,1-1.07-.14,6.66,6.66,0,0,1-1.29-2C361.11,184,361.24,180.63,361.93,178.09Z"/><path d="M513.45,189.39c2.41,1,2.27,3,2.43,4.57.19,1.93.62,4-.9,5.73-.28-.16-.57-.22-.59-.34A49.82,49.82,0,0,1,513.45,189.39Z"/><path d="M437.41,214.49a48.92,48.92,0,0,1,5.89-5.33.87.87,0,0,1,.84,0,1.51,1.51,0,0,1,.55,1,2.17,2.17,0,0,1-.42,1.41,44.25,44.25,0,0,1-3.75,3.09C440,215,439.78,214.89,437.41,214.49Z"/><path d="M228.86,431.47a16.93,16.93,0,0,1,1.83-1.15,18.3,18.3,0,0,0,4.38-2.13,1.72,1.72,0,0,1,2.26,0c.53.61.25,1.61-.63,2.38-1.38,1.21-2.86,1.94-4.77,1.35A25.47,25.47,0,0,0,228.86,431.47Z"/><path d="M361.33,174.56a2.55,2.55,0,0,1-1.72-2.19,16.28,16.28,0,0,1,.22-8.6,8.12,8.12,0,0,1,1.56,5.08,34.83,34.83,0,0,0,.2,4.2A5.68,5.68,0,0,1,361.33,174.56Z"/><path d="M351.24,467.45c-.82-1.75-.32-3.49-.31-5.17,0-1.08.1-1.08,1.26-2.87.43.41,1.09.74,1.19,1.2.53,2.44.57,4.84-1.49,6.74C351.83,467.41,351.69,467.39,351.24,467.45Z"/><path d="M381.14,219.15a1.56,1.56,0,0,1-2.29-.06,11.23,11.23,0,0,1-1.68-2.49,42.42,42.42,0,0,1-1.68-4.21c-.09-.23.08-.77.21-.8a1.41,1.41,0,0,1,1.06.15,4.79,4.79,0,0,1,1.11,1.42,24.63,24.63,0,0,0,3.13,5.19C381.11,218.48,381.07,218.74,381.14,219.15Z"/><path d="M344.48,287.19a14,14,0,0,1,.89-1.88c1.13-1.54,2.3-3.07,3.47-4.59a4.37,4.37,0,0,1,.64-.65,1.63,1.63,0,0,1,1.95-.26c.5.35.46,1.18-.08,1.9A16.49,16.49,0,0,1,344.48,287.19Z"/><path d="M369.05,212.64c1.18-.09,1.73.72,2.27,1.4,1,1.25,2,2.56,2.89,3.88.2.29.34.9.18,1.08a2.09,2.09,0,0,1-1.24.63,1.35,1.35,0,0,1-1.09-.4c-.86-1.11-1.66-2.27-2.41-3.45A4,4,0,0,1,369.05,212.64Z"/><path d="M360,435.67c2.31,1.6,3.11,2.74,2.67,3.91-.75,2-1.14,4.13-3,6-.18-.35-.44-.63-.41-.86C359.72,442,360.66,439.22,360,435.67Z"/><path d="M450.71,191.78a4.79,4.79,0,0,1,2.35-2.49,17.77,17.77,0,0,1,3-1.44c.29-.1.9.34,1.18.68a1.31,1.31,0,0,1,.09,1.68.63.63,0,0,1-.2.23A8.73,8.73,0,0,1,450.71,191.78Z"/><path d="M319,302.08a22.73,22.73,0,0,1,9.6-9.42c.09.37.26.66.2.88a1.45,1.45,0,0,1-.53.72,50.09,50.09,0,0,0-7.93,7.61,5.35,5.35,0,0,1-.92.68Z"/><path d="M264.92,419c.76.24,1.35.36,1.91.59,1.62.69,1.88,2.15.56,3.35a8.28,8.28,0,0,1-1.52,1,1.14,1.14,0,0,1-1.84-.79c-.27-1-.71-2-.21-3A6.15,6.15,0,0,1,264.92,419Z"/><path d="M265.59,395.93a3.72,3.72,0,0,1-1.77-2.29c1.36-2,1.83-2.16,3.64-1.24.78.39,1.84.4,2.2,1.48.16.49,0,1.16-.47,1.27C268,395.42,266.82,395.67,265.59,395.93Z"/><path d="M420.53,207a14.41,14.41,0,0,1,6.14-5,1.15,1.15,0,0,1,1.06.2c.21.22.33.92.18,1-2.11,1.77-3.91,4.11-7.05,4.11C420.79,207.34,420.73,207.21,420.53,207Z"/><path d="M321.22,338.57c.42-2.26,1.62-4,2.59-5.91a1.33,1.33,0,0,1,1.85-.55,1.39,1.39,0,0,1,.47,1.87A7.88,7.88,0,0,1,321.22,338.57Z"/><path d="M379,197.12c.89.33,1.44.37,1.74.67,1.75,1.7,2.33,4,3,6.24.14.44-.55,1-1,.78a2.56,2.56,0,0,1-1.19-.83,27.16,27.16,0,0,1-1.5-3.35C379.66,199.68,379.43,198.68,379,197.12Z"/><path d="M380.65,210.42a3.28,3.28,0,0,1,.8.24c2,1.36,3,3.5,4.11,5.51a1.27,1.27,0,0,1,.07.59,1.2,1.2,0,0,1-1.61.86,4.31,4.31,0,0,1-.91-.79A14.32,14.32,0,0,1,380.65,210.42Z"/><path d="M391.21,245.64c.71-2,3.21-4.6,6.9-7.46.76.37.51,1,.29,1.51a5.28,5.28,0,0,1-.84,1.27A18.86,18.86,0,0,1,391.21,245.64Z"/><path d="M333.12,286.55c-.17-.59-.33-.87-.26-.94,1.83-1.91,3.67-3.81,5.56-5.68a2,2,0,0,1,1.1-.42,1,1,0,0,1,.78.34.85.85,0,0,1,0,.82c-1.51,1.51-3,3-4.63,4.44A14.87,14.87,0,0,1,333.12,286.55Z"/><path d="M530.07,245.87c.79.22,1.34-.24,1.94-.64,1.09-.73,2.19-1.45,3.31-2.15a3.13,3.13,0,0,1,2.9-.16c-.46,1.3-.46,1.3-6.55,4.43-1,0-1.38-.68-1.52-1.56Z"/><path d="M332.94,303.51c-.14-.5-.3-.77-.23-.87,1.22-1.62,2.42-3.27,3.74-4.81a1.23,1.23,0,1,1,1.73,1.74A15.25,15.25,0,0,1,332.94,303.51Z"/><path d="M512.16,252.39c.32,2.23.58,4.41-.42,6.48a4.16,4.16,0,0,1-1.11,1.36,1.21,1.21,0,0,1-1.1.11,1.15,1.15,0,0,1-.33-1C510.2,257,510.51,254.45,512.16,252.39Z"/><path d="M259,424.8c1.1,1.24,1.26,2.58,1.75,3.77a1.28,1.28,0,0,1-.87,1.68,1.45,1.45,0,0,1-1.87-.46,3.92,3.92,0,0,1-.78-2.82C257.23,425.9,258,425.45,259,424.8Z"/><path d="M398.72,226.52a4.52,4.52,0,0,1,.62-1c1.9-1.85,3.81-3.68,5.75-5.5a1.71,1.71,0,0,1,.81-.36.69.69,0,0,1,.51.21.87.87,0,0,1,.23.54,1.1,1.1,0,0,1-.23.56A18.13,18.13,0,0,1,398.72,226.52Z"/><path d="M550.58,234.67a1.32,1.32,0,0,1,.22,2c-1.26,1.8-2.38,3.81-5.14,3.71,0-.25-.21-.64-.09-.78,1.23-1.47,2.48-2.92,3.78-4.32A3.83,3.83,0,0,1,550.58,234.67Z"/><path d="M553.73,232.6c-.09-.56-.22-.8-.14-.94a11.9,11.9,0,0,1,5.65-5.25.85.85,0,0,1,.78.2.79.79,0,0,1,.07.78C558.2,229.3,556.7,231.69,553.73,232.6Z"/><path d="M504.46,197.58c.31-.89.71-1.79,1-2.73s.18-2,1.09-2.89a5.65,5.65,0,0,1,1.28.69,1.4,1.4,0,0,1,.52,1,5.67,5.67,0,0,1-1.78,3.77A1.52,1.52,0,0,1,504.46,197.58Z"/><path d="M531.6,255.84c.09-.38.06-.64.18-.74,1.62-1.38,3.24-2.79,4.93-4.08.4-.31,1.1-.24,1.76-.36a2.46,2.46,0,0,1-1.2,2.45A10.75,10.75,0,0,1,531.6,255.84Z"/><path d="M270.86,444.69c-.89.51-1.4.82-1.92,1.1-.74.4-1.45.69-2.24,0a2.25,2.25,0,0,1-.88-2.42,8.16,8.16,0,0,1,1-1.67A24.34,24.34,0,0,1,270.86,444.69Z"/><path d="M344.69,455.63c-.35-.61-.75-1-.7-1.28.29-1.68.62-3.36,1.07-5,.13-.47.7-.82,1.18-1.35a3.51,3.51,0,0,1,.68,3A7.14,7.14,0,0,1,344.69,455.63Z"/><path d="M268.66,380.43l3.11,1c.39,1.42-.44,2.32-1.39,3a1.72,1.72,0,0,1-1.64-.15,4.49,4.49,0,0,1-1.16-2C267.35,381.5,268,381,268.66,380.43Z"/><path d="M339.86,274.76c2.1-2.57,4-4.48,7-5.67-.06.89.1,1.58-.17,2C345.61,272.62,342.84,274.14,339.86,274.76Z"/><path d="M267.72,399.11c1.13.59,1.58,1.78,2.15,2.83a1.28,1.28,0,0,1-1.15,1.75,2,2,0,0,1-2.16-1.35,5.56,5.56,0,0,1-.23-1.81A1.37,1.37,0,0,1,267.72,399.11Z"/><path d="M276.41,403a3.21,3.21,0,0,1-2.49,1.47,1.92,1.92,0,0,1-2.05-1c-.5-.83-.82-1.67.2-2.37C275.33,401.6,275.33,401.6,276.41,403Z"/><path d="M262,435.51c.08-.82-.08-1.8.88-2.36.65-.38,1.8,0,2.63,1a1.26,1.26,0,0,1,.28.83,3.3,3.3,0,0,1-2.17,2.26C262.67,437.39,262,436.73,262,435.51Z"/><path d="M326.17,317.6c-.08-.18-.27-.41-.22-.53.71-1.67,1.41-3.34,2.2-5a.84.84,0,0,1,1.31-.3,1.25,1.25,0,0,1,.42,1,7.42,7.42,0,0,1-3.42,4.79C326.39,317.67,326.27,317.61,326.17,317.6Z"/><path d="M522.79,213.22c.66.85,1.14,1.19,1.16,1.56a34.7,34.7,0,0,1,0,4.56c-.07,1-.67,1.64-1.92,1.89A44,44,0,0,1,522.79,213.22Z"/><path d="M302.27,380.05a1.94,1.94,0,0,1-.82-2.31,14.85,14.85,0,0,1,1.33-3c.26-.51,1.24-.33,1.54.2a2.71,2.71,0,0,1-.07,2.62,4.9,4.9,0,0,1-.68,1C303.15,379.06,302.7,379.55,302.27,380.05Z"/><path d="M270.24,428.09c.88.7,1.67,1.33,2.45,2a1.66,1.66,0,0,1,.18.29,1.85,1.85,0,0,1-1.28,1.83,1.76,1.76,0,0,1-2.58-1.87A2.54,2.54,0,0,1,270.24,428.09Z"/><path d="M276.78,387a4.67,4.67,0,0,1-.44.85c-1.76,1.72-3.28,1.46-4.12-.78a1.75,1.75,0,0,1,.35-1.36,1.22,1.22,0,0,1,1.1-.19C274.69,386,275.66,386.49,276.78,387Z"/><path d="M314.68,316.92c.16-1,.08-1.49.29-1.71q2.76-3,5.63-6c.26-.28.72-.34,1.09.37C319.52,311.83,317.56,314.36,314.68,316.92Z"/><path d="M259.33,441c.29,1,.63,1.93.81,2.89a1,1,0,0,1-.88,1.34,2.3,2.3,0,0,1-1.61-.47c-.85-.87-.44-2.92.62-3.69C258.41,440.93,258.66,441,259.33,441Z"/><path d="M274,439.76c-.74-.21-1.43-.22-1.79-.57a2.27,2.27,0,0,1-.59-1.62,4.49,4.49,0,0,1,.78-1.9,1.39,1.39,0,0,1,1-.36c.21,0,.51.34.6.59A4.88,4.88,0,0,1,274,439.76Z"/><path d="M501.49,202.21c.35.22.78.35.8.52.22,1.91-.84,5.14-2.34,7.28-.64,0-.53-.54-.49-.85a4.18,4.18,0,0,1,.43-1.45,10.78,10.78,0,0,0,1.15-4.35A3.93,3.93,0,0,1,501.49,202.21Z"/><path d="M569.21,216.33a14,14,0,0,1-6.37,5.62c.07-.48,0-.83.15-1,1.63-1.51,3.27-3,5-4.45C568.23,216.29,568.79,216.39,569.21,216.33Z"/><path d="M274.46,440.11a8.38,8.38,0,0,1,2.29,3.3c-1.36,1.25-1.95,1.37-2.81.61C272.9,443.09,273,442.39,274.46,440.11Z"/><path d="M335.31,429.56c-.45-1.81.33-3.09,1.21-4.32a1,1,0,0,1,.79-.32,1.9,1.9,0,0,1,.84.75,1,1,0,0,1,0,.86,23.2,23.2,0,0,1-1.73,2.76C336.3,429.51,335.78,429.46,335.31,429.56Z"/><path d="M277,376a2.42,2.42,0,0,1-.53.82,1.58,1.58,0,0,1-1.95.07,2.38,2.38,0,0,1-.67-3.18,1.45,1.45,0,0,1,1.27-.43A4.37,4.37,0,0,1,277,376Z"/><path d="M276.59,427c-.78,1-1.49,1.06-2.27.48a1.53,1.53,0,0,1-.45-2.12,5.17,5.17,0,0,1,.63-1,.82.82,0,0,1,1.29.08,2.11,2.11,0,0,1,.32.5C276.28,425.61,276.42,426.3,276.59,427Z"/><path d="M416.28,211.26c.23.61.56,1.07.44,1.27a8.91,8.91,0,0,1-1.65,2.1,3.42,3.42,0,0,1-2.7,1.17C412.91,214.11,413.16,213.82,416.28,211.26Z"/><path d="M270.55,363.4a15.79,15.79,0,0,1,2.45,0,1.25,1.25,0,0,1,.81,1.88,4.05,4.05,0,0,1-.52.73,1.1,1.1,0,0,1-2-.19A15,15,0,0,1,270.55,363.4Z"/><path d="M275,394.82a2.85,2.85,0,0,1-.64,1c-.62.43-1.14,0-1.56-.48a2,2,0,0,1-.32-2.7,1,1,0,0,1,.79-.23C274.43,392.69,274.9,393.32,275,394.82Z"/><path d="M518.7,182.52c.16-1.21.25-2.31.47-3.39a1.1,1.1,0,0,1,.77-.73,1.23,1.23,0,0,1,.9.65c.58,1.51,0,2.8-1.63,3.66C519.15,182.74,519,182.65,518.7,182.52Z"/><path d="M270,375c-.1-.2-.47-.57-.4-.81a19.73,19.73,0,0,1,.87-1.87c.19-.5.39-.95,1-.91s1.06.82,1,1.64A2.13,2.13,0,0,1,270,375Z"/><path d="M272.73,453.32a19.7,19.7,0,0,1,.83,2.53c.06.29-.27.74-.54,1a1,1,0,0,1-.85.07,1.78,1.78,0,0,1-1-2C271.21,454,271.5,453.28,272.73,453.32Z"/><path d="M386.69,211.3c1.8.36,2.19,1.84,2.56,3.3.05.19-.23.57-.45.69s-.7.12-.79,0c-.71-1.06-1.64-2-1.64-3.44C386.37,211.68,386.56,211.51,386.69,211.3Z"/><path d="M369.25,439.39c.91-.17,1.19.32,1.28.79.27,1.41-.29,2.64-.84,4.35C368.83,442.25,368.83,442.25,369.25,439.39Z"/><path d="M573.69,211.75c2-1.89,2-1.89,4.35-2.22a5,5,0,0,1-2.67,2.66C574.93,212.44,574.22,212.83,573.69,211.75Z"/><path d="M576.47,216.36a4.91,4.91,0,0,1,2.2-2.46c.28-.15.94.15,1.28.42.15.12.06.79-.14,1A3.11,3.11,0,0,1,576.47,216.36Z"/><path d="M202.69,303.84c.21-1.27.29-2,.47-2.81.15-.6.94-1.19,1.38-1s1,.59,1,1a21.77,21.77,0,0,1,.25,3.33c.05,1.73,0,3.47.09,5.2a1.82,1.82,0,0,0,1.14,1.83c1.37-1,1-2.46.89-3.82a4.34,4.34,0,0,0-1.81-3.75c1-.29,1.48-.58,1.89-.5a11.65,11.65,0,0,1,2,.75c2.07-3.64,1.85-7.47,1-11.31-.69-3.2-1.49-6.37-2.3-9.54-.37-1.47-.81-2.94-1.32-4.38-1.69-4.81-3.44-9.59-5.12-14.41a23.83,23.83,0,0,1-1.13-4.13,20.72,20.72,0,0,0-2.27-6c-1-1.92-2.1-3.75-3.06-5.67-1.1-2.2-2-4.47-3.11-6.67a39.9,39.9,0,0,0-2.08-3.73,7.59,7.59,0,0,1-1.53-4.19,11.36,11.36,0,0,1,1.27-1.79c1-1,2.6-1.6,4,.08a10.44,10.44,0,0,1,1,1.53,12.7,12.7,0,0,1,.76,1.68,130.38,130.38,0,0,0,6.91,14.34,42.44,42.44,0,0,1,2.22,6.33c1,3,1.61,6.14,2.75,9.07,2.67,6.87,4.57,14,6.54,21,.57,2.06.8,4.2,1.2,6.31a43.38,43.38,0,0,0,2.26,7.63,22.28,22.28,0,0,1,.8,2.64c.39,1.7.16,2.08-1.59,3.09a5.22,5.22,0,0,0-.63.56c.11.95.22,2.05.37,3.14s.38,2.43.55,3.64a1.27,1.27,0,0,1-.68,1.54,1.66,1.66,0,0,1-1.74-.16,2.59,2.59,0,0,1-1.12-1.75c-.23-1.41-.54-2.8-.87-4.48a5.14,5.14,0,0,0-.79.86,7.2,7.2,0,0,0-.39,4.8,16.78,16.78,0,0,1,.17,6.82l-2.3,1.19c-3.11-1.33-1.9-4-2.16-6.09-.79-.63-1.31-.32-1.48.36a9.49,9.49,0,0,0-.1,2.14c0,.82,0,1.64,0,2.46a1.53,1.53,0,0,1-.83,1.51,1.61,1.61,0,0,1-2-.36,3.87,3.87,0,0,1-1.46-3.24,14.37,14.37,0,0,1,.24-2.73,3.3,3.3,0,0,0-.81-3.63c-2-2.11-3-4.84-4.46-7.3a80.34,80.34,0,0,0-7.67-11.46q-5-6-10.16-11.92a19.53,19.53,0,0,0-3.36-3.13,68.3,68.3,0,0,1-10-8.64c-1.05-1.11-2.34-2-3.45-3-1.47-1.41-2.9-2.87-4.3-4.35a2.54,2.54,0,0,1-.44-1.11,1.08,1.08,0,0,1,.95-1.32,2.39,2.39,0,0,1,1.2.08c1.79.95,3.86,1.43,5.3,3a16.45,16.45,0,0,0,3.12,2.45,20.54,20.54,0,0,1,3.68,3.23,61.74,61.74,0,0,0,9.37,7.87,18,18,0,0,1,3.59,3.32,51.09,51.09,0,0,0,3.56,4.21c3.43,3.41,6.12,7.39,8.9,11.3,1.6,2.25,3,4.62,4.54,6.92C201.86,302.93,202.09,303.14,202.69,303.84Z"/><path d="M168.87,121.07a7.64,7.64,0,0,1,6.57,6.53,9.94,9.94,0,0,0,.69,2.35c1.23,2.51,1.61,5.25,2.15,7.93a8.83,8.83,0,0,1-.93,6.83,4.65,4.65,0,0,1-.69,1,7.71,7.71,0,0,1-8.08.77,15.94,15.94,0,0,1-5.57-5.13,16.22,16.22,0,0,1-3.07-9.13c0-1-.18-2-.27-3a2.55,2.55,0,0,1,1.5-2.76c.73-.37,1.45-.76,2.17-1.15a10.09,10.09,0,0,0,2.67-2A18.73,18.73,0,0,1,168.87,121.07Zm-1.23,16.22c-.06.39-.28.84-.17,1.18a10,10,0,0,0,4.27,5.68c1.45-1.86.75-3.53.24-5.14-1.28-.23-2.37-.41-3.46-.64a1.05,1.05,0,0,1-.88-1.08c-.76-1.06-.39-2.09.09-3.11.2-.43.66-.93.56-1.28-.34-1.23.34-1.89,1.07-2.65a1.69,1.69,0,0,0,.21-2.21c-.46-.8-1.41-1.48-1.93-1.28a2.35,2.35,0,0,0-1.62,1.68,6.41,6.41,0,0,0-.16,1.51c.06,1.52.23,3,.24,4.57A3.31,3.31,0,0,0,167.64,137.29Z"/><path d="M160.66,96.57c-.11,1.22-.16,2.45-.33,3.66a7.1,7.1,0,0,1-5,5.26,5.18,5.18,0,0,1-4.73-1.65,20.34,20.34,0,0,1-6.14-12c-.19-1.41-.32-2.84-.49-4.25A2.3,2.3,0,0,1,145.33,85c1.61-.87,3.2-1.8,4.81-2.68a3.23,3.23,0,0,1,3.2,0,8.71,8.71,0,0,1,5.13,6.06c.31,1.38,1,2.68,1.39,4s.69,2.74,1,4.11Zm-11.89-2.76,4.45-4.07c-1.51-2.32-1.72-2.48-4.27-3.38C147.9,88.79,148.23,91.2,148.77,93.81Zm3.8,6.36-.39.52a21.72,21.72,0,0,0,1.42,1.86c.91,1,1.85.78,2.29-.49a10.36,10.36,0,0,0,.31-2.08,9.58,9.58,0,0,1-1.95.48A8.33,8.33,0,0,1,152.57,100.17Z"/><path d="M166.45,444.92c-2.16.59-3-.62-3.62-1.92a19.14,19.14,0,0,1-1.33-3.74c-.79-3.37-1.48-6.76-2.17-10.14a11.07,11.07,0,0,1,0-1.9,12.21,12.21,0,0,1,1.4,1.18,14.5,14.5,0,0,1,2.45,5.23C164.32,437.31,165.33,441.05,166.45,444.92Z"/><path d="M84,430.83c2,1.34,2.86,3,2.6,4.85-.48,3.45-.37,6.9-.51,10.35a2.23,2.23,0,0,1-.17.58,1.19,1.19,0,0,1-1.82-.4,4.88,4.88,0,0,1-.75-2,15.61,15.61,0,0,1-.19-3.34C83.4,437.69,83.72,434.47,84,430.83Z"/><path d="M66.48,383.31c1-.33,1.41.08,1.62.51A31.52,31.52,0,0,1,70,388c.68,2.12,1.18,4.3,1.73,6.47.32,1.24-.15,1.75-1.35,1.64a2.26,2.26,0,0,1-2.09-1.47,17.38,17.38,0,0,1-1.76-7.35C66.51,386,66.48,384.64,66.48,383.31Z"/><path d="M177.15,464.71a3.24,3.24,0,0,1-4-1.19,25.43,25.43,0,0,1-3-4.91c-.94-2.21-1.48-4.59-2.32-7.27a8.22,8.22,0,0,1,1.57.67,10.06,10.06,0,0,1,3.43,4.57A29.83,29.83,0,0,0,177.15,464.71Z"/><path d="M98.53,431c.91.8,1.43,1,1.59,1.42a10.3,10.3,0,0,1,.81,2.94c.24,3.56.36,7.13.51,10.7,0,.6,0,1.26-.66,1.57a1.48,1.48,0,0,1-1.69-1,6.69,6.69,0,0,1-.6-2.33C98.45,440.1,98.5,435.92,98.53,431Z"/><path d="M66,369c.2-3.06.4-6.2.61-9.34a2.68,2.68,0,0,1,1.87-2.44c.4.21.94.46,1.44.76a2,2,0,0,1,.87,2.4c-.32,1.28-.72,2.55-1,3.84s-.48,2.38-.67,3.58c-.1.62-.14,1.24-.76,1.57A1.81,1.81,0,0,1,66,369Z"/><path d="M217.36,379.41c.24.42.49.66.53.93A63.94,63.94,0,0,1,219,394c0,.53-.2,1.08-.81,1.12a2.31,2.31,0,0,1-1.41-.29,2.8,2.8,0,0,1-1.07-2.42c0-2.24,0-4.49.13-6.72.14-1.92.55-3.81.86-5.71C216.76,379.84,217,379.73,217.36,379.41Z"/><path d="M96.25,451.91c2.37.62,2.45,2.36,2.56,3.91a15.75,15.75,0,0,1-.4,3.31c-.22,1.5-.43,3-.68,4.5a9.3,9.3,0,0,1-.37,1.47,1.35,1.35,0,0,1-1.42.93,1.16,1.16,0,0,1-1.15-1.18,13.11,13.11,0,0,1,0-2.73C95.24,458.81,95.74,455.51,96.25,451.91Z"/><path d="M79.59,403.71,77,405.19c-2-3.85-4.06-7.47-3-11.88.6-.3,1,.09,1.32.44a9.35,9.35,0,0,1,2.95,5.53A32.17,32.17,0,0,0,79.59,403.71Z"/><path d="M256,298.39a2.75,2.75,0,0,1,.14.92,10.42,10.42,0,0,0,.42,6,18.54,18.54,0,0,1,.64,2.67c.35,1.8.71,3.59,1,5.4a26.22,26.22,0,0,1,.16,2.82c-.82.72-1.36.44-1.74-.07a3.24,3.24,0,0,1-.63-1.37c-.69-4.21-1.33-8.44-2-12.65a3.3,3.3,0,0,1,1.16-3.55C255.32,298.41,255.66,298.45,256,298.39Z"/><path d="M91.33,426A2.17,2.17,0,0,1,90,424.09c-.63-3.75-1.92-7.45-1.17-11.3,1-.34,1.5.33,2,.8a5.77,5.77,0,0,1,1.32,2,9.38,9.38,0,0,1,.46,2.7c.08,1.72.06,3.45.08,5.18C92.65,424.5,92.51,424.76,91.33,426Z"/><path d="M159.17,451.22a9.12,9.12,0,0,1,3.19,3.16,6.34,6.34,0,0,1,.42.82c1.5,3,2.88,6.1,5.15,8.51-.3.93-.82,1.17-1.49.86a6.19,6.19,0,0,1-1.83-1.08A18.93,18.93,0,0,1,159.17,451.22Z"/><path d="M103.57,445.71a110.37,110.37,0,0,1,3.75-14.32c0-.13.31-.18.48-.27a6.73,6.73,0,0,1,.92,4.81c-.58,2.57-1.24,5.13-2,7.64a5.55,5.55,0,0,1-1.63,2.1C104.81,445.9,104.18,445.71,103.57,445.71Z"/><path d="M73.8,378.68c-1.09.37-1.93.76-3,.15a16.32,16.32,0,0,1,.31-5.28c.28-1.79.31-3.62.44-5.36a1.47,1.47,0,0,1,2,.3c.55.55,1.26,1.32,1.26,2C74.8,373.18,75,376,73.8,378.68Z"/><path d="M231.29,361.18c.63.51,1,.65,1.05.88a20.91,20.91,0,0,1,1.37,4.65c.24,3,.14,5.93.11,8.89,0,1.2-.47,1.75-1.23,1.83-1,.1-1.76-.74-1.82-2a3.08,3.08,0,0,1,0-.91c.76-3.23.48-6.51.48-9.77Z"/><path d="M181.54,438.27c.26.29.58.48.62.72.69,3.49,1.31,7,2.29,10.41a3.08,3.08,0,0,1,.06.91,1,1,0,0,1-1.33.88,4,4,0,0,1-2.26-2.35c-.56-2.37-1.39-4.71-1.23-7.22A4,4,0,0,1,181.54,438.27Z"/><path d="M98.28,416.37c3,.77,4.2,2.13,4.11,4.56a18,18,0,0,1-.41,3,2.73,2.73,0,0,1-2.34,2.1,1.41,1.41,0,0,1-1.72-1.25c-.08-.5-.1-1-.13-1.52A48.52,48.52,0,0,1,98.28,416.37Z"/><path d="M175.61,447.47c-1.65-.16-2.73-.64-3.39-2a33.63,33.63,0,0,1-2.4-7.22c-.29-1.15-.44-2.34-.71-3.84a6,6,0,0,1,1.26.57,10.23,10.23,0,0,1,3.23,5.4c.44,1.76,1.18,3.45,1.74,5.19A13,13,0,0,1,175.61,447.47Z"/><path d="M72.31,409.28c2.44.69,3.86,1.82,4.16,4.2.18,1.42.67,2.78,1,4.18.13.61.15,1.24-.53,1.6a1.52,1.52,0,0,1-2-.21,10.59,10.59,0,0,1-1.66-2.54A13,13,0,0,1,72.31,409.28Z"/><path d="M237.59,350.16c2.54,2.58,3.87,5.14,3.7,8.48a30.85,30.85,0,0,0,.61,4.82,1.25,1.25,0,0,1-.42,1,1.43,1.43,0,0,1-1.15,0,2.79,2.79,0,0,1-1.64-2.7c-.16-2-.36-4.05-.59-6.08a13.14,13.14,0,0,0-.91-4.45C237.1,351.13,237.35,350.8,237.59,350.16Z"/><path d="M147.15,424a9,9,0,0,1,3.53,7.1c0,1.52.23,3,.35,4.55-2,.53-2.54.37-3.29-1a7.59,7.59,0,0,1-.67-1.71A51.34,51.34,0,0,1,147.15,424Z"/><path d="M239.85,332.44c.36.09.67.07.73.18a82.68,82.68,0,0,1,6.44,15c-.88,1-1.31,1.08-1.83.37a10.74,10.74,0,0,1-1.57-2.58c-1.34-3.72-2.59-7.48-3.82-11.24A5.49,5.49,0,0,1,239.85,332.44Z"/><path d="M228.16,395.83c-.42-.17-.89-.32-1.32-.53a1.48,1.48,0,0,1-.91-1.76c1.11-3.51,1.39-7.17,2.06-10.76a2.74,2.74,0,0,1,.46-.8C230.6,387.1,230.53,391.84,228.16,395.83Z"/><path d="M154.62,433.58c.93,2.38,1.75,4.44,2.53,6.51.54,1.42,1,2.86,1.53,4.3a1.37,1.37,0,0,1-.43,1.64,1.41,1.41,0,0,1-1.94-.14,4.51,4.51,0,0,1-1.22-1.7c-.6-2.26-1.14-4.55-1.52-6.85a10.3,10.3,0,0,1,.24-3C153.85,434.12,154.21,434,154.62,433.58Z"/><path d="M201.58,188.28a11.23,11.23,0,0,0,1.75.87c.44.11,1.09-.17,1.36.06a8.41,8.41,0,0,1,1.78,2c.63,1,1.08,2.18,1.63,3.27s.92,1.9-.58,2.41c-.1,0,0,.57,0,.86-.11.6-.64.94-1,.62a9.27,9.27,0,0,1-1.93-1.87,14,14,0,0,1-1.41-3C202.6,192,202.21,190.43,201.58,188.28Z"/><path d="M183.11,457.42c2.59.8,4,2.11,4.51,4.06a36,36,0,0,1,.72,6.06c.08,1.06-.88,1.61-1.89,1.24a2.61,2.61,0,0,1-1.86-2.22c-.1-.8-.05-1.62-.08-2.44A18.33,18.33,0,0,0,183.11,457.42Z"/><path d="M162.47,191.26a1.23,1.23,0,0,1,1.69.57,53.34,53.34,0,0,1,2.53,5.56,19.14,19.14,0,0,1,.65,4.22c0,.34-.22,1-.44,1a3.23,3.23,0,0,1-1.4-.25.85.85,0,0,1-.4-.45C163.71,198.55,161.86,195.29,162.47,191.26Z"/><path d="M92.52,435c.32.33.8.6.94,1a21.63,21.63,0,0,1,.82,10.59,2.94,2.94,0,0,1-.33.85c-.22.45-1,.57-1.27.14a5.52,5.52,0,0,1-.89-2.22c-.05-3.35.06-6.7.1-10.06Z"/><path d="M88.67,450.31a5.92,5.92,0,0,1,.93.74A6.37,6.37,0,0,1,91,455.29c0,1.81.09,3.62,0,5.43a1.49,1.49,0,0,1-.69,1.17A1.52,1.52,0,0,1,89,461.5a3.1,3.1,0,0,1-1-1.78c0-2.83.09-5.66.2-8.48C88.2,451,88.45,450.72,88.67,450.31Z"/><path d="M203.82,405.91c.51,1.3.75,2,1,2.62,1.15,2.81.33,5.43-.79,8a1.59,1.59,0,0,1-2.6,0,2.54,2.54,0,0,1-.38-2.34C201.9,411.62,202.79,409,203.82,405.91Z"/><path d="M191.14,427.59c1-2.79,1.89-5.55,2.87-8.31,0-.13.34-.18.59-.3a9.59,9.59,0,0,1,.53,8.4,5.22,5.22,0,0,1-.59,1.06,1.53,1.53,0,0,1-2.36.38A7.87,7.87,0,0,1,191.14,427.59Z"/><path d="M211.1,397.77a7.73,7.73,0,0,1,2.2,4.69,22.65,22.65,0,0,1,.25,5.15,1.47,1.47,0,0,1-2.24,1.18,2.33,2.33,0,0,1-1.42-2.14c.23-2.32.47-4.64.74-7A16.74,16.74,0,0,1,211.1,397.77Z"/><path d="M243.73,280.33c1.27-.47,2.06.21,2.88.82a2.61,2.61,0,0,1,.91,2.17c.08,1.53.23,3.05.29,4.58a6.68,6.68,0,0,1-.23,1.42c-1.85.26-1.94.24-2.35-.73a10.75,10.75,0,0,1-.7-2c-.35-1.7-.64-3.41-.91-5.12A4.18,4.18,0,0,1,243.73,280.33Z"/><path d="M94.44,469a9.56,9.56,0,0,1,1,.37c2.52,1.28,3.06,2.1,1.7,4.81-.37.72-.64,1.5-1,2.25a1.4,1.4,0,0,1-1.47.85,1.45,1.45,0,0,1-1.36-1,2.92,2.92,0,0,1-.37-1.15c.17-1.51.39-3,.69-4.51A6.67,6.67,0,0,1,94.44,469Z"/><path d="M83.82,425.21c-1.7-3.5-3.06-6.81-2.67-10.88a5,5,0,0,1,1.15.65,14.08,14.08,0,0,1,3,5.25C85.87,422,86.21,423.87,83.82,425.21Z"/><path d="M241.29,369.24a5.45,5.45,0,0,1,1.93,3.27,19.11,19.11,0,0,1-1.16,8.64,1.12,1.12,0,0,1-1,.49,3,3,0,0,1-1.17-.77c-.12-.1-.14-.38-.13-.58a7,7,0,0,1,.15-1.2c.37-1.58.86-3.14,1.1-4.74S241.2,371.37,241.29,369.24Z"/><path d="M250.71,335.59a2.12,2.12,0,0,1-2.06-1.29,21.23,21.23,0,0,1-2.65-7.07c-.23-1.5-.59-3-.85-4.46a6.59,6.59,0,0,1,.13-1.41,8,8,0,0,1,2.31,4.07,69.58,69.58,0,0,0,3.09,8.54A4.16,4.16,0,0,1,250.71,335.59Z"/><path d="M188,437.32a8.87,8.87,0,0,1,.7,1.3A67.27,67.27,0,0,1,191.1,448c.1.64,0,1.24-.67,1.51a1.6,1.6,0,0,1-1.86-.64,4.11,4.11,0,0,1-.39-1.43c-.29-3-.57-6-.8-9.05C187.36,438.11,187.72,437.82,188,437.32Z"/><path d="M100.62,467.52a17.64,17.64,0,0,1,.44-3.93,64.09,64.09,0,0,0,2.14-8.93c.08-.36.25-.71.4-1.15a2.31,2.31,0,0,1,1.52,2.8c-.12.7-.38,1.38-.57,2.07a27.17,27.17,0,0,0-1.28,5,10.15,10.15,0,0,1-1.4,3.36C101.74,467,101.28,467.13,100.62,467.52Z"/><path d="M225.61,245.47a2.88,2.88,0,0,1,2.9,1.44c1.71,2.61,3.25,5.32,4.85,8,0,.06-.05.18-.14.48a2.57,2.57,0,0,1-2.55-1c-.93-1.07-1.76-2.22-2.58-3.37a8.27,8.27,0,0,1-.87-1.6C226.7,248.21,226.23,247,225.61,245.47Z"/><path d="M181.32,476.87c-1,.75-1.94.93-2.7-.07a23,23,0,0,1-1.88-3.08,9.94,9.94,0,0,1-.69-2c-.2-.68-.34-1.37-.49-2.07s-.83-1.19-.46-2.15C178.28,469.94,180.05,473.2,181.32,476.87Z"/><path d="M253,323.45c-.56-.51-1.05-.76-1.23-1.15a16.93,16.93,0,0,1-1.75-4.48,43.23,43.23,0,0,1,.07-6.63c0-.1.31-.19.64-.38a20.13,20.13,0,0,1,.76,2.88,25.34,25.34,0,0,0,1.8,7A2.75,2.75,0,0,1,253,323.45Z"/><path d="M255.6,352.68a1.4,1.4,0,0,1-1.93-.95,8.21,8.21,0,0,1-.73-2.92,19.07,19.07,0,0,0-1.24-6.22c-.06-.16,0-.37.09-.7,1.55.22,2,1.62,2.6,2.62C255.53,346.26,256.05,350.44,255.6,352.68Z"/><path d="M215,225.37a4.32,4.32,0,0,1-1.69.09,4.89,4.89,0,0,1-2.3-2.34c-1-1.84-2.1-3.65-3.22-5.57.13-.54.7-.5,1.16-.38a3.76,3.76,0,0,1,1.34.67C211.89,219.08,214.24,222.83,215,225.37Z"/><path d="M155.26,192.84c.75.59,1.44.9,1.73,1.43a23,23,0,0,1,3,8.55,7.36,7.36,0,0,1-.12,1.3,1.62,1.62,0,0,1-2.22-1,24.88,24.88,0,0,1-1.11-4.4,16.1,16.1,0,0,0-1.19-4.69A4.76,4.76,0,0,1,155.26,192.84Z"/><path d="M185.12,275.45a31.16,31.16,0,0,0-6.92-7.93,7.36,7.36,0,0,1,2,0,5.46,5.46,0,0,1,1.84,1c1.82,1.75,3.59,3.56,5.33,5.39.22.24.18.74.3,1.31Z"/><path d="M250.9,282.44a8,8,0,0,1,1.29.58c3,2.4,4.26,5.81,5.22,9.36.14.51.09.53-.87,1.46C253.78,290.65,252.82,286.59,250.9,282.44Z"/><path d="M181.45,434.59a18.14,18.14,0,0,1-1.63-9.29c.32,0,.69-.15.83,0a7.52,7.52,0,0,1,2.68,5.87A3.73,3.73,0,0,1,181.45,434.59Z"/><path d="M167.32,470.26c1.93.89,2.55,2.13,3.44,3.07,1.67,1.79,3.28,3.64,4.86,5.51a1.35,1.35,0,0,1,.07,1.07c-.06.16-.54.28-.81.26a4.11,4.11,0,0,1-2.63-1.42,19.24,19.24,0,0,1-3.41-5.06C168.41,472.78,168,471.85,167.32,470.26Z"/><path d="M79.4,442.12C76.69,436.17,75.88,432,76.71,429c.17.08.48.13.5.24A62.84,62.84,0,0,0,79.72,437,6.36,6.36,0,0,1,79.4,442.12Z"/><path d="M235.29,265.7a4.51,4.51,0,0,1,2.72,1.7,13,13,0,0,1,2.4,5.25,1.48,1.48,0,0,1-.27,1.12c-.39.47-1,.21-1.39,0a2.54,2.54,0,0,1-1.12-1c-.94-2.12-1.78-4.28-2.63-6.43C235,266.22,235.15,266,235.29,265.7Z"/><path d="M217.85,229.3a10,10,0,0,1,5.31,4.25c.69,1.25,1.54,2.42,2.26,3.66a1.15,1.15,0,0,1-.23,1.67,3.51,3.51,0,0,1-2.55-1.95,41.24,41.24,0,0,0-4.85-6.68C217.7,230.16,217.8,229.88,217.85,229.3Z"/><path d="M80.68,451.42c.52.28.9.35,1,.57a45.22,45.22,0,0,1,3.55,8.68,2.56,2.56,0,0,1,.15.89c0,.27-.16.68-.35.75a1.35,1.35,0,0,1-1.11,0A3.09,3.09,0,0,1,82.82,461c-.58-1.82-1.08-3.68-1.51-5.55C81,454.18,80.91,452.9,80.68,451.42Z"/><path d="M167.38,177a6.38,6.38,0,0,1,1.36.37,5.31,5.31,0,0,1,.88.83,45.33,45.33,0,0,1,5,8.33,1.35,1.35,0,0,1-2.07-.15,18.38,18.38,0,0,1-2.26-3.23C169.31,181.29,168.49,179.35,167.38,177Z"/><path d="M262.19,309.17a1.25,1.25,0,0,1,.95,1.35,20.37,20.37,0,0,0,1.82,7.93,1.38,1.38,0,0,1-.18,1.69c-.35.32-1.14-.15-1.66-.89-1.65-2.31-1.64-4.94-1.48-7.58A15.2,15.2,0,0,1,262.19,309.17Z"/><path d="M193.2,260.24a6.61,6.61,0,0,1,1.51.44c2.11,1.38,2.46,3.63,2.74,5.86a1.31,1.31,0,0,1-2,1.11,3.24,3.24,0,0,1-1.79-2.34C193.46,263.72,193.37,262.11,193.2,260.24Z"/><path d="M189.6,483.74a6.23,6.23,0,0,1-1.22,0c-3-.53-3-1.48-3-3.41,0-1.12,0-2.24,0-3.46.46-.32.77.19,1.09.53s.6.84,1,1.18a6.31,6.31,0,0,1,2.06,5.23Z"/><path d="M231.41,242.71c4,.68,5.66,2.29,6.84,6.3-1.58.86-2,.85-2.76-.22C234.18,246.88,232.9,244.94,231.41,242.71Z"/><path d="M223.55,227.17c1.23.72,2.37,1.37,3.49,2.05a8.38,8.38,0,0,1,3.43,4.5c.28.76.1,1.37-.4,1.58a1.51,1.51,0,0,1-1.88-.53,8.43,8.43,0,0,1-.55-1.08,11.52,11.52,0,0,0-3.87-5C223.36,228.46,223,228,223.55,227.17Z"/><path d="M186.36,266.45c3.48,1.34,5.15,3.47,5.45,6.93-1.14.59-2.18.52-2.85-.67-1-1.77-1.86-3.6-2.74-5.43C186.12,267.08,186.31,266.74,186.36,266.45Z"/><path d="M179.18,196.18c3.16,2.19,5.23,5.51,5.35,8.44a2.64,2.64,0,0,1-2.78-1.37A21,21,0,0,1,179.18,196.18Z"/><path d="M196.76,209.4c-.38.74-1,.57-1.59.36a3.33,3.33,0,0,1-1.24-.87c-1.84-2-2.69-4.44-3.49-7.14C192.83,202.79,195.11,205.62,196.76,209.4Z"/><path d="M174.36,200.19a3.88,3.88,0,0,1-3.54-2.57c-.87-1.92-1.79-3.82-2.68-5.74,0-.07.05-.18.08-.29.67-.49,1.12,0,1.55.41A16,16,0,0,1,174.36,200.19Z"/><path d="M236.67,257.82c.34.2.79.31,1,.6,1.6,2.33,3.66,4.38,4.51,7.39l-1.37,1C238.45,264.25,237.56,261.14,236.67,257.82Z"/><path d="M247.73,378.3l2.24-8.38c.32.28.73.47.86.78,1.14,2.68.55,5.2-.92,7.55C249.49,378.93,248.75,379,247.73,378.3Z"/><path d="M252.29,277a7.28,7.28,0,0,1-1.54.2c-.26,0-.51-.31-.73-.51a20.77,20.77,0,0,1-4.35-7.75c.88-.26,1.24.49,1.69.94A25.43,25.43,0,0,1,252.29,277Z"/><path d="M258,337c-.36-.23-.79-.36-1-.64a8.1,8.1,0,0,1-1-2.22c-.52-2.55-.92-5.12-1.44-8,.54.35.93.46,1.07.71a11.25,11.25,0,0,1,1.77,4.79,12.84,12.84,0,0,0,.71,2.63C258.44,335.09,258.44,335.1,258,337Z"/><path d="M220.64,241.46a3.22,3.22,0,0,1-2.74-2.55,9.35,9.35,0,0,0-2.12-3.61,3.53,3.53,0,0,1-.91-3.31c.58.65,1,1.08,1.37,1.53,1,1.14,2,2.26,3,3.43a13,13,0,0,1,1.58,2.2A2.06,2.06,0,0,1,220.64,241.46Z"/><path d="M204.18,210.22a2.94,2.94,0,0,1-2.92-1.8c-1.17-2.47-2.28-5-3.39-7.46,0,0,.1-.15.28-.41,1.94,1.67,3.08,3.93,4.46,6C203.3,207.52,204.23,208.57,204.18,210.22Z"/><path d="M248.05,364.37c-.71,0-.85-.51-.86-1a15.89,15.89,0,0,0-1-6.32,12.41,12.41,0,0,1-.52-2.08c.53-.54.91-.12,1.22.26a11.51,11.51,0,0,1,1.39,2C249.39,359.63,249.74,362,248.05,364.37Z"/><path d="M189.83,159.52c.79-.52,1.26.07,1.69.39a8.7,8.7,0,0,1,2.43,3.81c.61,1.46,1.62,2.85,1.24,4.56-.51.42-.81.09-1-.25-.81-1.51-1.58-3-2.36-4.57C191.17,162.14,190.5,160.82,189.83,159.52Z"/><path d="M101.89,471.36c.37.08.79,0,.92.21.64.88,1.23,1.8,1.8,2.74a1.74,1.74,0,0,1,.17.88,2.17,2.17,0,0,1-1.23,1.95c-.76.34-1.31-.23-1.84-.71a2.37,2.37,0,0,1-.69-2.49C101.24,473.08,101.59,472.25,101.89,471.36Z"/><path d="M214.61,212.56a1.51,1.51,0,0,1,1.81,1.1,19.93,19.93,0,0,0,3,6.23.82.82,0,0,1-.07.8.9.9,0,0,1-.79.13,4.76,4.76,0,0,1-2.53-2.5A15.44,15.44,0,0,1,214.61,212.56Z"/><path d="M180.48,171.43c.65.09,1,0,1.2.18A7.91,7.91,0,0,1,182.9,173c1.16,1.67,2.3,3.37,3.42,5.07a5.69,5.69,0,0,1,.44,1.08,1.64,1.64,0,0,1-2.27-.44,12.76,12.76,0,0,1-1.75-2.5C182,174.74,181.33,173.24,180.48,171.43Z"/><path d="M191.81,185.38c.18,0,.43-.08.53,0a22.7,22.7,0,0,1,4.42,6.88.85.85,0,0,1-1.38.93,6.82,6.82,0,0,1-1.48-1.91c-.81-1.75-1.49-3.55-2.19-5.35C191.65,185.8,191.77,185.58,191.81,185.38Z"/><path d="M200.72,282.65c-.74.24-1.27.59-1.65.47a2.27,2.27,0,0,1-1.35-1.09c-.58-1.81-1-3.68-1.44-5.53,0-.05.11-.14.26-.32C198.87,277.58,200,279.75,200.72,282.65Z"/><path d="M191,279.4a2.83,2.83,0,0,1,2.51,1.2c1.12,1.46,2.18,3,3.22,4.48a1,1,0,0,1-1.51,1.39,6.13,6.13,0,0,1-1.42-1.59C192.9,283.2,192.07,281.46,191,279.4Z"/><path d="M247.07,299a5.51,5.51,0,0,1,1.41.46,7.94,7.94,0,0,1,3,4.88,1.63,1.63,0,0,1-.31,1.11,1,1,0,0,1-1.38.09,3.14,3.14,0,0,1-1.16-1.3C248.05,302.75,247.67,301.17,247.07,299Z"/><path d="M86.16,468.3a3.35,3.35,0,0,1,2,2.37,35.43,35.43,0,0,1,1.19,4c0,.25-.33.69-.61.89a1,1,0,0,1-.84-.09,3.46,3.46,0,0,1-1.71-2.7C86.07,471.39,86.16,470,86.16,468.3Z"/><path d="M199.11,180.05c-2.26-1.64-2.83-2.88-4.25-9,.42-.43.79-.15,1,.19A23.14,23.14,0,0,1,199.11,180.05Z"/><path d="M203.68,287.59a5.5,5.5,0,0,1,2.26,5.53,1.19,1.19,0,0,1-1.43,1A6.56,6.56,0,0,1,203.68,287.59Z"/><path d="M204.48,200.38a37.47,37.47,0,0,1,4.66,8.47c.14.31,0,.77-.12,1.44-.58-.38-1.12-.54-1.31-.9-.52-1-.91-2-1.34-3-.65-1.59-1.31-3.19-1.93-4.79A4.1,4.1,0,0,1,204.48,200.38Z"/><path d="M183.73,164.35c3,1.87,2.83,4.85,4.09,7,.18.31-.06.87-.12,1.46C185.61,171.1,185.72,172.31,183.73,164.35Z"/><path d="M186.67,194.23c-1.67-.58-2.46-2.07-3.37-3.38-.73-1-1.55-2.18-1.24-3.62.55-.32.68.11.91.42,1.2,1.64,2.42,3.26,3.62,4.9C187,193.06,187.25,193.59,186.67,194.23Z"/><path d="M176,171.07a9.43,9.43,0,0,1,2.88,3.62c.74,1.43,1.52,2.85,2.28,4.27a.56.56,0,0,1-1,.09,23.83,23.83,0,0,1-4.46-7.49C175.67,171.45,175.88,171.24,176,171.07Z"/><path d="M222,405.73a6.31,6.31,0,0,1-1.91,4.44c-1.13,1.06-2.05,2.53-4,2.55A26.29,26.29,0,0,1,222,405.73Z"/><path d="M198.24,291.53c2.36.72,2.92,1.3,4,4.21-.46.11-.95.37-1.32.26a2.18,2.18,0,0,1-1.15-.92A12.14,12.14,0,0,1,198.24,291.53Z"/><path d="M75.31,443.81c-.27-1.28-.55-2.56-.78-3.84a4.67,4.67,0,0,1,.26-1.28c.76,1.9,1.65,3.33,1.15,5.05Z"/><path d="M49.26,223.74a7.06,7.06,0,0,1-2,.77,28.65,28.65,0,0,1-5.16-.25,7.21,7.21,0,0,1-2.64-1.38c-.67-.45-.83-1.23-.5-1.56s.91-.15,1.4-.11a19.92,19.92,0,0,0,3.93.12,6,6,0,0,1,4.27,1.24C48.8,222.77,48.93,223.2,49.26,223.74Z"/><path d="M68.39,228.08a4.64,4.64,0,0,1,1.22.61,10.69,10.69,0,0,0,4.12,2.46,6.34,6.34,0,0,1,1.79,1.08.87.87,0,0,1,.13.79.9.9,0,0,1-.69.44,4.35,4.35,0,0,1-1.46-.32A9.41,9.41,0,0,1,68.39,228.08Z"/><path d="M64.46,225.45a49.53,49.53,0,0,1-5.19-.06c-.72-.07-1.38-.75-2.14-1.21a2.7,2.7,0,0,1,2.91-.87,27.11,27.11,0,0,1,4.07,1.3C64.28,224.67,64.32,225.11,64.46,225.45Z"/><path d="M75.28,227.78c-1.21,1-2.14.38-3,0-2.39-1-2.68-1.26-3.34-2.78.29-.06.61-.26.81-.17C71.55,225.65,73.72,225.81,75.28,227.78Z"/><path d="M77.81,227.59c.16-.24.22-.38.26-.38,1.27.22,2.56.4,3.81.69a1.07,1.07,0,1,1-.76,2A5.82,5.82,0,0,1,77.81,227.59Z"/><path d="M63.76,228.87c2,.13,3.16.79,3.92,2.31C65.78,231.07,65.28,230.78,63.76,228.87Z"/><path d="M56.56,227.14c-2,.35-2.82-1.17-4.27-2.15C54.07,225,55,225.46,56.56,227.14Z"/><path d="M80.08,237.9l-1.37-1.65c1.74.25,1.9.36,2,1.32,0,.08-.43.18-.66.28Z"/><path d="M80.17,231.91a1.69,1.69,0,0,1,.52.19,1.52,1.52,0,0,1,.32.45c-.22.07-.5.27-.67.2s-.4-.37-.59-.57Z"/><path d="M484.42,407.59c.36,3.5.64,6.55,1,9.59.23,1.9-.43,3.64-.85,5.42a1.17,1.17,0,0,1-.87.71,2.14,2.14,0,0,1-1.27-.65,2.39,2.39,0,0,1-.31-1.17c-.84-5.07-.58-10.17-.79-15.66Z"/><path d="M478.64,435.58a7.47,7.47,0,0,1,1.1.37c2,.95,2,1,1.41,3.26-.45,1.67-.8,3.36-1.32,5a10.54,10.54,0,0,1-4.33,6,1.88,1.88,0,0,1-.56.2,2.36,2.36,0,0,1-.52-.1c.2-2.61,1.48-4.91,2.2-7.36S478,438.13,478.64,435.58Z"/><path d="M462.87,463.92a5.82,5.82,0,0,1,3.26,2.71c-.64,1.84-1.32,3.52-1.81,5.24a12.55,12.55,0,0,1-2.89,4.6c-.13.15-.27.36-.44.4a3.34,3.34,0,0,1-1.42.12c-.58-.17-.64-.79-.49-1.28.44-1.55.94-3.08,1.44-4.62C461.27,468.78,462,466.48,462.87,463.92Z"/><path d="M463.4,415.76c2.69.93,3.62,3,4,5.22s.44,4.66.62,7a3.76,3.76,0,0,1-.11,1.2,1.33,1.33,0,0,1-2.22.5,3.82,3.82,0,0,1-.75-1.62c-.41-2.41-.77-4.84-1.08-7.27C463.66,419.2,463.57,417.6,463.4,415.76Z"/><path d="M461.54,438.8c1.84.33,2.87,1.16,2.87,2.84,0,2.64-.1,5.27-.24,7.9a4.3,4.3,0,0,1-.69,1.67,1.29,1.29,0,0,1-1.51.73,1.4,1.4,0,0,1-1.05-1.35c0-1.83-.05-3.66.05-5.48C461.08,443.09,461.33,441.08,461.54,438.8Z"/><path d="M453.13,442.89a7.25,7.25,0,0,1,3.4,7.12c-.08.92,0,1.84,0,2.77a3,3,0,0,1-1.9,3.05c-.38-.36-1-.67-1.2-1.16a8.4,8.4,0,0,1-.68-2.94,19.52,19.52,0,0,1,.31-5.8A13,13,0,0,0,453.13,442.89Z"/><path d="M454.52,460.39l2.39,2.69a2.43,2.43,0,0,1,.32.51c.87,1.7,0,7.29-1.46,8.66-.25.25-.82.5-1,.39a2.29,2.29,0,0,1-.9-1.08,3,3,0,0,1-.14-1.2c.05-2.44.08-4.88.19-7.31A17,17,0,0,1,454.52,460.39Z"/><path d="M474.31,410.87a5.6,5.6,0,0,1,1.9,3.59c.1,1.93.35,3.85.35,5.78a6.52,6.52,0,0,1-.71,2.6c-.16.33-.8.54-1.24.58-.17,0-.56-.57-.58-.9q-.21-3.36-.27-6.72c0-1.22.07-2.45.15-3.67A7,7,0,0,1,474.31,410.87Z"/><path d="M454.61,422.76a6.64,6.64,0,0,1,2.9,3.38c.71,1.77,1.26,3.62,1.85,5.44.3.92-.27,1.56-1.27,1.52a1.85,1.85,0,0,1-1.75-1,8.11,8.11,0,0,1-.68-1.68q-.74-3.26-1.36-6.52C454.24,423.65,454.44,423.34,454.61,422.76Z"/><path d="M470.17,437.26c2.27,3.72,1.76,7.08.24,10.42a2.79,2.79,0,0,1-1.07,1c-.21.13-.58,0-.86,0C468,446.54,468.49,443.45,470.17,437.26Z"/><path d="M465.11,479.44a3.9,3.9,0,0,1,.93,5.25,19.64,19.64,0,0,1-2.23,3.24,1.21,1.21,0,0,1-1.11.1c-.31-.14-.73-.66-.67-.89C462.76,484.51,463.35,481.81,465.11,479.44Z"/><path d="M447.9,426.13a4.91,4.91,0,0,1,.88.8,21.64,21.64,0,0,1,3.08,8.84.84.84,0,0,1-.13.58,1.36,1.36,0,0,1-.66.58.93.93,0,0,1-.79-.26,3.56,3.56,0,0,1-.75-1.32c-.68-2.86-1.7-5.66-1.91-8.62C447.61,426.58,447.76,426.41,447.9,426.13Z"/><path d="M453.51,481a2,2,0,0,1,1.54,1.8,12,12,0,0,1-.19,3.28c-.06.33-.72.71-1.15.78s-.9-.43-.94-1C452.65,484.23,452.4,482.51,453.51,481Z"/><path d="M470.32,465.67a6,6,0,0,1,.11,4.72c-.5,1.59-.75,3.4-2.43,4.36a5.25,5.25,0,0,1,.37-2.94c.29-1,.53-1.95.84-2.92A27.81,27.81,0,0,1,470.32,465.67Z"/></g></g></svg>