<svg id="Layer_1" data-name="Layer 1" xmlns="http://www.w3.org/2000/svg" viewBox="10 10 54 54"><defs><style>.cls-1{fill:#fff;}</style></defs><g id="Group_2471" data-name="Group 2471"><g id="Group_2470" data-name="Group 2470"><path id="Path_5815" data-name="Path 5815" class="cls-1" d="M50.21,26.67v-17a1.6,1.6,0,0,0-1.6-1.59H23.12a1.59,1.59,0,0,0-1.59,1.59v17a1.58,1.58,0,0,0,.63,1.27l9.73,7.39a13.85,13.85,0,1,0,8,0l9.73-7.39A1.59,1.59,0,0,0,50.21,26.67ZM28,28.37l-3.29-2.48V11.27H28ZM46.54,48.61A10.69,10.69,0,1,1,35.86,37.92,10.68,10.68,0,0,1,46.54,48.61Zm-6-17.82-4.68,3.56-4.69-3.56V11.27h9.36ZM47,25.89l-3.29,2.49V11.29H47Z"/></g></g></svg>
