<svg id="Layer_1" data-name="Layer 1" xmlns="http://www.w3.org/2000/svg" viewBox="10 10 54 54"><defs><style>.cls-1,.cls-2{fill:#fff;}.cls-2{stroke:#fff;stroke-width:0.5px;}</style></defs><g id="menu"><path id="Path_5809" data-name="Path 5809" class="cls-1" d="M24.7,44.14a1.23,1.23,0,0,0,1.23-1.23V36.76h1.23a3.69,3.69,0,0,0,3.69-3.69V31.19a10.15,10.15,0,0,0-5.6-9.06,1.24,1.24,0,0,0-1.65.55,1.17,1.17,0,0,0-.13.55V42.9a1.23,1.23,0,0,0,1.22,1.24Zm1.23-18.58a7.66,7.66,0,0,1,2.46,5.63v1.88a1.24,1.24,0,0,1-1.24,1.23H25.92Z"/><path id="Path_5810" data-name="Path 5810" class="cls-1" d="M35.76,34.11v8.8a1.23,1.23,0,1,0,2.46.11V34.11a6.05,6.05,0,0,0,3.69-5.95,5,5,0,1,0-9.83,0A6,6,0,0,0,35.76,34.11ZM37,24.47c1.34,0,2.46,1.69,2.46,3.69S38.32,31.84,37,31.84s-2.46-1.69-2.46-3.68,1.13-3.7,2.46-3.7Z"/><path id="Path_5811" data-name="Path 5811" class="cls-2" d="M24.69,56.52H54.2a1.23,1.23,0,0,0,1.23-1.23h0V47.83A1.23,1.23,0,0,0,54.2,46.6H48.06V15.78a1.24,1.24,0,0,0-1.23-1.24H17.32a1.23,1.23,0,0,0-1.23,1.23h0V47.83A8.66,8.66,0,0,0,24.69,56.52ZM53,49.06v4.87a6.21,6.21,0,0,1-4.8-4.87ZM18.55,17h27V47.83a8.69,8.69,0,0,0,2.62,6.23H24.69a6.19,6.19,0,0,1-6.14-6.23Z"/><path id="Path_5812" data-name="Path 5812" class="cls-1" d="M24.7,49.06H39.45a1.23,1.23,0,1,0,.11-2.46H24.7a1.23,1.23,0,1,0-.11,2.46Z"/></g></svg>
