<?xml version="1.0" encoding="utf-8"?>
<!-- Generator: Adobe Illustrator 22.0.0, SVG Export Plug-In . SVG Version: 6.00 Build 0)  -->
<svg version="1.1" id="Layer_1" xmlns="http://www.w3.org/2000/svg" xmlns:xlink="http://www.w3.org/1999/xlink" x="0px" y="0px"
	 viewBox="0 0 512 512" style="enable-background:new 0 0 512 512;" xml:space="preserve">
<style type="text/css">
	.st0{fill:#FFFFFF;}
</style>
<g id="Menu_button" transform="translate(-309 -39)">
	<g id="Group_1181" transform="translate(51 -691)">
		<path id="Rectangle_172" class="st0" d="M287.8,772h452.3c15.8,0,28.6,12.8,28.6,28.6v6.7c0,15.8-12.8,28.6-28.6,28.6H287.8
			c-15.8,0-28.6-12.8-28.6-28.6v-6.7C259.2,784.8,272,772,287.8,772z"/>
		<path id="Rectangle_173" class="st0" d="M287.8,954h452.3c15.8,0,28.6,12.8,28.6,28.6v6.7c0,15.8-12.8,28.6-28.6,28.6H287.8
			c-15.8,0-28.6-12.8-28.6-28.6v-6.7C259.2,966.8,272,954,287.8,954z"/>
		<path id="Rectangle_1875" class="st0" d="M287.8,1136h197.5c15.8,0,28.6,12.8,28.6,28.6v6.7c0,15.8-12.8,28.6-28.6,28.6H287.8
			c-15.8,0-28.6-12.8-28.6-28.6v-6.7C259.2,1148.8,272,1136,287.8,1136z"/>
	</g>
</g>
</svg>
