<?xml version="1.0" encoding="utf-8"?>
<!-- Generator: Adobe Illustrator 22.0.0, SVG Export Plug-In . SVG Version: 6.00 Build 0)  -->
<svg version="1.1" id="Layer_1" xmlns="http://www.w3.org/2000/svg" xmlns:xlink="http://www.w3.org/1999/xlink" x="0px" y="0px"
	 viewBox="0 0 512 512" style="enable-background:new 0 0 512 512;" xml:space="preserve">
<style type="text/css">
	.st0{fill:#FFFFFF;}
	.st1{opacity:0.5;fill:#FFFFFF;enable-background:new    ;}
</style>
<g id="Group_1257" transform="translate(-1 108)">
	<path id="Path_2157" class="st0" d="M461.8,403.9H52.4c-13.3,0.9-24.9-9.2-25.8-22.5c-0.1-1.1-0.1-2.2,0-3.3v-25.8
		c0.4-84.6,69-153,153.6-153.2h153.6c84.7,0.3,153.3,68.9,153.6,153.6v25.8c0.7,13.3-9.5,24.7-22.9,25.4
		C463.6,404,462.7,404,461.8,403.9z M77.8,352.7h358.4c-0.2-56.5-45.9-102.2-102.4-102.4H180.2C123.7,250.5,78,296.2,77.8,352.7z"/>
	<path id="Path_2158" class="st1" d="M258-108c-56.5,0.2-102.2,45.9-102.4,102.4v51.2c0,56.6,45.8,102.4,102.4,102.4
		s102.4-45.8,102.4-102.4c0,0,0,0,0,0V-5.6C360.2-62.1,314.4-107.8,258-108z M313.8,33.8c2.4,30.8-20.6,57.6-51.3,60.1
		c-30.8,2.4-57.6-20.6-60.1-51.3c-0.2-2.9-0.2-5.8,0-8.8V6.1C200-24.7,223-51.6,253.7-54c30.8-2.4,57.6,20.6,60.1,51.3
		c0.2,2.9,0.2,5.8,0,8.8V33.8z"/>
</g>
</svg>
