<?xml version="1.0" encoding="utf-8"?>
<!-- Generator: Adobe Illustrator 22.0.0, SVG Export Plug-In . SVG Version: 6.00 Build 0)  -->
<svg version="1.1" id="Layer_1" xmlns="http://www.w3.org/2000/svg" xmlns:xlink="http://www.w3.org/1999/xlink" x="0px" y="0px"
	 viewBox="0 0 512 512" style="enable-background:new 0 0 512 512;" xml:space="preserve">
<style type="text/css">
	.st0{fill:#FFFFFF;}
</style>
<g id="personal-data">
	<path id="Path_5459" class="st0" d="M103.1,239.5h-16v-122l6.9-1c26.8-4,53.1-11.2,78.3-21.5l5.9,14.8
		c-24.2,9.9-49.4,17.1-75.1,21.5L103.1,239.5z"/>
	<path id="Path_5460" class="st0" d="M255.6,467.5l-72-47.9l8.9-13.3l63,42l63.1-42l8.8,13.3L255.6,467.5z"/>
	<path id="Path_5461" class="st0" d="M408.4,124.5h16v115.1h-16V124.5z"/>
	<path id="Path_5462" class="st0" d="M346,63.7c-31.1-13.2-59.9-31.6-85-54.2l-5.4-4.8l-5.4,4.8C199.6,54.8,135.4,82.1,67.7,87.2
		l-12.1,1v151.4c-0.1,83,41.2,160.6,110.1,206.8l89.9,59.9l89.8-59.9c69.2-46,110.8-123.7,110.7-206.8V88.1l-12.1-0.9
		C410.1,84.9,377,76.9,346,63.7z M440,239.5c-0.1,77.7-38.9,150.2-103.6,193.2l-80.8,53.7l-80.9-53.7
		c-64.7-43-103.5-115.6-103.5-193.2V103.1c68.1-5.7,132.6-32.7,184.4-77.3c25.1,21.7,53.5,39.3,84.1,52.3
		c31.9,13.6,65.7,21.9,100.3,24.7L440,239.5z"/>
	<path id="Path_5463" class="st0" d="M127.2,255.9c-0.3,71.1,57.1,129.1,128.3,129.4c71.1,0.3,129.1-57.1,129.4-128.3
		s-57.1-129.1-128.3-129.4c-0.2,0-0.4,0-0.5,0l0,0C185.1,127.6,127.5,185,127.2,255.9z M335.7,334.4
		c-43.1,44.3-113.9,45.2-158.2,2.1l-2-2.1v-9.8c0-3.7,2.5-6.9,6-7.8l44.6-10.7c4.5,7.8,12.5,13,21.5,13.8v32.2h16.1v-32.2
		c9-0.9,17-6,21.5-13.8l44.6,10.7c3.6,0.9,6,4.2,6,7.8L335.7,334.4z M263.5,264h-16.1l-16.1-12.2v-35.9h32.2v-16.1h-44.1
		c6.3-10,17.3-16,29.1-16h23.1c4.4,0,8.1,3.6,8.1,8.1l0,0v59.9L263.5,264z M271.6,278v17.6c0,1.5-1.4,8.3-16,8.3s-16-6.9-16.1-8.1
		v-18l2.6,2h26.8L271.6,278z M368.2,255.9c0,21.3-6.1,42.2-17.6,60.2c-2.9-7.5-9.4-13.1-17.3-14.8l-45.7-11.5v-23.9l8.1-6.1v-67.8
		c0-13.3-10.8-24-24-24l0,0h-23.1c-23.1-0.1-43.3,15.6-48.8,38.1l-2.5,10h18v43.8l8.1,6.1v24l-45.9,11.4
		c-7.6,1.9-13.8,7.5-16.6,14.8c-33.2-52.3-17.8-121.6,34.5-154.9s121.6-17.8,154.9,34.5c11.4,18,17.5,38.9,17.5,60.2L368.2,255.9z"
		/>
</g>
</svg>
