<svg id="Layer_1" data-name="Layer 1" xmlns="http://www.w3.org/2000/svg" viewBox="0 0 71.52 71.52"><defs><style>.cls-1{fill:#fff;}</style></defs><g id="info"><path id="Path_5464" data-name="Path 5464" class="cls-1" d="M35.76,14.05A21.92,21.92,0,1,0,57.67,36h0A21.94,21.94,0,0,0,35.76,14.05Zm0,42.15A20.23,20.23,0,1,1,56,36h0A20.27,20.27,0,0,1,35.76,56.2Z"/><path id="Path_5465" data-name="Path 5465" class="cls-1" d="M35.76,45.24a.84.84,0,0,0-.85.84h0v1.68a.85.85,0,1,0,1.69,0V46.08a.84.84,0,0,0-.84-.84Z"/><path id="Path_5466" data-name="Path 5466" class="cls-1" d="M35.85,21.64h-.1A6.73,6.73,0,0,0,29,28.37h0a.84.84,0,1,0,1.68,0,5.06,5.06,0,0,1,5.06-5.05h.07a5.14,5.14,0,0,1,5,5,5,5,0,0,1-2.33,4.33,8,8,0,0,0-3.58,6.83v2.4a.85.85,0,0,0,1.69,0v-2.4A6.45,6.45,0,0,1,39.4,34a6.7,6.7,0,0,0,3.09-5.76A6.8,6.8,0,0,0,35.85,21.64Z"/></g></svg>