<?xml version="1.0" encoding="utf-8"?>
<!-- Generator: Adobe Illustrator 22.0.0, SVG Export Plug-In . SVG Version: 6.00 Build 0)  -->
<svg version="1.1" id="Layer_1" xmlns="http://www.w3.org/2000/svg" xmlns:xlink="http://www.w3.org/1999/xlink" x="0px" y="0px"
	 viewBox="0 0 512 512" style="enable-background:new 0 0 512 512;" xml:space="preserve">
<style type="text/css">
	.st0{fill:#FFFFFF;}
</style>
<g id="Group_1326" transform="translate(-1 -0.601)">
	<g id="Group_1319" transform="translate(270 24)">
		<g id="Group_1318">
			<path id="Path_2229" class="st0" d="M-115.3-19h-122.9c-17,0-30.7,13.8-30.7,30.7v122.9c0,17,13.7,30.7,30.7,30.7
				s30.7-13.7,30.7-30.7V42.4h92.1c17,0,30.7-13.7,30.7-30.7C-84.6-5.3-98.4-19-115.3-19z"/>
		</g>
	</g>
	<g id="Group_1320" transform="translate(281.799 35.49)">
		<path id="Path_2230" class="st0" d="M200.5,288.5c-17,0-30.7,13.8-30.7,30.7v92.1H77.6c-17,0-30.7,13.7-30.7,30.7
			c0,17,13.7,30.7,30.7,30.7h122.9c17,0,30.7-13.8,30.7-30.7V319.1C231.2,302.2,217.4,288.5,200.5,288.5z"/>
	</g>
	<g id="Group_1323" transform="translate(281.799 24)">
		<g id="Group_1322">
			<path id="Path_2231" class="st0" d="M200.5-19H77.6c-17,0-30.7,13.8-30.7,30.7c0,16.9,13.7,30.6,30.7,30.7h92.1v92.1
				c0,17,13.7,30.7,30.7,30.7c17,0,30.7-13.7,30.7-30.7V11.7C231.1-5.3,217.4-19,200.5-19z"/>
		</g>
	</g>
	<g id="Group_1325" transform="translate(270 35.49)">
		<g id="Group_1324">
			<path id="Path_2232" class="st0" d="M-115.3,411.3h-92.1v-92.1c0-17-13.7-30.7-30.7-30.7s-30.7,13.7-30.7,30.7v122.9
				c0,17,13.8,30.7,30.7,30.7h122.9c17,0,30.7-13.7,30.7-30.7C-84.6,425.1-98.4,411.3-115.3,411.3L-115.3,411.3z"/>
		</g>
	</g>
</g>
</svg>
