<svg xmlns="http://www.w3.org/2000/svg" viewBox="0 0 12.32 12.34"><defs><style>.cls-1{fill:#fff;}.cls-2{opacity:0.4;}</style></defs><title>Asset 2</title><g id="Layer_2" data-name="Layer 2"><g id="Layer_1-2" data-name="Layer 1"><g id="high-five"><g id="Group_1938" data-name="Group 1938"><g id="Group_1937" data-name="Group 1937"><path id="Path_5413" data-name="Path 5413" class="cls-1" d="M10.2,11.92a.25.25,0,0,0-.34,0,.24.24,0,0,0,.34.34.21.21,0,0,0,.07-.17A.28.28,0,0,0,10.2,11.92Z"/></g></g><g id="Group_1940" data-name="Group 1940"><g id="Group_1939" data-name="Group 1939"><path id="Path_5414" data-name="Path 5414" class="cls-1" d="M12.16,4a.94.94,0,0,0-1.61.09V1.59A.94.94,0,0,0,9.62.65a1,1,0,0,0-.47.13A.93.93,0,0,0,8.07,0a.91.91,0,0,0-.76.76A.94.94,0,0,0,6,1.12a1.29,1.29,0,0,0-.12.38.93.93,0,0,0-1.27.36.88.88,0,0,0-.11.45.23.23,0,0,0,.24.24A.24.24,0,0,0,5,2.31a.45.45,0,0,1,.46-.44.47.47,0,0,1,.44.4v.64a.24.24,0,1,0,.48,0V1.59a.45.45,0,0,1,.46-.44.44.44,0,0,1,.44.39v2a.24.24,0,1,0,.48,0V.93A.46.46,0,0,1,8.18.44a.45.45,0,0,1,.49.41V5a.24.24,0,0,0,.24.24A.24.24,0,0,0,9.15,5V1.54a.46.46,0,0,1,.51-.39.45.45,0,0,1,.39.44V5.15a.35.35,0,0,0,.35.34.34.34,0,0,0,.33-.26l.19-.76a.47.47,0,0,1,.55-.36.48.48,0,0,1,.36.56h0l-.36,1.84a3.18,3.18,0,0,1-.87,1.62l-.75.75a.23.23,0,0,0-.07.17V11.2a.24.24,0,0,0,.48,0v-2l.68-.67a3.71,3.71,0,0,0,1-1.88l.36-1.84A.88.88,0,0,0,12.16,4Z"/></g></g><g id="Group_1942" data-name="Group 1942"><g id="Group_1941" data-name="Group 1941"><path id="Path_5415" data-name="Path 5415" class="cls-1" d="M7.14,7.44a.24.24,0,0,0-.24.24v.71A2.92,2.92,0,0,1,6,10.49l-.45.45a.24.24,0,0,0-.07.18v1a.23.23,0,0,0,.24.24A.24.24,0,0,0,6,12.1H6v-.88l.38-.39a3.43,3.43,0,0,0,1-2.44v-.7a.25.25,0,0,0-.24-.25Z"/></g></g><g id="Group_1944" data-name="Group 1944"><g id="Group_1943" data-name="Group 1943"><path id="Path_5416" data-name="Path 5416" class="cls-1" d="M7.31,6.66a.25.25,0,0,0-.34,0A.23.23,0,0,0,7,7a.25.25,0,0,0,.34,0,.23.23,0,0,0,.07-.17A.26.26,0,0,0,7.31,6.66Z"/></g></g><g id="Group_1946" data-name="Group 1946"><g id="Group_1945" data-name="Group 1945"><path id="Path_5417" data-name="Path 5417" class="cls-1" d="M6.49,3.87a.79.79,0,0,0-.42.1.89.89,0,0,0-1-.78.75.75,0,0,0-.32.1A.9.9,0,0,0,3,3.29a.88.88,0,0,0-1.21.36.91.91,0,0,0-.11.42V6.42A.9.9,0,0,0,.75,6a.92.92,0,0,0-.74,1v0L.36,8.81a3.38,3.38,0,0,0,1,1.77l.63.64v.88a.24.24,0,0,0,.24.24.24.24,0,0,0,.24-.24h0v-1A.21.21,0,0,0,2.35,11l-.7-.7A3,3,0,0,1,.83,8.71L.49,7a.43.43,0,0,1,.35-.5.44.44,0,0,1,.49.31l.17.72a.34.34,0,0,0,.67-.08V4.07A.41.41,0,0,1,3,4V5.8A.24.24,0,0,0,3.23,6h0a.24.24,0,0,0,.24-.24V3.46a.42.42,0,0,1,.83,0V5.8A.24.24,0,0,0,4.54,6h0a.24.24,0,0,0,.24-.24V4a.41.41,0,0,1,.82,0V5.8A.24.24,0,0,0,5.84,6h0a.24.24,0,0,0,.24-.24V4.71a.42.42,0,0,1,.45-.37.41.41,0,0,1,.37.42V5.88a.24.24,0,0,0,.24.24.24.24,0,0,0,.25-.24h0V4.76A.91.91,0,0,0,6.49,3.87Z"/></g></g><g id="Group_1948" data-name="Group 1948" class="cls-2"><g id="Group_1947" data-name="Group 1947"><path id="Path_5418" data-name="Path 5418" class="cls-1" d="M3.59,1.34,2.32.08A.25.25,0,0,0,2,.07.26.26,0,0,0,2,.42H2L3.24,1.69a.26.26,0,0,0,.35,0,.25.25,0,0,0,0-.34h0Z"/></g></g><g id="Group_1950" data-name="Group 1950" class="cls-2"><g id="Group_1949" data-name="Group 1949"><path id="Path_5419" data-name="Path 5419" class="cls-1" d="M2.73,2H2.15a.24.24,0,0,0-.25.24.25.25,0,0,0,.25.24h.58A.24.24,0,0,0,3,2.23.23.23,0,0,0,2.73,2Z"/></g></g><g id="Group_1952" data-name="Group 1952" class="cls-2"><g id="Group_1951" data-name="Group 1951"><path id="Path_5420" data-name="Path 5420" class="cls-1" d="M4.12,0a.24.24,0,0,0-.24.24V.85a.24.24,0,0,0,.48,0V.24A.24.24,0,0,0,4.12,0Z"/></g></g></g></g></g></svg>