<svg id="Layer_1" data-name="Layer 1" xmlns="http://www.w3.org/2000/svg" viewBox="10 10 54 54"><defs><style>.cls-1,.cls-2{fill:#fff;}.cls-2{stroke:#fff;stroke-width:0.4px;}</style></defs><g id="paper-bag"><path id="Path_5449" data-name="Path 5449" class="cls-1" d="M25.82,16.46a.66.66,0,0,0-.94.13h0l-2.5,3.31a.66.66,0,0,0,.18.93.68.68,0,0,0,.9-.12L26,17.4a.66.66,0,0,0-.13-.94Z"/><path id="Path_5450" data-name="Path 5450" class="cls-1" d="M27.32,20.91a.67.67,0,0,0-.95.13h0l-2.49,3.31a.68.68,0,0,0,.18.94.67.67,0,0,0,.89-.13l2.5-3.31A.68.68,0,0,0,27.32,20.91Z"/><path id="Path_5451" data-name="Path 5451" class="cls-2" d="M52.45,58.43a.63.63,0,0,0,.12-.37V26.28c0-.57-.65-.75-1.09-.54a4.15,4.15,0,0,0-3-3.19,2.49,2.49,0,0,0-2-2.5,3.71,3.71,0,0,0-.16-1.48.68.68,0,0,0-.88-.38A.67.67,0,0,0,45,19a2.37,2.37,0,0,1,0,1.51.68.68,0,0,0,.42.87.69.69,0,0,0,.35,0,1.11,1.11,0,0,1,1.31.88.88.88,0,0,1,0,.17,4.17,4.17,0,0,0-2.72,1.32,4.12,4.12,0,0,0-7.89,2.32l-.71.36-1.48-.75a.66.66,0,0,0-.61,0l-1.49.75-.44-.24-1.64-4.88c.2-1.29.9-2.45,2.44-2.29a.68.68,0,0,0,.73-.62.62.62,0,0,0,0-.23,1.32,1.32,0,0,1,2.53-.71.71.71,0,0,0,1.07.51,2.25,2.25,0,0,1,3,.37.87.87,0,0,0,1.23-.08l0,0a2.26,2.26,0,0,1,1.74-.83.68.68,0,0,0,.63-.72.67.67,0,0,0-.64-.63,3.65,3.65,0,0,0-2.42.94,3.64,3.64,0,0,0-3.55-.53,2.71,2.71,0,0,0-3-1.19,2.64,2.64,0,0,0-1.89,2.4,3.63,3.63,0,0,0-2.49,1.51l-1.09-3.24c-2-5.87-11.1-2.82-9.12,3.07l2.45,7.33-.17.09L20,25.68a.66.66,0,0,0-.9.29.68.68,0,0,0-.08.31V40.21a.68.68,0,0,0,1.35,0V27.38l.81.4a.66.66,0,0,0,.61,0L23.3,27l1.49.74a.64.64,0,0,0,.6,0L26.88,27l1.48.74a.66.66,0,0,0,.61,0L30.45,27l1.49.74a.66.66,0,0,0,.61,0L34,27l1.48.74a.66.66,0,0,0,.61,0L37.61,27l1.48.74a.66.66,0,0,0,.61,0L41.18,27l1.48.74a.66.66,0,0,0,.61,0l.81-.4v30H20.39V43.8a.68.68,0,0,0-1.35,0V58.06a.68.68,0,0,0,.67.68H51.89A.69.69,0,0,0,52.45,58.43Zm-23.8-32-1.48-.75a.66.66,0,0,0-.61,0l-1.49.75-1.48-.75a.66.66,0,0,0-.61,0l-.09.05L20.5,18.6a3.46,3.46,0,0,1,6.56-2.21l3.11,9.27,0,0Zm16.77.94.81.41a.7.7,0,0,0,.6,0l.8-.4V54.21l-2.21,2.22v-29Zm3.58,0,.72.36a.68.68,0,0,0,.69,0l.81-.4V56.43L49,54.21V27.38Zm-1.56-3.61a2.81,2.81,0,0,1,2.76,2.6l-.1.05-1.41-.71a.7.7,0,0,0-.74,0l-1.42.71c-.51-.26-1.65-.8-1.67-.81h0a2.78,2.78,0,0,1,2.6-1.83Zm-6,1.91a.66.66,0,0,0-.61,0l-1.48.75-1.49-.75-.09,0a2.78,2.78,0,0,1,5.48-.88,2.75,2.75,0,0,1-.23,1.62l-.1,0Zm6.85,29.75,2,1.95h-3.9Z"/><path id="Path_5452" data-name="Path 5452" class="cls-1" d="M25.08,43.34a13.28,13.28,0,0,0,6.38,9.88.66.66,0,0,0,.68,0c8.92-5,8.1-15.75.07-20.69a.7.7,0,0,0-.71,0A12.8,12.8,0,0,0,25.08,43.34Zm2.41-4.59,3.68,3.09v4.25l-4.72-4A8.71,8.71,0,0,1,27.49,38.75Zm9.45,1.84a8.52,8.52,0,0,1,.31,1.66l-4.73,3.87V41.84l3.71-3A9.57,9.57,0,0,1,37,40.6Zm-10.3,4.19a8,8,0,0,1-.16-.85l4.68,3.92v3.46a13.05,13.05,0,0,1-4.51-6.53Zm4.54-10.33v5.63l-3-2.5a15.3,15.3,0,0,1,3-3.13Zm3.24,15.22a14.22,14.22,0,0,1-1.92,1.72V47.86L37.2,44a10,10,0,0,1-2.78,5.66Zm1.11-12-3,2.45V34.45a14.9,14.9,0,0,1,3,3.19Z"/></g></svg>
