<?xml version="1.0" encoding="utf-8"?>
<!-- Generator: Adobe Illustrator 22.0.0, SVG Export Plug-In . SVG Version: 6.00 Build 0)  -->
<svg version="1.1" id="Layer_1" xmlns="http://www.w3.org/2000/svg" xmlns:xlink="http://www.w3.org/1999/xlink" x="0px" y="0px"
	 viewBox="0 0 512 512" style="enable-background:new 0 0 512 512;" xml:space="preserve">
<style type="text/css">
	.st0{fill:#FFFFFF;}
</style>
<g id="Accept">
	<path id="Path_5446" class="st0" d="M104.6,468.9H64c-4.5,0-8.2,3.7-8.2,8.2c0,4.5,3.7,8.2,8.2,8.2h40.5c4.5,0,8.2-3.7,8.2-8.2
		C112.8,472.6,109.1,468.9,104.6,468.9z"/>
	<path id="Path_5447" class="st0" d="M137.3,468.9h-7.6c-4.5,0-8.2,3.7-8.2,8.2c0,4.5,3.7,8.2,8.2,8.2h8.1c4.5,0,8.2-3.7,8.2-8.2
		c0-4.5-3.7-8.2-8.2-8.2H137.3z"/>
	<path id="Path_5448" class="st0" d="M80,149.7h262c4.5,0,8.2-3.6,8.2-8.1l0,0v-32.9c-0.1-4.5-3.7-8.2-8.2-8.2H80
		c-4.5,0.1-8.1,3.7-8.1,8.2l0,0v32.9C71.9,146.1,75.6,149.7,80,149.7z M88.2,116.8h245.5v16.3H88.2V116.8z"/>
	<path id="Path_5449" class="st0" d="M80,215.2h262c4.5-0.1,8.2-3.7,8.2-8.2l0,0v-32.9c-0.1-4.5-3.7-8.1-8.2-8.1H80
		c-4.5,0-8.1,3.6-8.1,8.1l0,0V207C71.9,211.5,75.5,215.2,80,215.2z M88.2,182.4h245.5v16.4H88.2V182.4z"/>
	<path id="Path_5450" class="st0" d="M80,280.7h262c4.5,0,8.2-3.7,8.2-8.2l0,0v-32.9c0-4.5-3.7-8.2-8.2-8.2H80
		c-4.5,0-8.1,3.6-8.1,8.1c0,0,0,0.1,0,0.1l0,0v32.9c-0.1,4.5,3.5,8.2,8,8.2C80,280.7,80,280.7,80,280.7z M88.2,247.8h245.5V264H88.2
		V247.8z"/>
	<path id="Path_5451" class="st0" d="M235.5,296.9H80c-4.5,0.5-7.7,4.6-7.2,9.1c0.4,3.8,3.4,6.8,7.2,7.2h155.5
		c4.5,0.5,8.6-2.7,9.1-7.2s-2.7-8.6-7.2-9.1C236.8,296.8,236.1,296.8,235.5,296.9z"/>
	<path id="Path_5452" class="st0" d="M186.4,321.6H80c-4.5,0.5-7.7,4.6-7.2,9.1c0.4,3.8,3.4,6.8,7.2,7.2h106.4
		c4.5,0.5,8.6-2.7,9.1-7.2s-2.7-8.6-7.2-9.1C187.7,321.6,187.1,321.6,186.4,321.6z"/>
	<path id="Path_5453" class="st0" d="M96.9,362.6c4.5-0.5,7.7-4.6,7.2-9.1c-0.4-3.8-3.4-6.8-7.2-7.2H80.5c-4.5-0.5-8.6,2.7-9.1,7.2
		c-0.5,4.5,2.7,8.6,7.2,9.1c0.6,0.1,1.3,0.1,1.9,0H96.9z"/>
	<path id="Path_5454" class="st0" d="M129.8,362.6c4.5-0.5,7.7-4.6,7.2-9.1c-0.4-3.8-3.4-6.8-7.2-7.2H121c-4.5-0.5-8.6,2.7-9.1,7.2
		c-0.5,4.5,2.7,8.6,7.2,9.1c0.6,0.1,1.3,0.1,1.9,0H129.8z"/>
	<path id="Path_5455" class="st0" d="M481.1,387c-0.2-51-39.2-93.4-90-97.8V76.1c0-2.2-0.9-4.2-2.4-5.8L322.9,4.5
		c-1.5-1.5-3.6-2.4-5.8-2.4h-278c-4.5,0-8.2,3.6-8.2,8.1v491.4c0.1,4.5,3.7,8.2,8.2,8.2h343.7c4.5-0.1,8.2-3.7,8.2-8.2v-16.8
		C441.9,480.4,480.9,438,481.1,387z M325.6,30.4l37.6,37.5h-37.6V30.4z M47.4,493.4V18.8h261.9V76c0,4.5,3.7,8.2,8.2,8.2h57.2v204.9
		c-54.1,6.5-92.6,55.7-86.1,109.7c5.4,45.1,41,80.6,86.1,86.1v8.4L47.4,493.4z M382.9,468.9c-45.2,0-81.8-36.6-81.8-81.8
		s36.6-81.8,81.8-81.8s81.8,36.6,81.8,81.8l0,0c0.1,45.1-36.5,81.8-81.6,81.8C383,468.9,383,468.9,382.9,468.9z"/>
	<path id="Path_5456" class="st0" d="M446,356.7c-3.2-3.2-8.4-3.2-11.6,0l-52.6,52.8l-35.4-21.3c-3.6-2.8-8.7-2.2-11.5,1.4
		c-2.8,3.6-2.2,8.7,1.4,11.5c0.4,0.3,0.7,0.5,1.1,0.7l0,0l40.9,24.5c3.2,1.9,7.4,1.4,10.1-1.2l57.2-57.2c3.2-3.2,3.2-8.4,0-11.6
		L446,356.7z"/>
</g>
</svg>
