<svg xmlns="http://www.w3.org/2000/svg" viewBox="0 0 345.1 340.97"><defs><style>.cls-1{fill:#121011;}.cls-2{fill:#221f20;}</style></defs><g id="Layer_2" data-name="Layer 2"><g id="Layer_1-2" data-name="Layer 1"><g id="Layer_2-2" data-name="Layer 2"><g id="Layer_1-3" data-name="Layer 1"><path id="Path_5563" data-name="Path 5563" class="cls-1" d="M203.94,314a2.24,2.24,0,0,0-1.53.12,4.18,4.18,0,0,1-4.1-.43c.06-.33.11-.65.14-1s-.1-.79-.07-1.18a3.85,3.85,0,0,1,.29-1.12c.14-.35.64-.51.57-1.09-.42-.06-.84-.1-1.25-.12a13.61,13.61,0,0,1-2.92-.32,14.25,14.25,0,0,0-3.12-.32,8.23,8.23,0,0,1-4.44-1.34,15,15,0,0,1-1.32-.86,5.76,5.76,0,0,1-1.28-1.18,18.23,18.23,0,0,1-2.76-5.39,10.44,10.44,0,0,1-.35-4.27c.12-.91.19-1.82.27-2.7a6.11,6.11,0,0,0-1.66-1.74,68.8,68.8,0,0,1-8.12-7.43,3.57,3.57,0,0,1-.27-.28,2,2,0,0,0-2.47-.6,3.56,3.56,0,0,1-2.11.2,2.73,2.73,0,0,1-2.14-1.53,6.79,6.79,0,0,1-.83-3.59c0-.51.11-1,.16-1.52a1.92,1.92,0,0,0-.39-.51,60,60,0,0,1-6.68-5.76c-1.05-1-2.23-1.82-3.34-2.73s-2.22-1.84-3.32-2.76c-.45-.36-.92-.71-1.32-1-.46.1-.46.38-.46.64a4.47,4.47,0,0,0,1.23,3c1.44,1.68,3,3.25,4.41,5,1,1.28,2.09,2.53,3.1,3.79a3.62,3.62,0,0,1,.92,2.11,2.49,2.49,0,0,0,.51,1.46,8.87,8.87,0,0,1,1.35,3.43c.18.63.34,1.26.58,1.87a11.27,11.27,0,0,1,1.06,4.35,4,4,0,0,0,.44,1.68,8,8,0,0,1,.66,3,10.19,10.19,0,0,0,.07,1.56,6.06,6.06,0,0,1-.08,2.9,9.16,9.16,0,0,0-.25,2.5c0,.79-.56,1.32-.74,2s.07,1.52-.23,2.11a24.7,24.7,0,0,0-1.4,4.68,15.1,15.1,0,0,0-.81,2.79,2.32,2.32,0,0,1-.36.91c-1.21,2-2,4.24-3,6.36a15,15,0,0,1-1.68,2.62,5.6,5.6,0,0,0-1.19,2.81c.22.38.51.88.82,1.36.62.95.41,1.48-.65,1.56a5.9,5.9,0,0,1-1.19.06,3.61,3.61,0,0,0-3.46,1.77c-.51.61-1,1.2-1.49,1.81a11.73,11.73,0,0,1-1.92,1.6,11.34,11.34,0,0,1-1.93,1.28,2.79,2.79,0,0,0-.53.24c-.39.33-.69.81-1.13,1a6.65,6.65,0,0,1-1.52.27,2.77,2.77,0,0,0-.91.37,8.49,8.49,0,0,1-2.53,1,5.2,5.2,0,0,0-2.27,1.05,7.73,7.73,0,0,1-3.52,1.56c-.44.14-.9.19-1.34.31a7,7,0,0,1-4.82.21,10.88,10.88,0,0,0-2.49-.21,44.63,44.63,0,0,1-7-.33,6,6,0,0,1-1.84-.61,14.19,14.19,0,0,0-4.43-1.52,7.69,7.69,0,0,1-2.15-.91,6.29,6.29,0,0,0-3.1-1.09,1.63,1.63,0,0,1-.75-.22,10,10,0,0,0-2.82-.79,6.7,6.7,0,0,1-2.54-1c-1.15-.74-2.41-1.29-3.62-1.94a4.58,4.58,0,0,1-1-.55A17.76,17.76,0,0,0,90,329.3a2.56,2.56,0,0,0-1.07-.39,28.17,28.17,0,0,0-3.56-.08c-2.61.17-5.22.51-7.82.64a43.93,43.93,0,0,1-7.25.36c-1.29-.16-2.6-.28-3.9-.36a7.26,7.26,0,0,0-2.13.13,18.2,18.2,0,0,1-4.88.45,8.88,8.88,0,0,0-2.72.3,8.49,8.49,0,0,1-1.94.22c-1.05.08-2.1.1-3.14.19a2.64,2.64,0,0,1-1.69-.37,7.1,7.1,0,0,0-2.53-1A2.4,2.4,0,0,1,45.62,327c0-.51.08-1.05.12-1.56a59.21,59.21,0,0,1,.22-6.66,11.13,11.13,0,0,0,0-2.16c0-1.57,0-3.14.15-4.71a45,45,0,0,0,0-5.69,70.59,70.59,0,0,1,.28-8.23c.22-2.94.41-5.89.44-8.83,0-2.48-.2-5-.29-7.46,0-.91,0-1.83,0-2.75a30.64,30.64,0,0,0,0-3.32,32.75,32.75,0,0,1,0-6.64,43.68,43.68,0,0,0-.09-6.47,6.35,6.35,0,0,1-.08-1A40.47,40.47,0,0,0,46,253.3c-.05-.58,0-1.17,0-1.76a1.44,1.44,0,0,0-.08-.74.87.87,0,0,1,0-1.06,4.94,4.94,0,0,0,.37-1.26,1.46,1.46,0,0,1,2,0,.55.55,0,0,0,.77,0,.59.59,0,0,0,.13-.23c-.84-1.12-1.7-2.19-2.47-3.31a3.1,3.1,0,0,1-.55-1.44c-.14-1.52-.17-3-.26-4.5a5.07,5.07,0,0,1,1.21-3.64,16.64,16.64,0,0,1,1.3-1.47,19.32,19.32,0,0,1,5.94-4.1,8.5,8.5,0,0,1,1.31-.37c.32-.06.67,0,1-.08A6.9,6.9,0,0,1,62,230a1.2,1.2,0,0,0,.38.05c.37-.48,0-.9-.17-1.26a31.34,31.34,0,0,1-2-6c-.11-.45-.19-.89-.28-1.34-.29-1.48-.51-3-.9-4.42A11.33,11.33,0,0,1,60.36,208a5.2,5.2,0,0,1,3.18-2.13,1.62,1.62,0,0,1,1.53.26,8.58,8.58,0,0,0,2.27,1.12,3.53,3.53,0,0,1,1.82,1.43,9.33,9.33,0,0,0,2.37,2.6,9.26,9.26,0,0,1,.81.85,4.56,4.56,0,0,0,1.14,1,5.6,5.6,0,0,1,2.29,2.36,8.19,8.19,0,0,1,1.48,2.74,4.59,4.59,0,0,0,1,1.64c.38.52,1,1.09,1.38,1.66s.81,1.16,1.22,1.75c.36,0,.4-.24.36-.51l-.57-3.69a31,31,0,0,1-.13-6.87,11.62,11.62,0,0,1,2.18-5.86,4.9,4.9,0,0,1,.95-1c1.42-1.11,2-.91,2.42.81a22.34,22.34,0,0,1,.69,5.64c0,1.84.62,3.56.6,5.45.76-.2.75-.72.87-1.13A54.13,54.13,0,0,1,90.7,209a23.07,23.07,0,0,1,1.36-2.61,3.44,3.44,0,0,1,3.08-1.76,2.58,2.58,0,0,1,.33,2.08c-.24,1-.44,2-.65,3.08,0,.3-.06.61-.1,1.09,1.18-.66,2.17-1.3,3.23-1.79s2.07-.78,3.22-1.2a19.19,19.19,0,0,0,.84-3.5c.12-.51.19-1,.32-1.52a.93.93,0,0,1,1.12-.57,1.6,1.6,0,0,1,1.19,1.37,6.39,6.39,0,0,1-.13,2.54,6.08,6.08,0,0,0-.3,2c1.37,1,2.62,1.93,3.89,2.84a6.32,6.32,0,0,1,2.07,2.82c.25.59.5,1.2.76,1.8a7.87,7.87,0,0,0,1.18.31,6.94,6.94,0,0,1,6.09,5.58c.21.69.35,1.4.54,2.2l2.34-.82c1.2,1,1.4,1.3,1.92,3.32.61-.24,1.24-.43,1.82-.71a4.34,4.34,0,0,1,2.31-.27,1.53,1.53,0,0,1,1.45,1.37,10.26,10.26,0,0,1,.07,1.57c0,.37-.06.74-.11,1.11,1.15.26,1.52.11,1.73-.65a5.4,5.4,0,0,0,.08-.58,53.32,53.32,0,0,1,2-9.18,24.18,24.18,0,0,0,.77-3.65,10.15,10.15,0,0,1,2.46-5.47c.18-.19.33-.4.56-.67,0-.37,0-.75-.07-1.12a8.12,8.12,0,0,1,1-5.47,73.93,73.93,0,0,1,4.84-7.39,15.39,15.39,0,0,1,1.77-1.84c.22-.22.42-.46.61-.66-.09-.21-.11-.37-.2-.44a8.19,8.19,0,0,1-2.68-4.65c-.22-.8-.18-1.42.62-1.82.16-.09.26-.28.44-.48a22.82,22.82,0,0,0-4.11-5.22,8.68,8.68,0,0,1-1.4-1.62,2.65,2.65,0,0,0-1.64-1.17c-.16.22-.36.45-.53.71a14.49,14.49,0,0,1-2,2.67,2.35,2.35,0,0,0-.51.82,6.81,6.81,0,0,1-2.35,2.83,15.31,15.31,0,0,0-1.74,1.58,17,17,0,0,1-2.91,2.3,3.7,3.7,0,0,1-2.49.51,6.78,6.78,0,0,0-.65,1,2.5,2.5,0,0,1-2.25,1.63,4.53,4.53,0,0,0-2.62,1.22,3.08,3.08,0,0,1-2.14.9,4.29,4.29,0,0,0-1.87.54c-.5.25-1.09.41-1.63.64a6.54,6.54,0,0,0-1.55.81,4.22,4.22,0,0,1-2.13.95,4.21,4.21,0,0,0-2.3,1,5.11,5.11,0,0,1-2.37.88c-.7.17-1.4.33-2.09.51a6.68,6.68,0,0,1-2.69.41,4.39,4.39,0,0,0-1.35.17c-.44.09-.88.23-1.33.34a3.58,3.58,0,0,1-3.32-.76,3.61,3.61,0,0,0-1.88-1,2.12,2.12,0,0,1-1-.51,8.37,8.37,0,0,0-2.67-1.6,2.41,2.41,0,0,1-.9-.74,7,7,0,0,1-1.19-1.57,4.23,4.23,0,0,0-2.65-2.6A2.79,2.79,0,0,1,81,189.64c-.64-1.06-1.2-2.18-1.76-3.29a9.85,9.85,0,0,1-.39-8c.29-.94.53-1.89.73-2.85a2.45,2.45,0,0,0-.33-1.9,2.2,2.2,0,0,1,.51-2.84,14.67,14.67,0,0,1,1.3-1.19l-.58-1a10.47,10.47,0,0,1,3-2.7c.51-.32,1-.58,1.5-1a9.93,9.93,0,0,1,4.63-1.91,2.56,2.56,0,0,0,.87-1.52c.3-.93.58-1.88.87-2.81.2-.63,0-1.14-.64-1.17-1.39-.07-1.89-1-2.23-2.11a18,18,0,0,1-.51-2.29A3.29,3.29,0,0,1,88,152a33.53,33.53,0,0,0,.81-7.61,7.42,7.42,0,0,1,.58-2.86c.41-1,.67-2,1-3a1,1,0,0,1,.8-.77,1.21,1.21,0,0,1,1.37.54,18.59,18.59,0,0,0,3.4,4.29,7.94,7.94,0,0,1,1.81,3.44A12.57,12.57,0,0,0,98.93,149a17.48,17.48,0,0,1,1.52,5.2,6.13,6.13,0,0,1-1.16,4.46A3.41,3.41,0,0,1,96,160.3a35.6,35.6,0,0,0-1.74,6.09c.46.4,1.11.25,1.66.43a9.25,9.25,0,0,0,1.71.41,4.83,4.83,0,0,1,2.34,1,25.76,25.76,0,0,1,2.49,1.92,3.15,3.15,0,0,0,2.07,1c2.28.17,4.56.41,6.85.41,2.61,0,5.22-.22,7.85-.35a2.24,2.24,0,0,0,.58-.05,39,39,0,0,0,8.63-3.29,2.35,2.35,0,0,0,.47-.36,3.23,3.23,0,0,0,.29-.43,16,16,0,0,0-3.32-5.14,4.23,4.23,0,0,1-1-1.43,57.3,57.3,0,0,0-3.56-5.87c-1.18-1.94-2.31-4.1-3.42-6.18-.12-.24-.18-.51-.3-.71a112.86,112.86,0,0,0-5.73-10.32,16.5,16.5,0,0,1-.91-1.52c-1.89-3.37-4.06-6.56-6.13-9.83a3.72,3.72,0,0,0-2.51-1.69,12.4,12.4,0,0,0-5.65-.14,11.66,11.66,0,0,1-4.67,0,7.73,7.73,0,0,1-4.84-3.12,2,2,0,0,1-.22-2.21,3.6,3.6,0,0,1,1.83-2,19.9,19.9,0,0,1,2.56-1,23.42,23.42,0,0,0,2.43-.74,30,30,0,0,1,7.24-1.69c.45,0,.91-.13,1.34-.2.11-.34-.06-.47-.33-.58-.51-.21-1-.45-1.42-.66A9.39,9.39,0,0,0,97.45,111a4.23,4.23,0,0,1-1.29-.46,17.43,17.43,0,0,0-2.08-.79c-.7.31-.69.91-.91,1.36a3.59,3.59,0,0,1-4.56,2.24,3.52,3.52,0,0,1-.94-.49,3.87,3.87,0,0,1-2.07-2.93l-.22-1.4a14,14,0,0,0-4.57-.18,6.74,6.74,0,0,0-.17,1.17,8.88,8.88,0,0,1-.68,3.25,16,16,0,0,1-2.32,4.71,2.66,2.66,0,0,0-.59,2,12.15,12.15,0,0,1-.29,3.29,3.65,3.65,0,0,1-1.11,2.84A17.57,17.57,0,0,1,72.84,130a2.47,2.47,0,0,1-.83.81,5.64,5.64,0,0,0-2.13,2.23,33,33,0,0,1-3,4.3,29.12,29.12,0,0,1-6.76,5.29c-.35.19-.71.35-1,.55a21.34,21.34,0,0,1-9.7,2.95c-1,.07-2,.21-2.93.29a12.78,12.78,0,0,1-6.09-1.14,3.62,3.62,0,0,0-.55-.2.9.9,0,0,0-.22.06c-.42.41-.32.89-.1,1.52h1.31a4.28,4.28,0,0,1,2.67,1.45,2.53,2.53,0,0,1,.69,1.37c.21,1.57.72,3.05,1,4.57a12.82,12.82,0,0,1,.3,2.14,5.4,5.4,0,0,1-.17,1.74,6.08,6.08,0,0,1-.73,1.26,3.37,3.37,0,0,1-2.65-.8,9.9,9.9,0,0,1-2.09-1.78,22.7,22.7,0,0,1-1.64-2.25,2.66,2.66,0,0,0-.34.59,6.56,6.56,0,0,1-3.79,4.46,3.17,3.17,0,0,1-1.13.31,2.78,2.78,0,0,1-3.25-2.17,7.94,7.94,0,0,1,1.1-6.93A9.68,9.68,0,0,1,34.35,147a1.33,1.33,0,0,0,.77-1.37,3.16,3.16,0,0,0-.66-.27,13,13,0,0,0-1.76-.18,4.77,4.77,0,0,1-2.4-.8c-.82-.51-1.74-.92-2.53-1.43a62.35,62.35,0,0,1-6.68-4.49A10.44,10.44,0,0,1,19,136.19c-.8-1.2-1.63-2.37-2.43-3.56-.36-.54-.65-1.13-1-1.69-.88-1.53-1.71-3.1-2.63-4.61a41.19,41.19,0,0,1-3.61-6.74,3.74,3.74,0,0,0-1.7-2.07,8.4,8.4,0,0,1-3.36-3.74c-.6-1.16-1.3-2.27-1.83-3.47s-.84-2.33-1.24-3.5c-.08-.24-.08-.51-.17-.77a23,23,0,0,1-1-7.78v-.2a25.35,25.35,0,0,1,1.09-9.48c.47-1.84.93-3.68,1.43-5.51a15.13,15.13,0,0,1,.53-1.47c.51-1.28,1-2.58,1.53-3.84a16.09,16.09,0,0,1,1.06-1.85c.58-1,1.21-1.88,1.72-2.85a8.1,8.1,0,0,1,2-2.64c1-.78,1.81-1.7,2.74-2.53a13.27,13.27,0,0,1,2-1.61c2.48-1.47,5.08-2.74,7.66-4a3.4,3.4,0,0,1,1.33-.3,9.21,9.21,0,0,0,3.62-.79A3,3,0,0,1,28.09,61a11.85,11.85,0,0,1,4.66.42,11,11,0,0,1,4.56.89c1-.07,2.09-.1,3.12-.23.24,0,.51-.41.61-.69a7.77,7.77,0,0,0,.3-3.11c-.06-.78-.15-1.56-.24-2.35a2.16,2.16,0,0,0-.17-.75,9.82,9.82,0,0,0-3.82-4.84,1.74,1.74,0,0,1,.91-2,7.55,7.55,0,0,1,4.48-1.19c1.45.07,2.88.19,4.32.21a2.65,2.65,0,0,1,2.54,1.81,9.37,9.37,0,0,1,.55,4.45c-.19,2.67-.45,5.35-.67,8a2.22,2.22,0,0,0,0,.45,7.52,7.52,0,0,0,3.55.72,22.84,22.84,0,0,1,10.79,2.49c.12,0,.24.13.35.18a15.75,15.75,0,0,1,6.15,4.42,27.62,27.62,0,0,1,3.32,3.6,15.93,15.93,0,0,1,2.2,3.87,25.85,25.85,0,0,0,1.36,3c1.78.63,3.5,1.26,5.22,1.83s3.39,1,5.08,1.59A31.57,31.57,0,0,1,90.41,85c4.23,1.92,8.63,3.46,12.78,5.58a11.74,11.74,0,0,0,1.29.48A15.55,15.55,0,0,1,108.11,93a14.25,14.25,0,0,0,2.14,1.39,20.79,20.79,0,0,1,5.61,4.25,3.5,3.5,0,0,0,.62.37,4.87,4.87,0,0,0-.32-2.1,10.84,10.84,0,0,1-.29-3.89.88.88,0,0,1,.84-.93.65.65,0,0,1,.2,0,17.53,17.53,0,0,1,2.51.42c2,.51,3.92,1.06,5.88,1.57a5.69,5.69,0,0,0,1.36.17,8.93,8.93,0,0,0,1.37-.1,7.26,7.26,0,0,0,5.91-2.65,34.55,34.55,0,0,1,5.13-4c1.69-1,3.24-2.22,4.88-3.28s3-1.86,4.57-2.72a58.08,58.08,0,0,0,5.07-3.74,39.2,39.2,0,0,1,4-2.5,4.16,4.16,0,0,0,.51-.28,80.24,80.24,0,0,1,8.34-4.82c1.85-1,3.66-2,5.48-3.07.86-.47,1.66-1,2.54-1.48a38.36,38.36,0,0,1,4.24-2,90.67,90.67,0,0,1,11.85-3.55c2.37-.51,4.76-.9,7.16-1.23a32,32,0,0,1,7.45.17,22.41,22.41,0,0,0,2.72.11c-.05-.2,0-.35-.11-.43l-3.86-3.64a7.39,7.39,0,0,0-1.06-.88,22.26,22.26,0,0,1-3.92-3.26c-2.47-2.46-5.1-4.71-7.77-6.93-.51-.42-1-.89-1.48-1.29s-1.27-.92-1.93-1.4c-1.26,1-2.48,1.83-3.63,2.77a2.62,2.62,0,0,1-1.82.6,1.62,1.62,0,0,1-1.66-1.37,73,73,0,0,0-2.19-7.11c-1.28-3.85-2.44-7.74-3.77-11.57-.77-2.24-1.47-4.47-2.11-6.75-.35-1.25-1-2.43-1.29-3.69-.71-2.79-1.32-5.58-2.21-8.33a31.37,31.37,0,0,1-.76-3.69c-.28-.23-.87-.29-.89-.86s.53-.86,1-1A5.44,5.44,0,0,1,170,0c.65,0,1.3.15,2,.21a21.54,21.54,0,0,0,2.53.19,8.76,8.76,0,0,1,3.48.47,17.64,17.64,0,0,0,2.29.51,37.5,37.5,0,0,0,7.15,1c2.07.18,4.15.24,6.22.61a33.31,33.31,0,0,0,7.78.65c2.21-.14,4.44,0,6.66,0a3,3,0,0,1,.6,0q2.79.51,5.58,1.06a2.6,2.6,0,0,1,1.9,1.07,3.54,3.54,0,0,1-.51.75c-.6.51-1.24,1-2,1.52a21.35,21.35,0,0,1-1.52,5.25,40.62,40.62,0,0,1,6.45,6.12,4.55,4.55,0,0,0,1.1,1.09,3.6,3.6,0,0,1,.87.78,30.74,30.74,0,0,0,3.8,3.41c.43.38.93.71,1.38,1.08,1.32,1.07,2.66,2.11,3.93,3.24,1.77,1.56,3.47,3.19,5.22,4.78.53.51,1.1.93,1.66,1.39a6.87,6.87,0,0,1,1.05.89,37.67,37.67,0,0,0,4.5,4.06c1.4,1.27,2.9,2.42,4.21,3.8A13.07,13.07,0,0,0,249.1,46a17.32,17.32,0,0,1,3.05,2.48,35,35,0,0,0,3.61,3,9.53,9.53,0,0,1,1.12,1.08,2.41,2.41,0,0,0,1.78,1.07c.51,0,.78.43,1.08.78a8.13,8.13,0,0,0,2.7,2.14c-.06-.67-.07-1.19-.14-1.68a21.57,21.57,0,0,1,.11-6.85,39.05,39.05,0,0,1,1.19-6A14.43,14.43,0,0,1,267.49,36a2.5,2.5,0,0,1,3.52-.32l.17.16a7.72,7.72,0,0,1,2.22,2.19,5.31,5.31,0,0,1,.77,3.56c-.07.51-.07,1-.11,1.57a14.1,14.1,0,0,1-1.12,4.95,30.21,30.21,0,0,0-1.15,3.23,3.55,3.55,0,0,0,.79.09c.85-.13,1.66-.33,2.52-.44a8.86,8.86,0,0,1,7.11,2.11,6.6,6.6,0,0,1,1.37,1.66A3,3,0,0,1,283,59h0c-.47.46-.93.92-1.42,1.34a5.36,5.36,0,0,0-1.46,2,3.9,3.9,0,0,1-.19.35,4.71,4.71,0,0,1-4.45,2.68,14.46,14.46,0,0,1-6-.77.56.56,0,0,0-.5.2.62.62,0,0,0,0,.53,1.83,1.83,0,0,0,.5.6c2,1.68,4.06,3.32,6.07,5s4.05,3.08,6.15,4.56a13.5,13.5,0,0,1,2.23,1.9,18,18,0,0,0,3.24,2.85,7.53,7.53,0,0,1,1,.95,19.86,19.86,0,0,0,1.7,1.61,12.81,12.81,0,0,1,2.82,2.42,3.68,3.68,0,0,0,.78.58c1.31,1,2.63,2,3.92,3,.6.47.62.83.33,1.55-.24.54-.43,1.09-.64,1.63-.33.85-.63,1.72-1,2.54a5.59,5.59,0,0,0-.69,2.91,7.92,7.92,0,0,0,1.53.14,25.21,25.21,0,0,1,3.88.26c2,.13,4.06,0,6.09,0,.51,0,1-.16,1.56-.15a15.07,15.07,0,0,0,5-.89,34.22,34.22,0,0,1,5.3-1.42,24,24,0,0,0,5-1.61c1.62-.69,3.32-1.18,5-1.71a.91.91,0,0,1,1.12.61,1.13,1.13,0,0,1,0,.18,1.3,1.3,0,0,1-.66,1.66c-.17.11-.35.18-.51.29a14.78,14.78,0,0,1-2.6.81c-.85.33-1.61.87-2.47,1.16a47.69,47.69,0,0,0-6.23,2.24,19.79,19.79,0,0,1-5.42,1.66,25.41,25.41,0,0,1-3.89.51,42.06,42.06,0,0,1-10.15-.43c-1.14-.26-2.25-.63-3.46-1A17.77,17.77,0,0,0,293,102.9c-.5,1.06-1.06,2.08-1.64,3.21l2.46,2c.4.33.81.66,1.2,1,2.3,2,4.35,4.35,6.79,6.24a16.88,16.88,0,0,1,1.53,1.52,46.45,46.45,0,0,0,4.84,3.65,48.4,48.4,0,0,1,6.54,5.32c.18.19.44.33.56.55a41.64,41.64,0,0,0,3.88,4.41,5.65,5.65,0,0,0,.73.65c1.06.87,2.16,1.7,3.18,2.6a41.6,41.6,0,0,0,5.1,3.66,31.94,31.94,0,0,1,5.16,4.19,21.85,21.85,0,0,0,5.64,4.19c2,1.26,3.83,2.72,5.73,4.12a2.13,2.13,0,0,1,.41.64c-.48.8-1.36.85-2,1.35-.26.45-.55,1-.87,1.45a2.49,2.49,0,0,1-3.45.74h0a4.29,4.29,0,0,1-.48-.36l-5.3-4.39c-1.11-.91-2.18-1.88-3.36-2.7a46.84,46.84,0,0,1-4.78-4.11,62.13,62.13,0,0,0-5.85-4.65,96.41,96.41,0,0,1-7.61-6.22c-1-.87-2-1.63-3.1-2.42-.72-.56-1.46-1.1-2.2-1.64-2.15-1.61-4.16-3.39-6.23-5.08-1.82-1.49-3.7-2.92-5.58-4.3a29.32,29.32,0,0,1-3.3-2.79c-1.36-1.32-2.75-2.61-4.11-3.88a4.14,4.14,0,0,0-2.25,1.27l-4,3.82a2,2,0,0,1-2.82.34,1.79,1.79,0,0,1-.42-.45c-1.13-1.38-2.67-2.32-3.78-3.69-.06-.08-.23-.07-.35-.1a6.54,6.54,0,0,0,.11,3.59,48.12,48.12,0,0,1,1.47,5.25,11.07,11.07,0,0,0,.7,2,4.85,4.85,0,0,1,.5,2.85,7.48,7.48,0,0,0,.45,3.66,3,3,0,0,1,.13,1.93,9.51,9.51,0,0,0-.17,3.32,5.18,5.18,0,0,1-.41,2.49q-.65,1.65-1.26,3.3a4.12,4.12,0,0,0-.55,2.43.56.56,0,0,1-.08.38,5.36,5.36,0,0,0-.47,3.25v1a2,2,0,0,1-.47,1.46,7.77,7.77,0,0,0-1.41,3.39,55.8,55.8,0,0,1-2.24,8.12,9.3,9.3,0,0,0-.57,2.66,13.86,13.86,0,0,1-1.77,4.95,4.9,4.9,0,0,0-.47.84,40.43,40.43,0,0,1-2,5.32c-.24.54-.48,1.08-.71,1.62-.08.18-.3.34-.29.51.07,1.22-.69,2.23-.85,3.39a6.78,6.78,0,0,1-.92,2.57,5.22,5.22,0,0,0-.88,2.76,2.57,2.57,0,0,1-.33,1.08,9.31,9.31,0,0,0-.93,3.39,2.85,2.85,0,0,1-.36,1.3,8.86,8.86,0,0,0-.71,2.82,20.8,20.8,0,0,0,.17,6.25,24.92,24.92,0,0,0,1.9,5.13,2.1,2.1,0,0,1,.29,1.3,1.54,1.54,0,0,0,.62,1.36c.41.32.86.6,1.28.91a5.73,5.73,0,0,1,.93.71,1.41,1.41,0,0,1,.3,1.79c-.46.8-.95,1.56-1.42,2.35-.34.55-.45,1.28-1.14,1.52a3.83,3.83,0,0,1-2.32.07,16.83,16.83,0,0,1-1.85-.64c-.67-.23-1.33-.5-2-.79l-1.33,1.58c-1,.37-1.89.68-2.75,1-.37.13-.74.24-1.12.35s-.59,0-.77.12c-1.38,1.05-3.15.78-4.65,1.46a5.3,5.3,0,0,1-1.94.18,4.81,4.81,0,0,0-2.65.54,2.49,2.49,0,0,1-1.32.21,23.21,23.21,0,0,0-6.05.56,34.14,34.14,0,0,1-4,.51,51.68,51.68,0,0,1-4.62,6.66,24.85,24.85,0,0,0-3.43,6.8,2.66,2.66,0,0,0,0,.69,5.17,5.17,0,0,0,1.1.19,25.05,25.05,0,0,0,2.74-.19c2.6-.39,5.22-.4,7.83-.6.39,0,.77-.11,1.17-.18s.89-.18,1.35-.24l4.83-.4a14.67,14.67,0,0,0,1.28-5.8,2.86,2.86,0,0,0-.91-.16,46.26,46.26,0,0,0-4.84.71,5.21,5.21,0,0,1-2.54.13,5.73,5.73,0,0,1-3.29-2,1.12,1.12,0,0,1-.15-1.29,7.91,7.91,0,0,0,.42-1.15A8.55,8.55,0,0,1,232.7,223c1.63-.47,3.25-1,4.89-1.44,1.13-.32,2.26-.62,3.41-.88,1.58-.36,3.18-.67,4.77-1a4,4,0,0,1,.59-.07,28.13,28.13,0,0,0,7.47-1.53,4.52,4.52,0,0,1,4.89,1.07,10,10,0,0,1,1.38,1.66,2.5,2.5,0,0,1,.35,1.1c.08.78.09,1.57.15,2.35a1.84,1.84,0,0,1-1,1.78c-.55.34-1.13.65-1.72.94a1.39,1.39,0,0,1-.74.19,21.67,21.67,0,0,1-3.12-.29,5.63,5.63,0,0,0-3.1,0c-.84.14-1.69.24-2.54.3s-1.93.29-2.9.51c-.22,0-.39.3-.64.51.1.33.21.63.3.94a9.78,9.78,0,0,1,.43,3.09c-.06,1.31,0,2.62,0,3.93a3.28,3.28,0,0,0,.93,2.49c1.43,1.46,2.78,3,4.17,4.44a6.43,6.43,0,0,0,.75.61c1-1,1.84-2,2.78-2.88a35.37,35.37,0,0,1,7.11-5.22,75.55,75.55,0,0,1,8.81-4.31,29.15,29.15,0,0,1,4.34-1.14,39.19,39.19,0,0,1,4.4-1,20.78,20.78,0,0,1,8.95.07,33.33,33.33,0,0,0,3.44.72,8.59,8.59,0,0,1,1.13.32l4.26,1.48a29,29,0,0,1,5.95,3,32.65,32.65,0,0,1,3.94,2.89c.6.51,1.17,1,1.75,1.58l1.74,1.59a9.86,9.86,0,0,1,2.54,2.95,3.5,3.5,0,0,0,.58.79,80.71,80.71,0,0,1,6.17,9.56,12.41,12.41,0,0,1,1.05,2.32A86.37,86.37,0,0,1,323.42,267c.29,1.34.46,2.7.75,4.05a15.63,15.63,0,0,1,.19,3.13c0,2.16-.09,4.32.05,6.48a5.35,5.35,0,0,1,0,1c-.19,1.48-.35,3-.62,4.45a26.93,26.93,0,0,0-.54,3.47,25.33,25.33,0,0,1-.62,3.46,17.07,17.07,0,0,1-.86,3.59c-.19.48-.26,1-.45,1.48q-1.14,2.71-2.33,5.39a8,8,0,0,0-.89,3,2.58,2.58,0,0,1-.21.95c-.69,1.48-1.4,2.95-2.11,4.42-.1.17-.2.34-.28.51a28.29,28.29,0,0,1-3.16,5.43,13.08,13.08,0,0,0-1.73,2.58,1.34,1.34,0,0,1-.51.57,90.75,90.75,0,0,1-7.91,5.43,3.8,3.8,0,0,1-2.4.67,1.84,1.84,0,0,0-1.56.61,8.68,8.68,0,0,1-3.84,1.84,21.56,21.56,0,0,0-4,.95,3.54,3.54,0,0,1-1.16.16c-.65.05-1.3.06-2,.13a4.57,4.57,0,0,1-2.28-.33,5.39,5.39,0,0,0-3.82-.46,1.54,1.54,0,0,1-1.13-.14,14.38,14.38,0,0,0-3.34-1.1,18.84,18.84,0,0,0-2.48-.4,19.22,19.22,0,0,0-3.85-.55,7.61,7.61,0,0,1-4.38-1.52,4,4,0,0,0-2.17-.8,7.64,7.64,0,0,1-3.5-1.15l-1.73-.93a9.91,9.91,0,0,1-2.87-2.36,32.72,32.72,0,0,0-2.31-2.4,6.62,6.62,0,0,0-1.49-1,4.64,4.64,0,0,1-1.74-1.52c-.54-.83-1.13-1.61-1.7-2.42A34.3,34.3,0,0,0,246,310.4a23.13,23.13,0,0,1-3.85-6.6c-.66-1.52-1.33-3-1.95-4.4a1.68,1.68,0,0,0-1.61-.08,36.87,36.87,0,0,1-5.19,1,9.36,9.36,0,0,1-4.46-.27c-.56.42-.44,1.07-.63,1.6s-.36,1.11-.59,1.8a13.22,13.22,0,0,1,2,0,9.54,9.54,0,0,1,1.64.54c.3.57.59,1.09.83,1.62a.84.84,0,0,1-.28,1.06c-.57.42-1.18.8-1.78,1.22a10.83,10.83,0,0,1-4.81,2.43c-2.4.86-4.77,1.79-7.17,2.66l-4.44,1.53a5.8,5.8,0,0,0-.73.28,87.73,87.73,0,0,1-8.23,3.23c-.24.09-.49.17-.74.24a2.17,2.17,0,0,1-2.34-.62c-.6-.66-1.13-1.38-1.78-2.2a7.92,7.92,0,0,1,.82-.28,8.33,8.33,0,0,0,3.24-1.18,6.11,6.11,0,0,0,2.07-.51c2.3-.89,4.62-1.74,6.92-2.61a3.07,3.07,0,0,0,.46-.27c-.51-.81-.65-.92-1.15-.75-.85.3-1.69.65-2.53,1-.24.1-5.44,3.05-5.72,3.22M53.8,142.25a3.37,3.37,0,0,0-.19.32c-.08.17,0,.23.17.18a.21.21,0,0,0,.14-.11c0-.13-.09-.25-.14-.37l.43.06-.42-.08M59,140c-.59.25-1.21.47-1.78.78-.21.11-.55.35-.18.77.61-.57,1.53-.71,1.9-1.56,1.25-.26,1.25-.26,1.74-1.14a5.6,5.6,0,0,0-.76.51c-.28.26-.46.65-.93.63m23.4,98.83c.71,0,1.43,0,2.14-.06.12,0,.28-.24.35-.4s-.35-.44-.57-.38a3.19,3.19,0,0,0-1.88.89l-1.09.08c.69.21.69.21,1-.13M204.75,303c-.73.39-1.47.77-2.19,1.17s-1.57.18-2.19.75-1.57.58-2.37.86-1.52.42-2.53.69a6.76,6.76,0,0,0,2.9-.08,5.16,5.16,0,0,1,3.25-.12.93.93,0,0,0,1.06-.31c.66-.8,1.31-1.61,1.95-2.44.1-.12.05-.37.07-.55a2.51,2.51,0,0,0,.41-.32c0-.07,0-.21,0-.33-.11.05-.27.06-.3.13a3.47,3.47,0,0,0-.08.55m-174-160.49c.57.3,1.13.62,1.71.91.1,0,.27-.06.62-.15a3.63,3.63,0,0,0-2.37-.71c.09-.74-.45-1-1-1.25a4.2,4.2,0,0,1-1.22-.55,10.13,10.13,0,0,0-2.27-1.52,6.46,6.46,0,0,1-.95-.7c-1.2-1-2.38-2-3.58-3a1.2,1.2,0,0,0-.42-.11c-.06.15-.22.37-.17.47a4.72,4.72,0,0,0,.91,1.46c1.07.86,2.21,1.62,3.36,2.37.87.57,1.79,1.07,2.7,1.6a7.41,7.41,0,0,0,2.66,1.18m249.57,153a.74.74,0,0,0-.36.06c-.95.8-1.9,1.6-2.83,2.44a7.33,7.33,0,0,0-1.88,2.5,15.41,15.41,0,0,1-3.81,5.17,40.66,40.66,0,0,0-4.12,4.48,41.21,41.21,0,0,1-3.72,4.31c-.51.5-1,1-1.52,1.52a7,7,0,0,1-2.82,2.07c-.08,0-.12.21-.24.39a6.07,6.07,0,0,0,2.48,1.43,20.52,20.52,0,0,1,4.7,1.94,6.37,6.37,0,0,0,4.57.8l1.14-2.25c-.19-.28-.33-.5-.51-.78a9.71,9.71,0,0,1,1-2.24,25.2,25.2,0,0,0,2.47-5.75q1.64-5.36,3.43-10.66c.5-1.49,1.17-2.91,1.77-4.36a1.34,1.34,0,0,0,.17-1.12c.33,0,.43-.29.25-.36s-.26.19-.21.39M90.12,186.41a16.16,16.16,0,0,1,1.46,1,2.85,2.85,0,0,1,1.06,2,1.31,1.31,0,0,1-.72,1.47,7.44,7.44,0,0,1-2.31,1.05c-.37.06-.79.13-1,.59a2.16,2.16,0,0,0,1.22,1.17,19.83,19.83,0,0,1,2.54,1.52,3.3,3.3,0,0,0,3.13.58,7.27,7.27,0,0,1,3.11-.29,2.55,2.55,0,0,0,.78,0c1.79-.4,3.61-.72,5.35-1.24,2.63-.81,5.31-1.4,7.88-2.41a16.57,16.57,0,0,0,3.88-1.82,12.27,12.27,0,0,1,3.13-1.63,3.06,3.06,0,0,0,1.06-.51,15.36,15.36,0,0,1,3.29-2.11,4.47,4.47,0,0,0,.82-.54c1.81-1.7,3.62-3.41,5.41-5.14a2.24,2.24,0,0,0,.63-1,16.81,16.81,0,0,0,.5-2.89,15.07,15.07,0,0,0-.67-5.82,6.37,6.37,0,0,0-.41-.72,11.14,11.14,0,0,0-1.11.51,26.58,26.58,0,0,1-7.53,2.74,1.38,1.38,0,0,1-.57.11,15.86,15.86,0,0,0-3.3.26q-3.21.24-6.44.31a38,38,0,0,1-6.83-.31,5,5,0,0,0-1.55,0,1.37,1.37,0,0,1-1.39-.5,3.39,3.39,0,0,1-.77-1.13c-.43-1.36-1.56-1.86-2.7-2.37-.65-.29-1.33-.53-2-.78-.22-.09-.44-.33-.81.12a22.1,22.1,0,0,0,1.22,4,2.86,2.86,0,0,0,2,1.74,3,3,0,0,1,1.13.71.74.74,0,0,1,0,1l0,0c-.41.33-.84.63-1.25,1a6.47,6.47,0,0,1-2.22,1.16,6.93,6.93,0,0,0-3,1.4,3.86,3.86,0,0,1,.19.54.52.52,0,0,1,0,.37,4.85,4.85,0,0,1-4.27,2,22.81,22.81,0,0,0-3.09.12c0,.51.34.62.6.8l3.08,2.1c.34.23.63.47.57.94a2.76,2.76,0,0,1-2.77-.32c-.75-.51-1.58-.91-2.37-1.36s-1.57-.92-2.37-1.37l-.8-.42c-.14.2-.27.31-.27.41a3.34,3.34,0,0,0,2.52,3.88,5.85,5.85,0,0,0,.74.25c1.09.21,2.18.45,3.28.59a4.86,4.86,0,0,0,1.52-.11.77.77,0,0,0,.62-.87,6.53,6.53,0,0,0-.14-.77m54.33,45.68a1.79,1.79,0,0,0-.4-.11c-2.33.63-4.75.81-7.11,1.47-.8.24-1.73,0-2.51.28a9.52,9.52,0,0,1-2.48.51,17.19,17.19,0,0,0-1.76.17c-2.13.37-4.25.74-6.37,1.15s-4.1.62-6.09,1.17c-.71.2-1.59-.15-2.12.71-.1.16-.47.15-.72.24-2.7.77-5.51,1.12-8.21,1.92-2.44.71-5,1-7.45,1.61a24.13,24.13,0,0,1-5.41.86,6.55,6.55,0,0,0-1.52.33c-1.26.33-2.54.65-3.81.89-3,.56-5.85,1.35-8.77,2-2.11.47-4.23.89-6.34,1.34a1.68,1.68,0,0,1-.39.07,17.88,17.88,0,0,0-5.36,1c-2.67.62-5.31,1.36-8,1.85a34.8,34.8,0,0,1-8.12,1.08h-.2A1.32,1.32,0,0,0,50,251.87a17.26,17.26,0,0,0-.27,5.46c.2,1.42.35,2.84.47,4.26.1,1.11.3,2.22.32,3.32.05,3.21,0,6.42.06,9.65v3.34c0,1.11.08,2.37,0,3.55a26,26,0,0,0,0,3.3c0,.78.24,1.55.24,2.33a29.74,29.74,0,0,0-.06,5.66,20.47,20.47,0,0,0-.26,4.69,48.14,48.14,0,0,1-.29,8.23,3.39,3.39,0,0,0,0,.78,12.69,12.69,0,0,1,0,1.95,10.51,10.51,0,0,0,0,3.71,9.61,9.61,0,0,1,0,3.12,5.32,5.32,0,0,0-.1,1c.08,3.14,0,6.28.33,9.4a5.7,5.7,0,0,0,.27,1,8.51,8.51,0,0,0,1,0,14.82,14.82,0,0,1,4.31,0,11.5,11.5,0,0,0,2.93,0,37.32,37.32,0,0,1,7.62,0,11.72,11.72,0,0,0,3.13,0,29,29,0,0,1,3.72-.2,8.92,8.92,0,0,0,1.37-.07,77.32,77.32,0,0,1,9.62-.4,7.53,7.53,0,0,0,.83-.1,1.14,1.14,0,0,0-.28-1.2,41.84,41.84,0,0,1-3.43-7.06c-1-2.22-1.79-4.5-2.78-6.71a25.66,25.66,0,0,1-1.52-4.45c-.45-1.84-.81-3.7-1.32-5.53a11.39,11.39,0,0,1-.38-2.91v-1.76A44.16,44.16,0,0,1,76,287c.24-1.22.51-2.43.71-3.65a34.35,34.35,0,0,1,1.62-5.44c.4-1.24.86-2.46,1.29-3.7.1-.31.16-.63.28-.94,1.18-3.12,2.85-6,4-9.14a5,5,0,0,1,.55-1q1.7-2.62,3.44-5.24a8.13,8.13,0,0,1,.75-.9c.43-.51.83-1,1.3-1.48,1-1,2-2.07,3.1-3,1.71-1.42,3.48-2.78,5.28-4.09a14.55,14.55,0,0,1,2.24-1.19c.47-.22,1-.33,1.46-.56a33.47,33.47,0,0,1,10.58-2.75c1-.14,2.09-.27,3.12-.34a16.58,16.58,0,0,1,3.52-.08,22.65,22.65,0,0,1,7.33,2.09,36.09,36.09,0,0,1,6.68,4.06,17.07,17.07,0,0,0,1.77,1.25,17.91,17.91,0,0,1,4.8,4,2.44,2.44,0,0,0,.27.29l3.68,3.55a1.28,1.28,0,0,0,.5.2c.1-.15.21-.25.21-.36q0-12.76,0-25.55c0-.24-.05-.51-.08-.81m30.09-63.37c.88.31,1.52.5,2.1.75a2.53,2.53,0,0,1,1.69,1.77,62.13,62.13,0,0,1,.95,7.57,15.14,15.14,0,0,1,.08,2.93c-.26,2.86-.67,5.7-1.21,8.52-.35,1.45-.9,2.86-1.19,4.31a56.18,56.18,0,0,1-3.89,10,3.15,3.15,0,0,0,1.27,1.41c.81.53,1.79.83,2.54,1.43a7.24,7.24,0,0,0,2.45,1.59,19.71,19.71,0,0,1,4.95,2.24c.51.3,1.05.54,1.52.87a4.58,4.58,0,0,0,2.54.9,8.55,8.55,0,0,1,1.73.28,11.44,11.44,0,0,0,1.73.32c2.16.18,4.27.71,6.43.76a4.91,4.91,0,0,1,1.12.31,8.8,8.8,0,0,0,4.82.39,2.51,2.51,0,0,1,1.33.09,12,12,0,0,0,2.31.47,24.54,24.54,0,0,1,5.61.34,2.1,2.1,0,0,0,.79,0,9.63,9.63,0,0,1,2.93.15,2.18,2.18,0,0,0,1-.05,11.59,11.59,0,0,1,4.47,0,12.3,12.3,0,0,0,3.09.06,18.4,18.4,0,0,1,5.83.18,2.65,2.65,0,0,0,1.34-.11,31,31,0,0,1,7.74-1,7.33,7.33,0,0,0,3.28-.39c1.88-.08,3.65-1.08,5.58-.64a.73.73,0,0,0,.54-.13c.51-.48,1,.09,1.58,0l.87-1a10.71,10.71,0,0,0-.9-.59c-2.32-1.2-4.66-2.37-7-3.6-.87-.45-1.69-1-2.54-1.52-1.73-1-3.44-2.13-5.2-3.14s-3.67-2-5.51-3a14,14,0,0,0-1.39-.71c-1.35-.67-2.72-1.3-4.06-2q-2.88-1.49-5.73-3.05c-.57-.31-1.13-.65-1.67-1a104.56,104.56,0,0,0-10.34-6,67.86,67.86,0,0,1-7.32-4.19,34.11,34.11,0,0,1-2.87-2.06,56.29,56.29,0,0,0-7.27-5.36,29,29,0,0,1-4.25-3.14,11.13,11.13,0,0,0-1.52-1.22,27.47,27.47,0,0,1-5.24-4.31,9.07,9.07,0,0,0-1.68-1.34c-.64-.41-1.08-1.1-1.85-1.45a33.79,33.79,0,0,1-3.36,3.08c-.59.51-1.16,1-1.76,1.52a15.29,15.29,0,0,0-2.75,2.76,9,9,0,0,1-1.95,1.9,12.25,12.25,0,0,0-1.71,1.59c-1.6,1.71-2.9,3.68-4.54,5.36-.16.16-.21.47.14.74a30,30,0,0,0,8.69-4.26c1.12-.79,2.2-1.64,3.24-2.54a3.57,3.57,0,0,0,1.31-4,1.87,1.87,0,0,1,.65-2.12,4.48,4.48,0,0,0,.51-.64m15.1-129.19a3.26,3.26,0,0,0,1.48,1.52c1.34,1,2.71,1.83,4,2.83,2.16,1.7,4.27,3.47,6.39,5.22.76.63,1.51,1.27,2.24,1.91,2.12,1.86,4.22,3.73,6.34,5.58A16.26,16.26,0,0,0,212,58.11a8.9,8.9,0,0,0,4.62,2,7.29,7.29,0,0,1,2.11.44,39.87,39.87,0,0,1,9.21,3.87A23.32,23.32,0,0,1,233.73,68a28.61,28.61,0,0,0,5.78,3.26,20.3,20.3,0,0,1,6.3,4.27,2.47,2.47,0,0,0,1.52,1,12.25,12.25,0,0,0,1.91-1.83c.87-1.06,1.81-2.07,2.71-3.1.39-.45.77-.89,1.14-1.36A113,113,0,0,0,259.76,61c.14-.26.27-.53.39-.8a3.42,3.42,0,0,0-1.78-1.33,5.17,5.17,0,0,1-1.06-.51,47.68,47.68,0,0,1-6.26-5.07,14,14,0,0,0-1.47-1.31,58.53,58.53,0,0,0-5.29-4.38,4.81,4.81,0,0,1-.57-.54l-5.18-4.81c-.72-.68-1.45-1.34-2.18-2-2.5-2.21-5.08-4.35-7.49-6.64-3-2.82-6.05-5.61-9.3-8.16a24.93,24.93,0,0,1-1.89-1.66c-1.73-1.7-3.43-3.43-5.16-5.12a5.74,5.74,0,0,0-2-1.52c-.17.13-.38.21-.47.36-.78,1.22-1.57,2.42-2.27,3.68a19.26,19.26,0,0,1-3.67,4.57,13.93,13.93,0,0,0-3.32,3.85,5.86,5.86,0,0,1-1.88,2c-.73.54-1.39,1.18-2.08,1.78s-1.17,1-1.76,1.57a6.39,6.39,0,0,0-.87.77,13.1,13.1,0,0,1-2.9,2.61l-1.6,1.25M94.15,120.84c1-.08,1.65-.15,2.29-.17a25.32,25.32,0,0,1,8.92.9,3,3,0,0,0,1,.11,4.64,4.64,0,0,1,4,2.14l1.67,2.41c1.37,1.91,2.74,3.82,4.09,5.75a9,9,0,0,1,.56,1,7.67,7.67,0,0,0,.36.7c1.39,2.13,2.8,4.26,4.16,6.42a30.5,30.5,0,0,1,1.58,2.92c1.12,2.29,2.54,4.41,3.65,6.73a30.89,30.89,0,0,0,3.16,4.94c1,1.42,2,3,2.93,4.41a24.15,24.15,0,0,0,2.08,2.85,13.45,13.45,0,0,1,1.64,2.19,41.23,41.23,0,0,0,2.81,4.22c1.1,1.38,2.16,2.8,3.26,4.19a5.51,5.51,0,0,0,1.12,1.09,13.87,13.87,0,0,1,4.09,4.69,4.37,4.37,0,0,0,1.49,1.78,5.17,5.17,0,0,0,.69-.46c1.15-1.16,2.37-2.28,3.43-3.51,2.27-2.62,4.27-5.47,6.59-8,1.2-1.3,2.31-2.69,3.46-4,1.5-1.74,3-3.46,4.51-5.2a4.84,4.84,0,0,0,.47-.79,14.69,14.69,0,0,1-1.24-1.13c-2.14-2.42-5-4-7.25-6.26-.89-.24-1.38-1-2-1.52l-3.63-3.3c-.14-.13-.25-.3-.39-.44-2-2-3.92-4-6-6a31,31,0,0,1-3.8-4,16.43,16.43,0,0,0-1.35-1.42c-.46-.47-.92-.93-1.36-1.42a37.67,37.67,0,0,0-4.86-4.84,2.78,2.78,0,0,1-.43-.41c-1.24-1.52-2.49-3-3.7-4.57a4.09,4.09,0,0,0-2.75-1.67c-2.33-.33-4.66-.69-7-1.06-.89-.14-1.79-.34-2.68-.51l-4.21-.86c-.12,0-.24-.11-.36-.15l-2.61-.82a2.77,2.77,0,0,1-.73-.26,5.89,5.89,0,0,0-4.31-.8,6.85,6.85,0,0,1-1.36,0,12.37,12.37,0,0,0-1.36,0c-.92.08-1.82.18-2.73.33a15.1,15.1,0,0,0-2.28.54c-1.24.4-2.46.88-3.69,1.34a3.47,3.47,0,0,0-1.93,2m183.21-7.3a9.52,9.52,0,0,0,1.13-.62c.5-.39,1-.85,1.52-1.26,1.06-.87,2.19-1.66,3.2-2.59a21.78,21.78,0,0,0,5.21-6.8,30.92,30.92,0,0,1,2.24-4.36,38.34,38.34,0,0,0,3-7.17,9.23,9.23,0,0,0-2.17-2.06q-2.73-2.07-5.46-4.17a10.43,10.43,0,0,1-1.33-1.16,21.86,21.86,0,0,0-3.38-3,33,33,0,0,1-4.1-3.65A7.73,7.73,0,0,0,276,75.53a54.36,54.36,0,0,1-5.67-4.83,4.23,4.23,0,0,1-1.12-1.58,15.36,15.36,0,0,0-3.77-4.56,10.85,10.85,0,0,0-.91,1.12c-.51.83-1,1.69-1.49,2.53a30.13,30.13,0,0,0-1.72,2.61,19.1,19.1,0,0,1-3.34,4.58,2.66,2.66,0,0,0-.61.77,9.74,9.74,0,0,1-1.75,2.34,12,12,0,0,0-2,2.46c1.17.84,2.26,1.66,3.41,2.42a37.65,37.65,0,0,0,3.5,2.8c.26.13.39.51.59.77a7.18,7.18,0,0,0,.8,1.1,3.86,3.86,0,0,1,1,2.09A12.43,12.43,0,0,0,265.81,96a6.44,6.44,0,0,1,1.17,2,11.51,11.51,0,0,0,2.61,4.33,3.29,3.29,0,0,1,.87,1.72,5.08,5.08,0,0,1,.13.78,13.18,13.18,0,0,0,1,3.36,2.66,2.66,0,0,0,.95,1.22c1.56,1.28,3.08,2.6,4.85,4.06M220.76,303.85c1-.62,1.79-1.25,2.69-1.76a3.54,3.54,0,0,0,1.77-2.45,6.11,6.11,0,0,0,.18-2.33c-.2-1.23-.41-2.45-.64-3.67-.17-.9-.4-1.79-.55-2.7a50.14,50.14,0,0,0-1-5c-.45-1.64-.79-3.3-1.16-5-.31-1.4-.61-2.81-.86-4.23a36.22,36.22,0,0,1-1.08-6.56,22.41,22.41,0,0,1-.89-5.58,5.39,5.39,0,0,0-.27-1c-.29-1.27-.57-2.53-.86-3.82-.13-.58-.23-1.16-.35-1.73-.31-1.48-.65-2.94-.91-4.42a73.17,73.17,0,0,1-.75-7.81,40,40,0,0,1,1.25-13.81,15,15,0,0,1,2.37-5.12c.95-1.25,2-2.46,2.94-3.69.18-.24.32-.51.53-.84a2.11,2.11,0,0,0-.71,0c-1,.34-2,.67-2.94,1.09a28.8,28.8,0,0,0-3.17,1.52c-.65.38-1.45.57-1.89,1.32a1.81,1.81,0,0,1-.92.71,5.26,5.26,0,0,0-2.53,2c-.48.62-1.07,1.15-1.6,1.73a9.71,9.71,0,0,0-2.74,4.44,1.73,1.73,0,0,1-.25.51,2.48,2.48,0,0,0-.27,2.07,2.18,2.18,0,0,1-.67,2.31,4.73,4.73,0,0,0-.65,1.16,5.63,5.63,0,0,0-.36,2.47,10.72,10.72,0,0,0-.32,2.7,33.42,33.42,0,0,1,.1,5.48,7.92,7.92,0,0,0,.38,2.51c.4,1.31.8,2.63,1.18,3.94a11.22,11.22,0,0,1,.55,3.68,6.8,6.8,0,0,0,.12,1.56c.2,1,.45,2,.68,3.05a60.18,60.18,0,0,1,1.69,7.64,15,15,0,0,0,.37,2.31c.54,2.22.87,4.48,1.55,6.67a17.32,17.32,0,0,0,.4,1.9,14.84,14.84,0,0,1,.78,4.38,18.31,18.31,0,0,0,.5,3.69,4.76,4.76,0,0,1,.13,1.36c0,.5.06,1,.08,1.52,6.77,4.27,6.09,4.68,8.12,7.66m-180.41-193a4.15,4.15,0,0,0-.54.57,21.91,21.91,0,0,1-1.52,2.5,8.52,8.52,0,0,0-1.57,2.64.9.9,0,0,1-.18.35,15.19,15.19,0,0,1-4,3.35,14.75,14.75,0,0,1-6.8,1.66,11,11,0,0,1-6.53-1.77A17.16,17.16,0,0,0,16,118.16a3.39,3.39,0,0,1-1-.88,11.4,11.4,0,0,1-.84-1.1L13,119.61a3.37,3.37,0,0,1,.44,1,4.41,4.41,0,0,0,1,2.29c.23.32.43.66.67,1a32.87,32.87,0,0,0,4.77,5.69c1.35,1.14,2.69,2.29,4.06,3.42a9.44,9.44,0,0,0,2.86,2c.35.12.61.48.91.73.56.44,1.12.9,1.69,1.33a8.06,8.06,0,0,1,1.12.79,7.13,7.13,0,0,0,2.54,1.44c.42.18.87.29,1.3.46a16.15,16.15,0,0,0,5.7,1.16A17.71,17.71,0,0,0,47,139.66a21.34,21.34,0,0,0,5.52-2.45A1.26,1.26,0,0,1,53,137c1.92-.42,3.18-2,4.95-2.72,1.39-1.42,3.45-1.89,4.74-3.43a9.61,9.61,0,0,0,3-2.44,4,4,0,0,1,.91-.74,3.67,3.67,0,0,0,1.3-1.41,8.7,8.7,0,0,0,.95-2.76,2.54,2.54,0,0,0-.29-2.08,5.55,5.55,0,0,1-.78-2.6c0-.3.11-.66-.4-.9a14.65,14.65,0,0,0-1.42.88,14.15,14.15,0,0,1-6,2.74,8,8,0,0,0-3,.75,1.26,1.26,0,0,1-.58.08,13.84,13.84,0,0,1-6.73-1,7.73,7.73,0,0,1-2-.84,19.6,19.6,0,0,1-5.25-6c-.63-1.21-1.39-2.37-2.2-3.73m132.26-108c.11.79.27,1.59.46,2.37.34,1.4.76,2.78,1,4.2a16.5,16.5,0,0,0,.88,3.4c.26.68.55,1.34.74,2,.44,1.53.84,3,1.23,4.57a35,35,0,0,1,1.38,4.47,25,25,0,0,0,1,3.8c.36,1.25.81,2.48,1.12,3.75s.91,2.44,1.15,3.71a41.61,41.61,0,0,1,1.37,5.71c0,.3.29.57.8.51,2.2-1.81,4.47-3.68,6.73-5.56a16.32,16.32,0,0,0,1.75-1.58,9.71,9.71,0,0,1,2.89-2.6c.28-.14.46-.47.69-.7,2.22-2.31,4.45-4.62,6.66-6.93a7.65,7.65,0,0,0,1.12-1.36c.92-1.58,1.85-3.17,2.68-4.8,1-2,2-4,2.87-6a15.16,15.16,0,0,0,1.07-3.3l-5.12-1a2.33,2.33,0,0,0-.78-.1,35.55,35.55,0,0,1-4.5,0A28.59,28.59,0,0,1,193.65,7a51.92,51.92,0,0,0-7.73-1.27,5.22,5.22,0,0,1-.57-.11c-1.5-.22-3-.47-4.48-.63a11.87,11.87,0,0,1-3-.75c-1.46-.56-3-1.05-4.45-1.52a2.84,2.84,0,0,0-.87.06M142.77,206.4a4,4,0,0,1,.46,2.6,3.41,3.41,0,0,0,0,1.35c.26,1.21.57,2.42.91,3.61a1.42,1.42,0,0,0,1.73.91.72.72,0,0,0,.47-.31,4.78,4.78,0,0,0,.61-3.74c-.31-.81.07-1.39.92-1.61a3.86,3.86,0,0,1,1-.16,1.53,1.53,0,0,1,1.7,1.33,2.29,2.29,0,0,1,0,.37,10.42,10.42,0,0,0,0,1.58,12.56,12.56,0,0,0,.3,1.92.92.92,0,0,0,1,.75,7.29,7.29,0,0,0,1.24-.2,15.91,15.91,0,0,0,.51-1.66,2.35,2.35,0,0,1,1.9-1.78,1.4,1.4,0,0,1,1.74.89c.19.54.32,1.09.51,1.8a5.09,5.09,0,0,0,.59-.64,14.68,14.68,0,0,1,4.51-4.57,28.42,28.42,0,0,0,5.58-5.75,1.32,1.32,0,0,0,.3-.51,10.77,10.77,0,0,1,2.12-3.94,3.09,3.09,0,0,0,.34-.71,41.61,41.61,0,0,0,2.41-7.87c.24-1.29.56-2.54.89-3.82a13.75,13.75,0,0,0,.53-4.46c-.1-1.63-.13-3.27-.19-4.91,0-.45,0-.91-.08-1.37,0-.09-.14-.18-.24-.3a2.23,2.23,0,0,0-.35.4,10.27,10.27,0,0,1-4.67,4.61c-2.22,1.23-4.5,2.35-6.73,3.58-1.66.92-3.39,1.73-5,2.72-2.45,1.52-4.81,3.15-7.21,4.74a5.82,5.82,0,0,0-.63.48,52.86,52.86,0,0,1-5.44,4.46,2.49,2.49,0,0,0-.62.75c-.69,1-1.36,2.09-2.06,3.11a24.86,24.86,0,0,0-2.67,4.78,7,7,0,0,0-.71,4.17,3.88,3.88,0,0,1,0,.76,8.55,8.55,0,0,0,.76,3.79l2.53.42V211.9a13.06,13.06,0,0,1,.51-4.65,3.6,3.6,0,0,1,.57-.83m-129-93.19c.51.27,1.06.38,1.25.71a9.75,9.75,0,0,0,4.68,3.72,8.17,8.17,0,0,0,1.89.47,21.48,21.48,0,0,0,4.09,0,6.54,6.54,0,0,0,2.64-.61A17.84,17.84,0,0,0,32,115a14.66,14.66,0,0,0,2.14-2c1.36-1.52,2.83-2.9,4.26-4.34a2.66,2.66,0,0,1,2.14-.76h.79c1.32.08,1.59.31,2,1.69l.21.76a6.48,6.48,0,0,0,1.61,3.1,2.42,2.42,0,0,1,.64,1,8.83,8.83,0,0,0,1.94,2.92,4.27,4.27,0,0,0,1.77,1.19,16.55,16.55,0,0,0,6.6.6,1.24,1.24,0,0,0,.38-.09,22.12,22.12,0,0,0,10.24-6.29c.53-.56,1.1-1.1,1.74-1.73a11.68,11.68,0,0,0-.43-5.63c-.83.71-1.66.36-2.47.15a19.35,19.35,0,0,1-4.27-1.44,2.86,2.86,0,0,0-1-.26c-1-.15-2.07-.24-3.1-.39-1.93-.26-3.88-.42-5.83-.57-2.28-.17-4.56-.4-6.82-.66a43,43,0,0,0-7.44-.19,13.69,13.69,0,0,1-3.32-.12,15.8,15.8,0,0,0-2.91-.24c-1.25,0-2.49,0-3.73,0a22.6,22.6,0,0,0-7,.47,6.23,6.23,0,0,1-.78.08l-4.21.81a9.72,9.72,0,0,0-1.32,4.35c0,.51-.16,1-.19,1.56a10.29,10.29,0,0,0,.07,4.35m143.85,3a20.37,20.37,0,0,0,4.3-2.8,60.91,60.91,0,0,1,5.79-4.7,13,13,0,0,0,1.75-1.56c.66-.65,1.22-1.38,1.9-2a12.48,12.48,0,0,0,2.76-4.25,2.62,2.62,0,0,0,.06-2.27,8.73,8.73,0,0,0-2.36-3.56c-1.45-1.22-2.88-2.47-4.3-3.73a94.19,94.19,0,0,1-7.36-6.48,7.34,7.34,0,0,0-.95-.71,17.65,17.65,0,0,0-2.75,1.61c-.8.67-1.71,1.16-2.54,1.77a12.38,12.38,0,0,0-2,1.84,6.34,6.34,0,0,1-2.48,2.17,1,1,0,0,0-.42.4,22,22,0,0,1-4.64,4.14,10.82,10.82,0,0,1-1.4.71,5.18,5.18,0,0,0-1.14.71,11.91,11.91,0,0,1-5.08,2.84,2.53,2.53,0,0,0-.55.37,5.18,5.18,0,0,0,.4.86,16.11,16.11,0,0,0,4.61,4.21,35.18,35.18,0,0,1,5.43,4.13,25.18,25.18,0,0,0,10.94,6.28m12.78-6.88c.38.43.61.74.89,1a32.29,32.29,0,0,0,5.07,4,20,20,0,0,1,2.52,1.87c1.34,1.15,2.61,2.38,3.95,3.55.73.65,1.52,1.22,2.35,1.87.75-.37,1.47-.68,2.14-1.06a46.47,46.47,0,0,0,6.3-4.67c2.57-2.13,5-4.45,7.7-6.4a14.64,14.64,0,0,0,1.6-1.45,3.15,3.15,0,0,0,.95-2.1,6.93,6.93,0,0,0-1.4-5.16l-.87-1.07c-1.35-1.69-2.68-3.39-4.06-5.08a14.35,14.35,0,0,0-1.57-1.74,34.71,34.71,0,0,1-4.39-4.76,12.24,12.24,0,0,0-.92-1A6.24,6.24,0,0,0,188,88.7a15.12,15.12,0,0,1-3.09,2.43,11.56,11.56,0,0,0-2,1.52,12.72,12.72,0,0,1-4.7,3.11,3.12,3.12,0,0,0-.64.51,5.15,5.15,0,0,0,.24.76,1.69,1.69,0,0,1,0,1.52c-1,2-1.16,4.32-3,5.8a1,1,0,0,0-.22.32,13.22,13.22,0,0,1-2.89,3.43c-.39.34-.76.71-1.3,1.22m-12.78,8.75c-.09.76-.14,1.34-.23,1.92s-.27,1.14-.37,1.71a15.41,15.41,0,0,1-1.73,3.7,6.43,6.43,0,0,1-2,2.41,22.22,22.22,0,0,0-3.68,3.51,7.23,7.23,0,0,0-.51.84,24.82,24.82,0,0,1,2.42,2.39,20.36,20.36,0,0,0,1.84,2,81.42,81.42,0,0,1,6.7,6.3,9.72,9.72,0,0,0,2.87,2,3.09,3.09,0,0,0,3.77-.64c.87-.79,1.76-1.56,2.58-2.4a22.07,22.07,0,0,1,5.33-4,13.6,13.6,0,0,0,4-3.67c.89-1.13,1.64-2.37,2.53-3.48a5.19,5.19,0,0,0,1.19-3.82c-.08-1.23-.13-2.46-.19-3.56-1.32-1-2.53-2-3.77-3-1.52-1.24-3-2.54-4.54-3.74a64.7,64.7,0,0,1-5.53-4.37,5,5,0,0,0-1-.55,24,24,0,0,1-9.72,6.41M213,149.72a3.92,3.92,0,0,0,1.49,1.48c1.56,1.19,3.21,2.26,4.72,3.52a37.87,37.87,0,0,0,6.12,4.56,4.49,4.49,0,0,1,1.85,2c.62,1.15,1.19,1.31,2.41.81a10.81,10.81,0,0,0,1.21-.65c.71-.45,1.39-1,2.14-1.37a57.81,57.81,0,0,0,8.29-5.58,14.79,14.79,0,0,0,3.42-3.72,18.11,18.11,0,0,0,2.62-9,4,4,0,0,0-.51-.41c-2-1.15-4.12-2.26-6.16-3.43a24.11,24.11,0,0,1-8.23-7.12,5,5,0,0,0-.63-.67c-1.26,1.18-2.43,2.32-3.62,3.43a15.31,15.31,0,0,1-4.42,2.49,38,38,0,0,1-4.65,1.46,3.81,3.81,0,0,0,.08.59,5.16,5.16,0,0,1-1.93,5.91,5.69,5.69,0,0,0-.75.63,2.74,2.74,0,0,0-.58.77,13.57,13.57,0,0,1-2,2.92,3.06,3.06,0,0,0-.91,1.52M41.21,63.67a4.22,4.22,0,0,0-.79-.14,20.21,20.21,0,0,0-9.22,3,5,5,0,0,0-.88.77c-1,1-2,2-3,3.08A48.83,48.83,0,0,0,24,74.25c-1.56,2.09-3,4.27-4.43,6.47a16.14,16.14,0,0,0-1.89,3.64c-.48,1.42-1,2.82-1.55,4.22a6.77,6.77,0,0,0-.59,3.63,6,6,0,0,1-.13,1.52c-.09.78-.24,1.55-.27,2.34,0,1.23,0,2.48.08,3.72a5.25,5.25,0,0,0,.22,1c.61-.06,1.13-.07,1.63-.17,1.8-.35,3.61-.64,5.38-1.09a32.92,32.92,0,0,1,7.22-.44c2.54-.1,5.08,0,7.66.07.31,0,.65,0,.8-.3C38,97.89,38,97,38,96.06c0-2,0-4.06,0-6.09,0-2.68.15-5.36.16-8a23.44,23.44,0,0,1,.53-5.08,17.8,17.8,0,0,0,.44-2.71A40.48,40.48,0,0,1,40.92,65a12.29,12.29,0,0,0,.29-1.29M193.32,170.44a4,4,0,0,0,.6.57c1.4,1,2.81,1.9,4.24,2.8a46.2,46.2,0,0,1,5.89,3.9,27.52,27.52,0,0,0,3.14,2.34c1.59,1,3.28,1.9,4.85,2.95a1.63,1.63,0,0,0,2.13,0c1.48-1.08,3-2.09,4.45-3.21a8.61,8.61,0,0,0,2.7-3.56,18.86,18.86,0,0,0,.61-2.07c.76-2.7,1.52-5.42,2.27-8.12a3.61,3.61,0,0,0,0-2.32,6.46,6.46,0,0,0-3.14-4.06,10.54,10.54,0,0,1-2.54-1.8c-2.37-2.16-4.69-4.37-7-6.56a2.18,2.18,0,0,0-.42-.24,24,24,0,0,1-2.06,1.39,21,21,0,0,1-2.53,1.09,15.91,15.91,0,0,1-2.41.82,23,23,0,0,1-2.73.28c-.84.06-1.7,0-2.54.12s-1.7-.66-2.61-.23c0,.22,0,.38.09.46a13.63,13.63,0,0,1,2,3.81,5.53,5.53,0,0,1,.31,2.1,22,22,0,0,1-.59,3.86,4.31,4.31,0,0,1-.5,1.26,10,10,0,0,1-2.47,2.75,7.44,7.44,0,0,0-1.7,1.66m-68.74-55.58a3.11,3.11,0,0,0-.38-.59,17.33,17.33,0,0,1-3.49-4.7c-.23-.4-.44-.81-.66-1.2a5.68,5.68,0,0,0-1.27-1.49c-1.4-1.26-2.76-2.57-4.1-3.91a11,11,0,0,0-2.93-2.28,11.61,11.61,0,0,1-2-1.3,11.18,11.18,0,0,0-4.27-2.31,1.08,1.08,0,0,1-.51-.23,17.29,17.29,0,0,0-3.2-1.85,15.21,15.21,0,0,1-4.06-2.3c-.16-.18-.51-.18-.71-.28a7.87,7.87,0,0,1-1.23-.62,26.55,26.55,0,0,0-6-2.89c-2.62-1-5.24-2-7.88-3-.85-.32-1.73-.58-2.61-.84a2.46,2.46,0,0,0-.76.08,10.62,10.62,0,0,1,.29,1.24A7.85,7.85,0,0,0,80,90.48a1.11,1.11,0,0,1,.12.57c.08,1.24.51,2.41.51,3.68a23.36,23.36,0,0,0,.48,3.89,9.66,9.66,0,0,1,0,4.28,3.35,3.35,0,0,0,.17,2.31h1.21c.85,0,1.7,0,2.54,0a1.58,1.58,0,0,1,.91.31,3.67,3.67,0,0,1,1.75,2.7,3.84,3.84,0,0,0,.92,2.33,1.7,1.7,0,0,0,2.41.24,1.77,1.77,0,0,0,.3-.31A11.64,11.64,0,0,0,92.9,107a30.09,30.09,0,0,1,5.23,1.13,32.46,32.46,0,0,1,4.93,1.92,50.18,50.18,0,0,0,9.85,3.28c2.47.58,5,.79,7.52,1.37a35.23,35.23,0,0,0,3.7.44c.1,0,.22-.1.51-.23m69.11-30.69a15.82,15.82,0,0,0,2.63,3.66,1.28,1.28,0,0,0,.51.28,10.23,10.23,0,0,1,3.79,3c1.39,1.56,2.65,3.23,4,4.82a8.26,8.26,0,0,0,3.7,2.79,4.22,4.22,0,0,1,.89.41,2.36,2.36,0,0,0,2.6-.06A6.68,6.68,0,0,0,213,98.3c1.89-1.71,3.78-3.42,5.65-5.15a7.25,7.25,0,0,0,.86-1.06c1.61-2.31,3.15-4.65,4.57-7.12a3.46,3.46,0,0,0-.37-4.47c-1.53-1.63-3.08-3.22-4.63-4.81-1.09-1.12-2.21-2.22-3.32-3.32s-2.19-2.25-3.38-3.28a9.2,9.2,0,0,1-1.89-2c-.51-.76-1.08-.71-1.39.12a5.91,5.91,0,0,1-2.49,2.93,26,26,0,0,1-4.84,2.56,12.87,12.87,0,0,0-2.91,1.48,29.91,29.91,0,0,1-5.07,9.94m-24.14,188a12,12,0,0,0,5.14-3.4,3.68,3.68,0,0,0,1.07-3.05c-.08-.64-.18-1.29-.28-1.93a18,18,0,0,1,.22-8.16,3.8,3.8,0,0,0,0-2.31,20.67,20.67,0,0,1-1.11-7.32c0-.64.05-1.3.05-1.95,0-.39-.07-.76-.11-1.25-.51-.05-1-.11-1.38-.12a10.11,10.11,0,0,1-1.74,0c-1.83-.45-3.65.23-5.47-.11a.93.93,0,0,0-.37.1,12,12,0,0,1-3.67.57c-1.63.08-3.25.23-4.88.33a4.5,4.5,0,0,1-1.16-.06,37.12,37.12,0,0,0-5.87-.17c-.8,0-1.17.44-1.15,1.27s.16,1.82.18,2.73c0,1.9,0,3.8,0,5.7a2.37,2.37,0,0,0,.83,1.89,66.74,66.74,0,0,0,5.28,4.67c.37.26.71.59,1,.88l3,2.5c1.35,1.13,2.73,2.24,4,3.42,2.09,1.88,4.13,3.81,6.28,5.79m-4.46-60c.23.51.44,1.06.71,1.57a1.38,1.38,0,0,1-.29,1.79,25.55,25.55,0,0,1-2.66,2.32,38.55,38.55,0,0,0-4.64,3.91,14.35,14.35,0,0,0-2.32,2.9c-.88,1.46-1.8,2.89-2.67,4.35a18.69,18.69,0,0,0-2.82,7.06,1.15,1.15,0,0,0,.24,1.19,57.35,57.35,0,0,0,8.69-.39c.78-.07,1.55-.21,2.33-.22,2.49-.08,5-.06,7.46-.16,1.9-.08,3.78-.28,5.67-.44.17,0,.33-.18.51-.28a10,10,0,0,0-.06-3.14,13,13,0,0,1,1.67-7.93,5.22,5.22,0,0,1,3.07-2.59c1.31-.41,2.61-.87,3.93-1.19.95-.23,1.95-.23,2.92-.4a13.71,13.71,0,0,0,1.88-.5c.24-.08.3-.71.09-.87a1.88,1.88,0,0,0-.64-.37,20.64,20.64,0,0,1-4.06-1.37,17.55,17.55,0,0,1-3.67-1.85c-.91-.63-1.89-1.16-2.79-1.81a55.91,55.91,0,0,1-5.87-4.26,7.72,7.72,0,0,0-2-1.3A17.76,17.76,0,0,1,167.6,210a7.83,7.83,0,0,0-2.37,2.14m85.85-71.31a2.41,2.41,0,0,0,.48-.3,31.37,31.37,0,0,1,4.16-4.15,3.71,3.71,0,0,0,.55-.57,33.08,33.08,0,0,0,3.79-6.17,13,13,0,0,0,.51-5.61.94.94,0,0,0-.11-.37,21.9,21.9,0,0,0-2.22-3.69,52.7,52.7,0,0,0-4-4.1c-.89-.76-1.74-1.58-2.61-2.39a4.2,4.2,0,0,0-1.45-1,12.9,12.9,0,0,1-1.93-1,3.92,3.92,0,0,1-2-2.27c-.09-.33-.44-.59-.66-.87a4.41,4.41,0,0,0-2,1.64,4.66,4.66,0,0,1-4.22,1.59,7.77,7.77,0,0,1-1-.24c-.23,0-.5-.09-.64.22a.63.63,0,0,0,0,.19,1.18,1.18,0,0,0,.24.31,3.44,3.44,0,0,1,1,3.9,3.25,3.25,0,0,0-.15,1.16,4.75,4.75,0,0,1-1.49,3.69,33,33,0,0,0-4.4,6.68,8.66,8.66,0,0,0,.7,1,32.7,32.7,0,0,0,6.72,6c2.39,1.48,4.84,2.87,7.2,4.4a31,31,0,0,1,3.44,1.89M41.74,98.87c.89,0,1.78.23,2.69.23l7.27.15a12.85,12.85,0,0,1,2.15.07,35.47,35.47,0,0,0,6.26.4,6.48,6.48,0,0,0,.77-.1A3,3,0,0,0,60.6,99a5.49,5.49,0,0,1-1.12-3.66c0-1.11,0-2.22-.14-3.32,0-.65-.09-1.3-.16-2-.1-1-.18-2-.35-2.91-.41-2.38-.85-4.76-1.3-7.14-.32-1.66-.65-3.32-1.05-5a12.64,12.64,0,0,0-.92-2.37c-.44-1-1.07-1.81-1.44-2.78A12.69,12.69,0,0,0,50.32,65a1.91,1.91,0,0,0-1.61-.51,7.42,7.42,0,0,1-1.56.07,11.18,11.18,0,0,1-1.53-.3c-.5,1.62-1,3.17-1.52,4.72-.08.23-.15.5-.21.75a28.24,28.24,0,0,1-1.08,5.15,3.41,3.41,0,0,0-.11.77c-.13,1-.24,1.95-.4,2.92a43,43,0,0,0-.81,6.6,1.29,1.29,0,0,1,0,.39,20.61,20.61,0,0,0-.18,6.83,22.83,22.83,0,0,1,0,2.34,10.48,10.48,0,0,0,.47,4.16M189.22,67.6a3.67,3.67,0,0,0-3,1.19,4.06,4.06,0,0,1-2.24,1.4,20.47,20.47,0,0,0-2.16.9,18.25,18.25,0,0,1-3.46,1.35,30.33,30.33,0,0,1-3.38,1,2,2,0,0,0-1,.61,9,9,0,0,1-4.25,2.46,6.55,6.55,0,0,1-1.2,1.42,13.16,13.16,0,0,1-4.33,2.25,4.58,4.58,0,0,0-2.4,1.6A30.22,30.22,0,0,0,165.06,85q4.2,3.66,8.47,7.29a2.34,2.34,0,0,0,.8.55,6.68,6.68,0,0,1,2.19,1.48,6.39,6.39,0,0,0,2.73-1.2l7-5.38c.51-.4,1-.82,1.57-1.18a14.91,14.91,0,0,0,5-5.12c.66-1.2,1.31-2.41,1.95-3.62a2.83,2.83,0,0,0,.12-2.28A9.8,9.8,0,0,0,193,72.11c-1.1-1.3-2.17-2.61-3.26-3.93a7.34,7.34,0,0,0-.55-.58m35.94,109.75c.36.31.62.5.85.74a11.25,11.25,0,0,0,5.34,3.15,17.83,17.83,0,0,1,4.44,2c1.34.8,2.79,1.44,4.06,2.37,2,1.48,2,1,3.55,0a2.43,2.43,0,0,0,.32-.24l6.36-5.51a2.56,2.56,0,0,0,1-1.85,9.68,9.68,0,0,0-.11-1.94c-.12-.78-.39-1.53-.51-2.3a33.57,33.57,0,0,0-1.18-5.14,3.67,3.67,0,0,0-1.56-2.17,8.74,8.74,0,0,1-2.13-2,44.94,44.94,0,0,0-6.13-5.73c-1.28.76-2.58,1.52-3.84,2.3-.95.59-1.85,1.24-2.75,1.9a5.54,5.54,0,0,1-2.53,1c-.64.1-1.27.24-1.86.37a2.49,2.49,0,0,0-.22.65,9.07,9.07,0,0,1-.63,3.25,20.73,20.73,0,0,0-.73,2.44,36.87,36.87,0,0,1-1.56,5.83,4.25,4.25,0,0,0-.13.87m25.59-34.51c-.05.51-.08.95-.15,1.4a14.72,14.72,0,0,1-1.87,5.73c-.41.66-.8,1.34-1.2,2a4.49,4.49,0,0,1-1.29,1.45c-.8.58-1.58,1.17-2.34,1.78s-.73,1.15-.11,1.64a20.53,20.53,0,0,0,3.48,2.54,12.83,12.83,0,0,1,3.95,2.85,11.54,11.54,0,0,0,6.15,3.23,4.16,4.16,0,0,0,2.67-.3c.66-.32.58-1.13.87-1.7a6.25,6.25,0,0,0,.47-1.29,24,24,0,0,1,1.47-4.06,38.17,38.17,0,0,0,1.68-4.39,68.46,68.46,0,0,1,2.94-9.92,1.21,1.21,0,0,0,.11-.37c0-.45.07-.89.09-1.25a40.17,40.17,0,0,0-8.84-6.3c-1.05.87-2.11,1.74-3.15,2.63-.65.55-1.3,1.09-1.9,1.68a2.22,2.22,0,0,0-.62,1,1.82,1.82,0,0,1-1.66,1.44,3.83,3.83,0,0,0-.75.23m-179-25.81c.54.06.66-.3.82-.55a20.41,20.41,0,0,0,3.15-7.56,22.88,22.88,0,0,0,.57-3.08,55,55,0,0,0-.73-11A72.87,72.87,0,0,0,73,84.43a2.45,2.45,0,0,0-.84-1.49,1.39,1.39,0,0,1-.48-1A17.62,17.62,0,0,0,71,78.47a16.94,16.94,0,0,0-4.44-7.31,14.74,14.74,0,0,1-1.25-1.25,16.86,16.86,0,0,0-9.88-4.75.41.41,0,0,0-.5.29.32.32,0,0,0,0,.14,19.57,19.57,0,0,1,4.06,6.17,7,7,0,0,0,.73,1.15,14.79,14.79,0,0,1,1.66,3.75,64.88,64.88,0,0,1,1.42,9.49c.09.78.19,1.52.34,2.31a11.76,11.76,0,0,1,.56,4.64,1.34,1.34,0,0,0,.13.76,12.63,12.63,0,0,1,.43,4.66,1.16,1.16,0,0,1-.51,1c-.24.2-.51.39-.92.71l4,1.41a3.54,3.54,0,0,1,1.1.4,3.79,3.79,0,0,0,2.17.79,1.21,1.21,0,0,1,1,.78,18.11,18.11,0,0,1,.92,3A23.1,23.1,0,0,1,71.9,114c-.1,1-.15,2-.15,3M85.33,270.59c.07.17.14.34.23.51s.25.3.39.44a18.81,18.81,0,0,0,5.88,4.19,32.22,32.22,0,0,1,6.6,4.23,34,34,0,0,0,5.33,3.66,13.34,13.34,0,0,1,2.26,1.52,29,29,0,0,0,5.15,3.56c.73.43,1.44.91,2.16,1.36s1.52,1,2.33,1.42a2.69,2.69,0,0,0,.68.16c.21-.95.36-1.78.6-2.59a2.4,2.4,0,0,0-.47-2.2c-.85-1.16-1.66-2.35-2.5-3.51a30.64,30.64,0,0,0-2.09-2.85,20.25,20.25,0,0,1-3-4.37A11.21,11.21,0,0,0,107,273.4a74.37,74.37,0,0,1-5.49-6.66q-3.17-4.25-6.38-8.45a12,12,0,0,0-.86-.89,17.78,17.78,0,0,0-1.52,1.36c-.82.93-1.49,2-2.37,2.84a17.23,17.23,0,0,0-2,2.63c-.51.75-1,1.49-1.52,2.27a2.18,2.18,0,0,0-.42,1.07,5.37,5.37,0,0,1-1.09,3M30.53,64.64a6.17,6.17,0,0,0-2.42.13c-1.61.51-3.21,1.13-4.77,1.78A31.24,31.24,0,0,0,19.12,69a46.14,46.14,0,0,0-7.35,6.17,6.08,6.08,0,0,0-1.1,1.37c-.89,1.52-1.79,3-2.57,4.63A40.11,40.11,0,0,0,5.56,88,74.68,74.68,0,0,0,4,97.82a5.35,5.35,0,0,0,0,1,39.83,39.83,0,0,0,1.78,9.8,11.55,11.55,0,0,0,1.57,3.14,15.16,15.16,0,0,1,.79,1.34c.4.68.76,1.38,1.21,2a1.91,1.91,0,0,0,2,1v-2.37a38.6,38.6,0,0,1,.14-5.69,10,10,0,0,1,.54-2.28,7.53,7.53,0,0,0,.64-2.84,7.18,7.18,0,0,0,.45-3.83c0-1.53,0-3,0-4.51a13,13,0,0,1,.38-3.11,31.31,31.31,0,0,0,.89-4.41,5.89,5.89,0,0,1,.47-1.9c.55-1.33,1.16-2.63,1.84-3.9a42.12,42.12,0,0,1,6.92-9.72c.1-.1.18-.21.26-.3A40.14,40.14,0,0,1,30.4,65.1s0-.11.08-.41m83.78,228a13.43,13.43,0,0,0-2.65-1.53,23,23,0,0,1-3.93-2.2c-2.56-1.83-5.07-3.73-7.72-5.41a14.88,14.88,0,0,1-1.6-1.13,37.73,37.73,0,0,0-7-4.62A17.06,17.06,0,0,1,85.14,273a2.62,2.62,0,0,0-.66-.44,20.09,20.09,0,0,0-1.71,4.06,21.33,21.33,0,0,1-1.66,4.78A1.65,1.65,0,0,0,81,282c-.15.77-.33,1.53-.45,2.31a30.91,30.91,0,0,0-.76,5.41c0,1,0,2.09.08,3.13a5.89,5.89,0,0,0,.27,1,8.35,8.35,0,0,1,4-.22,26.4,26.4,0,0,0,5.69.07,6.87,6.87,0,0,1,1.57,0,9.27,9.27,0,0,0,4.24-.54,4.71,4.71,0,0,1,2.32-.27,32.42,32.42,0,0,1,3.67.66,4.57,4.57,0,0,0,1.91.14,17.17,17.17,0,0,0,1.75-.26,11.18,11.18,0,0,1,3.51-.23,23,23,0,0,0,4.69-.12,2.91,2.91,0,0,0,.79-.39m95.92-165.35a22.18,22.18,0,0,0,2.84,4,11.65,11.65,0,0,1,1.61,2,2.3,2.3,0,0,0,1.83,1.27,14.91,14.91,0,0,0,2.87.58,13.75,13.75,0,0,0,6.34-2.41,1.48,1.48,0,0,0,.28-.28,29.22,29.22,0,0,0,4.52-5.91,29.39,29.39,0,0,1,3.56-5.41,3.94,3.94,0,0,0,.73-1.37c.34-.92.61-1.86.88-2.8a2.74,2.74,0,0,0-.11-1.72,14.68,14.68,0,0,0-5.67-7.8L226,111.55c-.75.78-1.25,1.84-2.44,2.15-.16,0-.29.24-.42.4-.46.54-.87,1.14-1.37,1.66a33.81,33.81,0,0,1-2.66,2.56,4.61,4.61,0,0,0-1.35,1.36,3.82,3.82,0,0,1-.71.93,12.7,12.7,0,0,1-2.54,2.14,10.5,10.5,0,0,1-2.13,2.78c-.32.32-.67.62-1,.92s-.71.57-1.13.9m98,188.58c-.14-.23-.3-.46-.46-.68a56,56,0,0,0-4.14-4.71,8.26,8.26,0,0,1-2.24-3.4,12.47,12.47,0,0,0-2.83-4.66,16.2,16.2,0,0,1-2.69-4.06c-1.57-3.32-3-6.66-4.85-9.85a14.14,14.14,0,0,0-.77-1.37,1.26,1.26,0,0,0-.76-.51c-.27,0-.58.18-1,.31.14,1.56.23,3.05.42,4.54.39,2.91.88,5.8,1.42,8.7a21.08,21.08,0,0,1,.35,5.66c-.08,1.11-.15,2.22-.13,3.32,0,2.23.15,4.45.22,6.67.09,2.68.24,5.35.56,8a3.93,3.93,0,0,0,.44,1.84,1,1,0,0,0,.43,0,57.8,57.8,0,0,0,7-2.92,6.83,6.83,0,0,0,1-.59l6.38-4.56a5,5,0,0,0,1.56-1.75M291.87,286c.93,1.64,1.8,3.17,2.68,4.7a45.62,45.62,0,0,1,2.57,5.08,23.2,23.2,0,0,0,3.9,6.54,16.25,16.25,0,0,1,3.45,5.66,4.62,4.62,0,0,0,1,1.63c1.06,1.16,2.06,2.37,3.08,3.56.2.23.34.56.95.47a2.25,2.25,0,0,1,.24-.36,27.16,27.16,0,0,0,3.14-5.87c.66-1.85,1.34-3.7,2-5.55q.88-2.49,1.75-5c.47-1.4.38-1.59-1-1.85a9.9,9.9,0,0,1-3.13-1.1,35.33,35.33,0,0,1-3.49-2.13,29.46,29.46,0,0,0-3.7-2.22c-1.57-.82-3.15-1.62-4.66-2.54s-3-2-4.57-3a4.43,4.43,0,0,0-1.69-.92c-1.27.54-1.73,1.75-2.54,2.91m-112.8-28.35a2.08,2.08,0,0,1-.2.36,3.41,3.41,0,0,0-.67,3.47,5.38,5.38,0,0,1,.15,1.74,5.29,5.29,0,0,0,.92,3.32,51.07,51.07,0,0,1,4.71,2.83,52.08,52.08,0,0,1,4.15,3.71c1.18-.22,1.93-.79,2-1.93.13-1.49.17-3,.24-4.48a1,1,0,0,0,0-.18,15.77,15.77,0,0,1-.08-6.63,17.4,17.4,0,0,0,.26-1.74,86.79,86.79,0,0,0-.23-10.2c-.13-1.37-.18-2.74-.24-4.11,0-.46,0-.92,0-1.38a.78.78,0,0,0-.81-.71c-.5,0-1,.1-1.56.1a27.65,27.65,0,0,1-6,.33,1.44,1.44,0,0,0-.58.06c-1.13.26-2.27.51-3.4.78a3.89,3.89,0,0,0-.3,2.68c.11.78.19,1.56.26,2.34s.08,1.84.23,2.74c.29,1.6.61,3.2,1,4.79a6.2,6.2,0,0,1,.24,2.1M117.7,298.77c-.32-.07-.51-.18-.65-.14a8.62,8.62,0,0,0-3.09,1.18,11.15,11.15,0,0,1-3,1.44q-2.31.79-4.65,1.52a10,10,0,0,1-2.48.56,5.53,5.53,0,0,0-2.92,1,7.4,7.4,0,0,1-2.17.86c-2.28.59-4.62.95-6.83,1.76a33.16,33.16,0,0,1-7.21,1.76,2,2,0,0,0-1.64.92c1.12,2.47,2.22,4.9,3.34,7.33.71,1.55,1.52,3,2.13,4.63A6.18,6.18,0,0,0,92,325.12c1.66-1.48,3.33-2.85,4.85-4.37,3.23-3.25,6.38-6.6,9.55-9.89a49.35,49.35,0,0,0,3.48-3.74,45,45,0,0,1,6-6.2,16.07,16.07,0,0,0,1.85-2.11m6.8-50.11a2.06,2.06,0,0,0-.78,1.71,10.85,10.85,0,0,1-.64,3.87,11.64,11.64,0,0,0-.51,5.79,9,9,0,0,1-.16,4.26,4.59,4.59,0,0,0-.15,1.73,47,47,0,0,1-.56,7,8.28,8.28,0,0,0-.46,3.66c0,.71-.14,1.42-.18,2.14-.09,1.64-.21,3.27-.23,4.89,0,1.13.23,1.41,1.27,1.65.25.06.51.08.78.12a2.82,2.82,0,0,1,1.56.75,5,5,0,0,0,.61.51.63.63,0,0,0,.86-.18c.32-.72.57-1.46.92-2.16a20.9,20.9,0,0,0,1.46-4.27,30.9,30.9,0,0,1,1.39-4.7c1.17-2.77,2.11-5.62,3.12-8.45s1.52-5.67,2.27-8.52a2,2,0,0,0-.79-2.42,1.67,1.67,0,0,1-.47-.61,9,9,0,0,0-3.76-3.35,43.55,43.55,0,0,1-5.59-3.39m70.78,29.83c1.11-.34,2.16-.71,3.22-1s2.16-.51,3.24-.75,2.16-.41,3.25-.62a1.84,1.84,0,0,0,.06-.62,32.91,32.91,0,0,1-.9-6,7.76,7.76,0,0,0-.27-1.34,47.15,47.15,0,0,1-1.36-8.51,38.35,38.35,0,0,0-.76-5.43,17.39,17.39,0,0,1-.34-6.43,10.39,10.39,0,0,0,.06-1.37,43.79,43.79,0,0,1,.48-6,4.11,4.11,0,0,0-.08-.86,7.28,7.28,0,0,0-1.17.46,3,3,0,0,1-3,.24,2.78,2.78,0,0,0-.5-.11l-3.39,1.11a1.21,1.21,0,0,0-.89.94,2.68,2.68,0,0,0-.07,1.16c.54,2.16.26,4.43.85,6.59a3.84,3.84,0,0,1,.06,1.17c-.07,2.23.27,4.42.33,6.64a40.64,40.64,0,0,1-.25,7.23,5.6,5.6,0,0,0,.36,3.45,2.11,2.11,0,0,1,.23.95,23.94,23.94,0,0,1-.5,6.81,7.43,7.43,0,0,0-.16,1.33l1.52,1M146.75,129.42a7.31,7.31,0,0,0,.62-.48,24.41,24.41,0,0,1,2.34-2.09,11.87,11.87,0,0,0,3.56-4.12,16.88,16.88,0,0,0,1.49-5,9.86,9.86,0,0,0-1.35-.56,16.53,16.53,0,0,1-6.49-3.56c-2.13-1.74-4.2-3.55-6.34-5.29-1.82-1.49-3.7-2.91-5.58-4.35-.08-.07-.24,0-.44-.07-.71.87-1.44,1.78-2.19,2.68a20.75,20.75,0,0,1-2.58,2.1c-.82.74-2.25.73-3.1,1.79a4.27,4.27,0,0,0,.89.75,3.71,3.71,0,0,1,1.9,1.59,2.61,2.61,0,0,0,1.19,1,4.44,4.44,0,0,1,2.09,1.71,14.29,14.29,0,0,0,2.87,3.19,8.92,8.92,0,0,1,.93,1,38,38,0,0,0,2.85,3.23,23,23,0,0,0,4.57,4,3.69,3.69,0,0,1,.71.66l2,1.84M289.33,326.22a18.5,18.5,0,0,0-.19-2c-.6-2.89-.78-5.83-1.11-8.75-.09-.78,0-1.57-.12-2.35a77.91,77.91,0,0,1-.06-9.42,15.39,15.39,0,0,0,0-2.54c-.43-3.89-.92-7.79-1.4-11.67,0-.07-.21-.11-.39-.19a3.06,3.06,0,0,0-.35.64c-.43,1.3-.86,2.61-1.23,3.92a18.45,18.45,0,0,1-3.4,6.8,6.81,6.81,0,0,0-1.19,2.45,27.3,27.3,0,0,0-.5,2.7,13.49,13.49,0,0,1-.24,1.55c-.95,3.13-1.78,6.29-3,9.33a8.31,8.31,0,0,0-.62,2.46,12.82,12.82,0,0,1-.84,3.82,7.67,7.67,0,0,0-.23,1.08c.26.17.4.34.58.38,1.33.33,2.66.7,4,.91a30.19,30.19,0,0,1,4.2.9,7.25,7.25,0,0,0,2.13.22c.85,0,1.7,0,2.54-.08a12,12,0,0,0,1.34-.16M191.65,148.38c.67,1,1.85,1,2.61,1.73s1.48,1.46,2.24,2.2a23,23,0,0,0,6.42.33,11.59,11.59,0,0,0,8.68-5.77,12.1,12.1,0,0,1,2.57-3.17,4.28,4.28,0,0,0,1.38-2.54,4.65,4.65,0,0,0-.36-2.87,11.73,11.73,0,0,0-2-3.13c-1.38-1.58-2.92-3-4.4-4.48a5.16,5.16,0,0,0-.86-.54c-.42.51-.77,1-1.16,1.43-1.87,2.09-3.75,4.18-5.65,6.25a9.69,9.69,0,0,1-1.3,1.18,30,30,0,0,0-4.06,4c-1,1.19-2.1,2.33-3.1,3.53a5,5,0,0,0-1.05,1.88m127.61,130c-.08-.94-.18-1.85-.23-2.75-.13-1.82-.23-3.65-.34-5.47a5,5,0,0,0-.16-.77c-.53-2.21-1-4.46-1.62-6.65-.56-1.93-1.32-3.82-2-5.72,0-.05-.1-.08-.22-.17-.79.83-1.59,1.68-2.41,2.51a4.78,4.78,0,0,1-1,.89,2.44,2.44,0,0,0-1.38,1.55.88.88,0,0,1-.86.7,3.23,3.23,0,0,0-2.37,1.21c-4.06,3.56-8,7.35-11.86,11.25.05.46.05,1,.15,1.49a10.18,10.18,0,0,0,.4,1.33,3.82,3.82,0,0,0,1,.11,79,79,0,0,1,8.43-.14,58.94,58.94,0,0,0,6.64-.34,6.77,6.77,0,0,1,3.28.31c.81.27,1.61.55,2.43.77a2.69,2.69,0,0,0,2.12-.1M281.8,267.55a11.86,11.86,0,0,0-1.88-3.74c-.77-1.21-1.52-2.43-2.2-3.7a25.32,25.32,0,0,1-1.81-3.92,46.27,46.27,0,0,0-4.66-8.58A13.65,13.65,0,0,0,270.2,246a16.86,16.86,0,0,1-2.37-4.06,6.88,6.88,0,0,0-.48-.76c-1.18.39-1.23.35-1.56.87a2.66,2.66,0,0,1-1.31,1.12,2.51,2.51,0,0,0-.78.55,38.27,38.27,0,0,1-6.55,4.61.94.94,0,0,0-.45,1.46,4.8,4.8,0,0,0,.74.88c2.09,2.08,4.21,4.12,6.25,6.23a72.61,72.61,0,0,1,6.82,7.32c.23.31.58.51.84.81a3.84,3.84,0,0,0,2.61,1.16,29.49,29.49,0,0,1,6.71,1.29,4.92,4.92,0,0,0,1.15.1m-2.08,23a40.12,40.12,0,0,0-4.24.47c-1.85.41-3.65,1-5.48,1.52a3.91,3.91,0,0,0-2.13,1.31,5.62,5.62,0,0,1-3.36,1.87c-.71.17-1.42.29-2.1.51-1.18.33-1.52.75-1.32,2a2.26,2.26,0,0,1-.71,2.11,15.52,15.52,0,0,1-1.53,1.26,26.54,26.54,0,0,0-2.32,1.79,23.43,23.43,0,0,1-5.32,3.61,4.29,4.29,0,0,0-1.85,1.38c.34.48.65.9.94,1.34a17,17,0,0,0,3.79,4.2,21.63,21.63,0,0,1,1.85,1.73c.43.4.84.8,1.3,1.25a9.56,9.56,0,0,0,1-.75c1.09-1.13,2.2-2.24,3.23-3.43,2.31-2.67,4.57-5.37,6.85-8.07a28.69,28.69,0,0,0,2.45-3.05,41.46,41.46,0,0,1,4.65-6.06q1.94-2.08,3.83-4.2a5.51,5.51,0,0,0,.45-.73m-11-50.75A22.54,22.54,0,0,0,271,244q2.44,3.67,4.83,7.38a9.32,9.32,0,0,1,1,1.91c.71,2,1.68,3.83,2.54,5.74a17.49,17.49,0,0,0,1.76,3.05,14.15,14.15,0,0,1,2.46,4.65.63.63,0,0,0,.2.33,1.2,1.2,0,0,0,.48.2c.06,0,.18-.17.21-.28a.86.86,0,0,0,0-.39c-.24-2.86-.51-5.73-.76-8.59a28.38,28.38,0,0,1-.15-4.7,16,16,0,0,0,0-2c0-1.89-.08-3.78-.13-5.68a2.7,2.7,0,0,0-.09-.75,13.44,13.44,0,0,1-.48-4.46v-6.11c0-.51,0-1.07-.65-1.43a42.22,42.22,0,0,1-6.09,1.37,6.37,6.37,0,0,1-1.66,1.19,2.67,2.67,0,0,0-1.58,1.33,4.2,4.2,0,0,1-2,1.75,15.93,15.93,0,0,0-2.14,1.28M197.46,115.08a4.14,4.14,0,0,0,.64.55,15,15,0,0,1,4.57,3.64,9.09,9.09,0,0,0,2.51,1.94c.74-.82,1.45-1.58,2.14-2.37,2.57-3,5.58-5.52,8.26-8.39,2.32-2.49,5-4.65,7.14-7.3a12.27,12.27,0,0,0,1.47-1.89,9,9,0,0,0-2.51-1.9,9.24,9.24,0,0,1-3-2.24,6.18,6.18,0,0,0-.83-.62l-3.19,3a9.55,9.55,0,0,1-5.91,2.8,10.56,10.56,0,0,0-1.16.21,12.55,12.55,0,0,0-.26,1.61,6,6,0,0,1-2,4.12,33.22,33.22,0,0,1-5,4.35,21,21,0,0,0-2.16,1.7,9.72,9.72,0,0,0-.68.76m92,154.75a5.94,5.94,0,0,0,.76-.89c1.16-2,2.33-4.09,3.44-6.16.62-1.15,1.12-2.37,1.69-3.56,1.44-3,3.1-5.9,4.8-8.77a47.13,47.13,0,0,1,5.35-8,2,2,0,0,0,.18-.36,17.62,17.62,0,0,0-5.56-4.85,32.12,32.12,0,0,0-4.9-1.92c-.08,0-.21.09-.4.18a14.46,14.46,0,0,1,0,2.28A39.84,39.84,0,0,1,294,242c-.58,2.07-1.31,4.1-1.9,6.17-1,3.52-2,7-2.92,10.58-.33,1.19-.55,2.42-.81,3.62q-.55,2.6-1.1,5.17a1.45,1.45,0,0,0,1,1.71c.45.16.88.35,1.31.55m-66.73-5.07a5.33,5.33,0,0,0,.64-.71c1.61-2.78,3.19-5.56,4.81-8.33a51.22,51.22,0,0,1,3.91-6.09c.85-1.07,1.73-2.13,2.51-3.25,1.26-1.84,2.45-3.71,3.65-5.59a2.61,2.61,0,0,0,.18-.78c-1.19.06-2.24.05-3.27.19a4.31,4.31,0,0,1-1.52,0,6.63,6.63,0,0,0-3.28.14,17.62,17.62,0,0,1-5.58.9c-1.55-.06-3.11.1-4.65.15a8.07,8.07,0,0,0-.29,3.78,23.44,23.44,0,0,1,.45,4.27c0,1.63.13,3.25.16,4.88a12.8,12.8,0,0,0,.06,2,41,41,0,0,0,1.05,4.38,11.14,11.14,0,0,1,.51,2.68,1.69,1.69,0,0,0,.67,1.44M62.45,209.45A6.47,6.47,0,0,0,62,213c.24,1.67.57,3.34.83,5a73.53,73.53,0,0,0,1.64,7.46,16.4,16.4,0,0,0,1.4,3.64,26.83,26.83,0,0,1,1.17,2.7c.3.71.55,1.46.85,2.18.87,2,2.18,3.87,2.89,6a6.74,6.74,0,0,0,.78,1.32,14.75,14.75,0,0,0,4-.88,3.88,3.88,0,0,1,2.47-3.14,8.74,8.74,0,0,1,2-.71,10.51,10.51,0,0,0,2.35-1,6.72,6.72,0,0,0-1.62-3.38,8.1,8.1,0,0,0-1,.18c-1.19.37-2.37.78-3.56,1.12a9.63,9.63,0,0,1-1.92.32A3.54,3.54,0,0,1,71.11,232a7,7,0,0,1-.47-1,5.34,5.34,0,0,1,3.14-3.37c1-.43,1.94-.77,2.9-1.19a6.85,6.85,0,0,0,1-.62,8.89,8.89,0,0,0-1.83-2.7l-1.77.23c-1.23.2-2.47.37-3.69.59a6.36,6.36,0,0,1-3.08-.41,1.8,1.8,0,0,1-1.33-1.66,5.66,5.66,0,0,1,1.94-1.53c.72-.44,1.52-.77,2.22-1.25a12.21,12.21,0,0,0,2.13-1.36A8.08,8.08,0,0,0,69.94,215,26.22,26.22,0,0,1,65,210.46a2.76,2.76,0,0,0-2.57-1.07m121.09-67.82c.62-.54,1.07-.91,1.52-1.31,1.56-1.49,3.1-3,4.66-4.48.9-.85,1.83-1.68,2.78-2.48,2.2-1.85,4.45-3.65,6.62-5.53a17.37,17.37,0,0,0,3.18-3.4,2.88,2.88,0,0,0-.28-.59,21.62,21.62,0,0,0-1.57-1.74c-1.76-1.66-3.56-3.28-5.4-5-1.43,1.06-2.85,2.21-4.36,3.22s-3.21,2-4.81,2.94a2.35,2.35,0,0,0-.08.6,18.49,18.49,0,0,0,.32,1.93,6.33,6.33,0,0,1-1.17,5.18,28.52,28.52,0,0,0-2.35,3.6,15,15,0,0,1-1.35,1.91c-.27.36-.55.71-.8,1,.59,1.71,2.22,2.46,3.12,4.12M291.76,270.68c.56.59,1,1,1.37,1.43.2.25.34.55.8.5a4.81,4.81,0,0,0,.57-.44c1.79-1.73,3.59-3.44,5.33-5.21a39.79,39.79,0,0,1,3.95-3.51,90.29,90.29,0,0,0,8.6-7.15c.54-.55,1.3-.88,1.71-1.69a46.81,46.81,0,0,0-6.8-11,8.26,8.26,0,0,0-2,2.74c-1,1.85-1.9,3.72-2.88,5.58-.3.58-.61,1.15-1,1.7a57.18,57.18,0,0,0-5.29,9.8,20,20,0,0,1-3.4,5.76c-.38.44-.68.95-1.08,1.48M249.29,104.6a3,3,0,0,0,.36.72,24.31,24.31,0,0,0,3.41,3.24c.81.55,1.52,1.22,2.31,1.82.57.44,1.15.85,1.75,1.26.92.62,1.87,1.2,2.77,1.85,1.64,1.18,3.25,2.42,4.88,3.62a10.71,10.71,0,0,0,1.15.74.75.75,0,0,0,.55,0,.55.55,0,0,0,.37-.62c-.17-.83-.32-1.66-.56-2.48l-3-10.15a12.94,12.94,0,0,0-1.33-3,74.49,74.49,0,0,0-4.61-7.07,12.08,12.08,0,0,1-1.29-2.2A14.23,14.23,0,0,0,254.56,90a5.15,5.15,0,0,1-.4.9c-.22.33-.51.59-.74.91a4.78,4.78,0,0,0-1,3.1,13.67,13.67,0,0,1-.11,2.93,3.31,3.31,0,0,0,0,1.71,2,2,0,0,1-.33,1.86c-.6.77-1.2,1.52-1.82,2.3-.24.29-.54.55-.85.86m-167,202.32a6.24,6.24,0,0,0,1-.11q2.64-.75,5.27-1.56c4.12-1.28,8.2-2.7,12.35-3.86a100.68,100.68,0,0,0,11.68-4c.31-.12.79-.11.84-.73a4.45,4.45,0,0,0-1.06-.37,22.44,22.44,0,0,0-6.44.21,4.74,4.74,0,0,1-2.12,0c-.51-.13-1-.14-1.52-.22a8.79,8.79,0,0,1-1.52-.26,7.18,7.18,0,0,0-3.68-.15,18.15,18.15,0,0,1-3.89.39,23.37,23.37,0,0,0-3.13.06,17.57,17.57,0,0,1-4.1,0,10.3,10.3,0,0,1-5-1.58,2.41,2.41,0,0,0-.82-.24,1.64,1.64,0,0,0-.16.29,36.64,36.64,0,0,0,.64,7.17,13.58,13.58,0,0,0,.93,3.19c.21.61.46,1.2.72,1.83M225.82,99.47c4.32-4.16,8-8.7,12.23-12.68,1.48-1.38,2.79-2.94,4.16-4.42a2.16,2.16,0,0,0,.29-.51.61.61,0,0,0,0-.19,23.48,23.48,0,0,0-6-4.63c-.91.89-1.73,1.73-2.61,2.54a9.67,9.67,0,0,1-6,3c-1.08,1.93-2.26,3.81-3.22,5.8a18.67,18.67,0,0,1-2.17,3.47c-.71.92-1.46,1.82-2.27,2.81,1.78,1.64,3.67,3.11,5.63,4.81M218.24,220.7c0-.11-.08-.23-.11-.34a5,5,0,0,0-.77,0c-.51.06-1,.12-1.55.22a3.94,3.94,0,0,1-1.93,0,16.06,16.06,0,0,0-5.25-.54,39.68,39.68,0,0,0-4.49.31,7,7,0,0,0-3.6,1.44c-.83.71-1.74,1.36-2.58,2.07a32.91,32.91,0,0,1-4.17,2.54,4.15,4.15,0,0,0-1.42,1.31,3,3,0,0,0-.62,2c.06.62-.26,1.27-.26,1.9,0,1,.09,2.07.15,3.2a3.74,3.74,0,0,0,.87.13c1.82-.12,3.66-.19,5.46-.43a19.26,19.26,0,0,1,5.52-.14c.61-1.14,1.26-2.27,1.83-3.43a10.24,10.24,0,0,1,2.3-3.15,20.79,20.79,0,0,1,5.83-4.23,4.55,4.55,0,0,0,1.12-.77,7.42,7.42,0,0,1,3.07-1.66,1.79,1.79,0,0,0,.59-.39M140.58,324.24a10.5,10.5,0,0,0-1.3-2.28c-2-3.09-4.36-5.89-6.16-9.09-.74-1.31-1.66-2.5-2.5-3.76-1-1.58-2.06-3.19-3.1-4.77-.75-1.15-1.52-2.29-2.27-3.44a.51.51,0,0,0-.68-.23l0,0a6.75,6.75,0,0,0-.14,1.1c0,1.52.06,3,.07,4.5,0,2.54.16,5.11,0,7.66s0,5.23.1,7.84c0,.9.22,1.79.34,2.75a81.86,81.86,0,0,0,15.65-.3M232.5,104.9c.75.81,1.49,1.64,2.25,2.44a1.7,1.7,0,0,0,.62.48c1.16.43,2.32.88,3.51,1.23a2.39,2.39,0,0,0,2.53-.63c.27-.29.62-.51.89-.78a39,39,0,0,1,4.15-3.87,7.17,7.17,0,0,0,2.68-4.21,35.72,35.72,0,0,0,1.45-6.09,2.5,2.5,0,0,1,.19-.76,4,4,0,0,0,0-2.13,10,10,0,0,1-.34-1.53,3.12,3.12,0,0,0-1.7-2.53,15.35,15.35,0,0,0-2,2.08,29.25,29.25,0,0,1-2.36,2.61c-1,.91-1.92,2-2.93,2.87s-1.73,2.12-2.64,3.14a33.55,33.55,0,0,0-3.65,4.34,12.06,12.06,0,0,1-1.71,1.86,2.57,2.57,0,0,0-1,1.46m86.6,176.24c-.51-.18-.8-.31-1.11-.39-1.27-.28-2.54-.58-3.83-.82a3.71,3.71,0,0,0-1.52,0,14.24,14.24,0,0,1-3.51.29l-9-.12a22.69,22.69,0,0,1-4.51-.15,1.17,1.17,0,0,0-.35.14c-.18,1.25-.15,1.3.6,1.77,1.55.95,3.12,1.89,4.65,2.88a34.31,34.31,0,0,0,4.06,2.36A36.57,36.57,0,0,1,312,291.4a4.83,4.83,0,0,0,.84.51,26.53,26.53,0,0,0,4.56,1.6,3,3,0,0,0,.57-1.7,11.08,11.08,0,0,1,.18-2.15c.6-2.76.45-5.58.94-8.53M134,228.11a9.83,9.83,0,0,0,1.61.35,12.77,12.77,0,0,0,1.95-.12c3.24-.35,6.48-.74,9.72-1.05a2.6,2.6,0,0,0,2.22-1.35c.13-.24.29-.44.43-.66a24.13,24.13,0,0,1,5-6.26,1.65,1.65,0,0,0,.46-.62,6.14,6.14,0,0,0,.19-.93c-3.17.23-6.22.16-9.28.17a4.48,4.48,0,0,1-3.08-.89l-.42.13a3.47,3.47,0,0,1-4.72-1.41l0,0a3.73,3.73,0,0,0-.64-.73c-.12-.11-.35-.08-.63-.13,0,.51-.08.95-.1,1.38a6.65,6.65,0,0,1-.44,2.29,15.1,15.1,0,0,0-.93,3.36c-.35,2.12-.85,4.2-1.33,6.51m89.53-47.65c-.59.48-1.08.9-1.6,1.29s-1.08.74-1.59,1.15-1.12.9-1.66,1.38-1.22.54-1.38,1.37a5.89,5.89,0,0,0,1,.62,15.06,15.06,0,0,1,3.27,1.79,10,10,0,0,0,1.35.77c1,.57,2.07,1.12,3.09,1.7a17.78,17.78,0,0,0,1.69,1,23.69,23.69,0,0,1,4.41,2.51,8,8,0,0,0,1.22.58,24.71,24.71,0,0,1,4.45,2c.39.25.78.47,1.19.68s.58.32.9.08a18.65,18.65,0,0,0,.56-8.3,19,19,0,0,1-2.54-.87,47.08,47.08,0,0,1-4.24-2.45,22.15,22.15,0,0,0-3.49-1.8c-1.32-.57-2.63-1.16-3.91-1.82-.87-.45-1.66-1-2.69-1.67m14.15,89.2c.17-.58.38-1.12.51-1.69s.22-1.28.35-1.92a4,4,0,0,1,.19-.76,45.64,45.64,0,0,1,2.73-6.92c.43-.8.72-1.67,1.11-2.51a18.57,18.57,0,0,1,1.07-2.08,36.49,36.49,0,0,1,4.06-5.28c.34-.38.78-.72.71-1.44-.9-1.09-1.85-2.25-2.83-3.38a3.46,3.46,0,0,0-.78-.53,6,6,0,0,0-1.43,2,44.22,44.22,0,0,1-3.94,6.75c-.47.78-.93,1.56-1.33,2.37a17.29,17.29,0,0,1-1.85,3.2,36,36,0,0,0-3.08,4.49,16.93,16.93,0,0,1-2.28,3,5.09,5.09,0,0,0-.68.71l-3,4.78a2.77,2.77,0,0,0-.18.7,5.84,5.84,0,0,0,3-.13,22.83,22.83,0,0,1,3.29-.45,14.78,14.78,0,0,0,4.36-.84m-.41,2.61c-1.37.22-2.54.38-3.68.59a25.44,25.44,0,0,1-3.46.66,37.67,37.67,0,0,0-4.85.65,6.2,6.2,0,0,0-.95.31c.3,1.56.55,3.05.89,4.51a13.41,13.41,0,0,1,.47,2.89,5.24,5.24,0,0,0,.11,1c.36,1.66.71,3.32,1.13,5a2.56,2.56,0,0,0,.67,1.59,2.75,2.75,0,0,0,.57-.12,26,26,0,0,1,6.77-1.83,3.34,3.34,0,0,0,2.1-.76c-.06-1.48-.15-3-.18-4.61s-.05-3.25-.06-4.88.62-3.05.47-4.93M95.83,256.07a3.17,3.17,0,0,0,.41.62,17,17,0,0,1,3.24,3.92,10.18,10.18,0,0,0,1.85,2,18.25,18.25,0,0,1,2.44,2.53c.72.93,1.52,1.8,2.25,2.71a27,27,0,0,1,3.74,5,26.53,26.53,0,0,0,2.25,3.67c.94,1.33,2,2.57,3,3.84a4.18,4.18,0,0,0,.74.5,5,5,0,0,0-.15-.94c-.45-1.09-1-2.14-1.39-3.25A66.45,66.45,0,0,1,112,270a50.77,50.77,0,0,0-4.49-11.9,29.36,29.36,0,0,1-2.78-6.25,4.23,4.23,0,0,0-.62-1A21.19,21.19,0,0,0,101,252.1c-1,.63-2.12,1.27-3.14,2a14.14,14.14,0,0,0-2,2m29.67,39.61c-.73.47-.83.59-.6,1,.57,1,1.15,2,1.77,3.05,2.8,4.5,6.09,8.63,8.82,13.19a7.34,7.34,0,0,0,.71.95,76.58,76.58,0,0,1,4.56,6.35,38.23,38.23,0,0,0,2.61,3.43,1.12,1.12,0,0,0,1.55.32l0,0a3.63,3.63,0,0,0,2.15-3c0-1.52-.07-3-.11-4.51a3.06,3.06,0,0,0-1-2.24c-.71-.67-1.36-1.42-2.09-2.06-4.49-3.9-9-7.77-13.49-11.67-1-.9-2-1.92-2.92-2.9a11.9,11.9,0,0,0-2-1.86m-20.58-45.1a7.18,7.18,0,0,0,1.17,2.07c1.52,2.54,3,5.07,4.48,7.61a7.4,7.4,0,0,1,.57,1.25c.64,1.84,1.28,3.7,1.87,5.58a16.32,16.32,0,0,1,.47,2.29,24.75,24.75,0,0,0,1.45,5.48,64,64,0,0,1,3.38,9.19,2.47,2.47,0,0,0,.46.86c.08.11.32.11.63.2,0-.41,0-.81,0-1.22a58.14,58.14,0,0,0-1.57-7.48c-.21-.82-.43-1.64-.58-2.48a59.75,59.75,0,0,1-1.06-8.94c0-.39-.07-.78-.1-1.17-.41-4.1-1.17-8.12-2-12.18-.19-1-.45-1.9-.71-2.85a.85.85,0,0,0-1-.66h0a37.4,37.4,0,0,0-5.5,1.35,3,3,0,0,0-2,1.12m7.4,74.39c1.71-6.8,3.41-13.52,5.07-20.22,0-.1-.06-.24-.13-.45a3.1,3.1,0,0,0-.61.47c-.92,1.11-1.86,2.21-2.72,3.35-2.17,2.88-4.9,5.25-7.24,8a61.44,61.44,0,0,1-4.56,4.57c-1.36,1.31-2.76,2.58-4.15,3.86-.24.22-.51.43-.32.89a5.51,5.51,0,0,0,.71.07l13.14-.36a6.91,6.91,0,0,0,.76-.17m163.24-49.22a23.86,23.86,0,0,1-2.08-1.81,5.09,5.09,0,0,0-2.15-1.28c-1.47-.54-3-1.06-4.38-1.71a6.5,6.5,0,0,0-4.74-.46,5.63,5.63,0,0,1-3.49,0,4.64,4.64,0,0,0-2.31-.07,20.35,20.35,0,0,1-2.33.2l-8,.42c-.51,0-1.11-.06-1.46.4a10.35,10.35,0,0,0-1.12,1.82,1.16,1.16,0,0,0,.26,1.37l3,.28a55.28,55.28,0,0,0,7.82.47,35.21,35.21,0,0,1,9.16.81c.9.17,1.81.29,2.72.37,1.16.12,2.34.23,3.51.31a5.18,5.18,0,0,0,1.52-.07c1.26-.28,2.5-.65,4.08-1.06m18.78-40.83a3.71,3.71,0,0,0-1-.56,9.41,9.41,0,0,1-2.61-.8,1.84,1.84,0,0,0-.56-.18c-1.76-.11-3.52-.22-5.28-.31a.83.83,0,0,0-.92.54,16.28,16.28,0,0,0,.46,2.31,2.8,2.8,0,0,1,.22.95,38.41,38.41,0,0,1,.3,5.67,14.07,14.07,0,0,0,.34,3.88,16.3,16.3,0,0,1,.35,5.07c-.14,1.3-.26,2.61-.39,3.91a15.94,15.94,0,0,0,.75,6.39,9.16,9.16,0,0,0,.47-1.23,52.19,52.19,0,0,1,1.72-6.64c1.7-5.49,3.39-11,5.33-16.39.29-.8.51-1.62.81-2.61m-155.2,26.84a16.19,16.19,0,0,0-3,7,14.63,14.63,0,0,1-1.66,4.81,85.39,85.39,0,0,0-4.7,11.42l.51.36c.31-.25.62-.5.91-.75q6.62-6.13,13.13-12.4a1.61,1.61,0,0,0,.54-1.58,4.37,4.37,0,0,0-.59-1.43c-1.2-1.79-2.48-3.52-3.52-5.43a17.33,17.33,0,0,0-1.59-2m109.74-77.83L245,187a1.53,1.53,0,0,0-.64,1.16c-.08,1.23-.17,2.47-.24,3.7a15.06,15.06,0,0,1-.22,2.32c-.37,1.64-.87,3.25-1.37,5a7.26,7.26,0,0,0,.91.66c.5.28,1.08.44,1.59.71,1.22.65,2.4,1.33,3.6,2a10,10,0,0,0,3.13,1.43c.06-.19.16-.33.13-.43-.38-1.45-.76-2.9-1.18-4.34a9.38,9.38,0,0,1-.09-4.65c.3-1.4.66-2.79.87-4.21a17.25,17.25,0,0,1,.62-2.67c.11-.36.19-.73.29-1.11l-3.56-2.61m28,96.73c-1.49.29-2.5.54-3.55.68a42.1,42.1,0,0,0-6.48,1.53c-.81.25-1.59.6-2.39.87a6.51,6.51,0,0,1-2.24.62,6,6,0,0,0-2.26.41,17.65,17.65,0,0,1-2.45.73,37.79,37.79,0,0,1-4.93,1.23,85.92,85.92,0,0,1-8.89,2.43,2.4,2.4,0,0,0-.38.12,1.23,1.23,0,0,0-.85,1.38c0,.32.17.62.22.94.18.95.33,1.93.51,2.9.06.29.17.57.25.86a17.52,17.52,0,0,0,6.32-2.35,15.87,15.87,0,0,1,2.09-1.08c2.24-1.08,4.48-2.16,6.74-3.19s4.39-2.08,6.67-2.88c3-1.05,5.88-2.21,8.77-3.42a6.39,6.39,0,0,0,2.82-1.77M99.2,235.17a3.16,3.16,0,0,0,.75.05A48.62,48.62,0,0,1,105.3,234a13.38,13.38,0,0,0,2.48-.75l-.33-.51c-.58-1.08-.54-1.24.42-1.92a5,5,0,0,1,.57-.28l.71.27a3.09,3.09,0,0,0,4.38-2.65c0-.26,0-.5.06-.78a18,18,0,0,0-.51-4.86,5.94,5.94,0,0,0-2.34-3.49c-1,.75-2.07.14-3.28.19-.8.65-1.68,1.32-2.5,2.07a6.34,6.34,0,0,0-1.52,1.78,9.38,9.38,0,0,1-2.21,2.72c-.3.31-.75.51-.71,1.19a5.16,5.16,0,0,1,.94-.23c.84-.06,1.69-.08,2.53-.06a1,1,0,0,1,.94,1.08.58.58,0,0,1,0,.19,3.68,3.68,0,0,1-.9,1.92c-1.18,1.38-2.39,2.75-3.61,4.11-.33.38-.73.71-1.2,1.15m28,58.88a26.61,26.61,0,0,0,3.49,3.55c5.11,4.21,10.19,8.46,15.16,12.81.19.15.37.38.77.17a3,3,0,0,0,.1-.66c-.12-2.88-.23-5.76-.36-8.63a1.58,1.58,0,0,0-1.27-1.52c-2-.77-4-1.59-6-2.39-.78-.32-1.55-.69-2.37-.95q-4-1.28-7.89-2.94c-.3-.13-.62-.32-.92-.11a5.12,5.12,0,0,0-.69.71m61.7-141.86c-1,.86-2,1.63-2.86,2.48a32.61,32.61,0,0,0-2.37,2.61,14.5,14.5,0,0,0-2.28,2.78,2.92,2.92,0,0,0,.23.47,99.7,99.7,0,0,0,7.35,7,3.87,3.87,0,0,0,1.09.51,11.09,11.09,0,0,0,4-6.81,3.39,3.39,0,0,1,.15-.77,1.77,1.77,0,0,0-.19-1.52c-.65-1.21-1.31-2.41-2-3.6a4.1,4.1,0,0,0-.64-.74c-.78-.77-1.57-1.52-2.48-2.44m1.34,72.66c-.34-.21-.65-.54-1-.57a8.12,8.12,0,0,0-3.29.29,19.7,19.7,0,0,0-4.57,1.72c-1.66.21-2.37,1.42-3,2.78a10.37,10.37,0,0,0-.32,6.16.68.68,0,0,0,.71.54,4.1,4.1,0,0,0,1.16-.06,11.7,11.7,0,0,1,3.12-.33c.91,0,1.83-.07,2.74-.14.58,0,1.16-.16,1.74-.25l1.77-.29a29.24,29.24,0,0,0,0-4.39,12,12,0,0,1,.6-4.44c.09-.3.16-.62.26-1m-68.14,74.22a5.35,5.35,0,0,0-.79,1.05,44.89,44.89,0,0,0-3.66,12.36,93.14,93.14,0,0,1-2.4,11.71,4.11,4.11,0,0,0,0,.7,34,34,0,0,0,6.54-.29c.17,0,.33-.18.57-.32,0-1.94,0-3.89-.11-5.85a44.53,44.53,0,0,1,0-5.89,48.31,48.31,0,0,0,.1-6.48c-.14-2.29-.24-4.56-.18-7m-55.78-56.4a3.34,3.34,0,0,0,.12-.77,7.85,7.85,0,0,0-1.16-3.71c-.51-.78-.93-1.59-1.48-2.31a11.22,11.22,0,0,0-5-4,3.94,3.94,0,0,0-3.05.1,8.2,8.2,0,0,0-3.56,3,4.55,4.55,0,0,0-1,3.11,11.85,11.85,0,0,1-.06,1.19,13,13,0,0,0,1,5.58,2.15,2.15,0,0,0,.37.66c.51.51,1.07,1,1.64,1.42a46.68,46.68,0,0,0,6.09-2.12,24,24,0,0,1,3.87-1.37,18,18,0,0,0,2.24-.77M243.5,277.09a21,21,0,0,0-1.21,8.29,11.79,11.79,0,0,0,1.29-.26c3.22-1.05,6.47-2,9.77-2.79a24.79,24.79,0,0,0,2.85-.73,64,64,0,0,1,7.67-2.34,5.45,5.45,0,0,0,1-.47,4.42,4.42,0,0,0-1-.41,22.4,22.4,0,0,0-5-.36,16.41,16.41,0,0,1-3.9.05c-2.33-.23-4.68-.32-7-.73a25.75,25.75,0,0,0-4.39-.25M90.47,230a6.09,6.09,0,0,1-1-.55.77.77,0,0,1-.23-.67,5.85,5.85,0,0,1,.5-1c.27-.58.82-1,.81-1.8a11.63,11.63,0,0,1-5.22-1.37c-.22-2.72-.41-5.25-.63-7.79s-.33-5.08-.79-7.59c-.58.1-.65.51-.71.89a25.89,25.89,0,0,0-.16,7.61c.21,1.82.45,3.63.75,5.43a10.65,10.65,0,0,1,0,3.9,2.55,2.55,0,0,0,.47,2.2,11.62,11.62,0,0,1,.71,1.16,31,31,0,0,1,1.85,3A29.27,29.27,0,0,1,89,237.57a22.68,22.68,0,0,0,3.93-.73,2.65,2.65,0,0,1,1-2.24c1.15-1.07,2.25-2.18,3.36-3.29.14-.14.48-.32,0-.66l-1.79,1.1a7,7,0,0,1-4.94.88l-.76-1.28c.24-.51.44-.9.65-1.33m29.56,46.18a29.73,29.73,0,0,0,.5-5.07c0-.85.1-1.7.17-2.54s.19-1.56.22-2.34c.06-1.31,0-2.6.1-3.93s.26-2.73.33-4.11a56.37,56.37,0,0,1,.75-8.79,3.57,3.57,0,0,0,0-1c0-.62-.42-1-1-.9a30.63,30.63,0,0,1-4.88.24,5.31,5.31,0,0,0-1,.23,2.17,2.17,0,0,0,0,.51,47.71,47.71,0,0,1,1.6,5.64,83.78,83.78,0,0,1,1.66,11,80.39,80.39,0,0,0,.93,9.55,2.07,2.07,0,0,0,.66,1.46m145.54-9.59a1.77,1.77,0,0,0,0-.46,11.14,11.14,0,0,0-2-2.65A51.66,51.66,0,0,0,259,259a5.5,5.5,0,0,1-.66-.71c-.76-.89-1.53-1.8-2.29-2.67a8.29,8.29,0,0,0-1.14-1.08,1.26,1.26,0,0,0-1.77.18c-.62.75-1.19,1.52-1.77,2.32s-1.33,1.76-2,2.66c-.21.29-.5.61-.36,1a13.26,13.26,0,0,0,5.61,2.7,21,21,0,0,1,6.66,2.74,5.16,5.16,0,0,0,4.27.46M172.85,153.32a6.89,6.89,0,0,0,1.83-1.9c.72-.92,1.42-1.87,2.21-2.72,1.29-1.39,2.64-2.72,4-4.06.22-.22.43-.48.71-.77l-2.4-1.8-2.41-1.9a21.14,21.14,0,0,0-3.55,2.92,19.81,19.81,0,0,1-4.83,4l-2.21,1.09a7.86,7.86,0,0,0,2.68,2.28,13.27,13.27,0,0,1,2.3,1.79,4,4,0,0,0,1.69,1.12m90.91-32.41v3.63a4.42,4.42,0,0,0,.16,1.14,3.64,3.64,0,0,1-.29,2.85l-2.17,4.22a39.16,39.16,0,0,0,3.34,2.54,27.83,27.83,0,0,0,3.83,2.28,34.76,34.76,0,0,0-1.24-17.14,14.46,14.46,0,0,0-3.64.5m.1,173.07a2.56,2.56,0,0,0-.73,0c-1.66.34-3.3.78-5,1-.9.14-1.76.47-2.65.55a11.74,11.74,0,0,0-3,.73,4.16,4.16,0,0,1-1.33.31,4.29,4.29,0,0,0-2.34.89,14.19,14.19,0,0,1-3.19,1.87.9.9,0,0,0-.69,1.08,1,1,0,0,0,.15.34c.58,1.24,1.16,2.49,1.77,3.71a10.79,10.79,0,0,0,.75,1.15,4.41,4.41,0,0,0,.78-.32,69.42,69.42,0,0,0,9.93-7.29,16.87,16.87,0,0,1,4.63-3.26c.33-.15.75-.24.94-.75M119.69,101.57c.84,1.19,1.69,2.34,2.5,3.51a22.14,22.14,0,0,0,3,3.84,6.78,6.78,0,0,0,1,.65,32.52,32.52,0,0,0,4.23-4.15,21.5,21.5,0,0,0,1.75-2.6,2.3,2.3,0,0,0,.11-1c-1-.21-1.9-.34-2.77-.59s-1.69-.69-2.56-1a6.92,6.92,0,0,1-2.47-1.16l-.17-.09c-.91-.35-1.8-.75-2.73-1-.65-.22-1.12.16-1.28.84-.19.88-.41,1.75-.64,2.72m34.12,182.33c-.68,1.71-.74,1.78-2.37,2.65-.24.11-.47.23-.7.36a1.24,1.24,0,0,0-.55,1.17,66.09,66.09,0,0,1,.11,9,2.88,2.88,0,0,0,0,.59,1.08,1.08,0,0,0,.65.91c1.29.63,2.58,1.27,3.88,1.88a4.79,4.79,0,0,0,1.05.22,13.48,13.48,0,0,0,.69-5.67,14.78,14.78,0,0,1,0-1.76,4.16,4.16,0,0,0-.26-1.52,15.8,15.8,0,0,1-1.15-4.53,20.28,20.28,0,0,0-1-3.15c0-.08-.21-.12-.32-.17m-12.49,44.55a3.61,3.61,0,0,0-.8-.13,24.89,24.89,0,0,1-7.8,0,.86.86,0,0,0-.39,0,8.49,8.49,0,0,1-3.51-.17,10.7,10.7,0,0,0-3.7.17A9.43,9.43,0,0,0,125,332a8.52,8.52,0,0,0,.51,3.32,23.36,23.36,0,0,0,4.06-.73,45.72,45.72,0,0,0,4.45-1.52,10.51,10.51,0,0,0,1.4-.66q2-1.06,3.95-2.17a3.75,3.75,0,0,0,1.91-1.83m147-218.8c.6.58,1.2,1.19,1.82,1.74,1.9,1.69,3.75,3.49,5.77,5a68.06,68.06,0,0,0,6.09,4.29,8.94,8.94,0,0,1,1.09.83c1.73,1.41,3.42,2.85,5.18,4.21s3.37,2.49,5,3.74c.63.48,1.22,1,1.81,1.49.75.63,1.48,1.29,2.23,1.92,1.56,1.31,3.13,2.59,4.68,3.9s2.72,2.47,4.21,3.55A28.31,28.31,0,0,1,330.3,144c1,1,2,2,3.12,3s2.15,1.72,3.25,2.54,2.23,1.6,3.36,2.37a.74.74,0,0,0,1-.17h0a.84.84,0,0,0,0-1.19s0,0,0,0a6.43,6.43,0,0,0-.76-.62,70.2,70.2,0,0,1-5.95-4.49,6.86,6.86,0,0,0-.64-.46c-2.17-1.58-4.4-3.09-6.5-4.75-3-2.39-6-4.89-9-7.34-2.58-2.11-5.18-4.21-7.77-6.31-.76-.62-1.52-1.28-2.27-1.88-2.44-1.88-4.89-3.73-7.33-5.62-.67-.5-1.3-1.09-1.94-1.66-2.45-2.17-4.5-4.74-7.11-6.77a30.42,30.42,0,0,1-2.24-2.16,2.24,2.24,0,0,0-1.31,1.25M129.76,290.55c.15.19.24.41.38.47,1.36.47,2.73.91,4.09,1.38,1.86.64,3.72,1.26,5.56,2s3.52,1.43,5.28,2.14c.3.12.61.24.88,0a1,1,0,0,0,.1-.38c-.18-2.42-.37-4.84-.58-7.24,0-.24-.22-.44-.36-.7a66.38,66.38,0,0,0-8.2,1.19,40.89,40.89,0,0,1-5,.83,4,4,0,0,0-2.12.4M230.47,79.46a9.93,9.93,0,0,0,3.3-2.63,4.18,4.18,0,0,0,.4-.89.92.92,0,0,0-.38-1.2,17.22,17.22,0,0,0-1.88-1l-7.11-3.81a3.39,3.39,0,0,0-.73-.27L219,68.21c-.23-.06-.47-.25-.69.14a23.71,23.71,0,0,0,2.16,2.21,23.22,23.22,0,0,1,3.7,4,14.87,14.87,0,0,0,6.28,4.89M192.67,292.69l.85-.34a8.62,8.62,0,0,1,6.66.5,3.38,3.38,0,0,1,2.06,4.32,3.42,3.42,0,0,1-.87,1.34c-.55.65-1.08,1.32-1.66,1.92a16,16,0,0,1-1.37,1.09c-.1.08-.13.25-.22.43,1.44-.14,2.19-1.27,3.24-1.85.34.4-.05.65-.06.95a1.87,1.87,0,0,0,.1.74.57.57,0,0,0,.51,0,1.61,1.61,0,0,0,.51-.77c0-.18-.26-.4-.38-.59,0-.1.05-.18.1-.21,1.25-1,1.47-2.74,2.49-3.94a.65.65,0,0,0,.12-.36c.06-1.36.32-2.71-.82-3.87a11.19,11.19,0,0,0-1.66-1.64c-1-.68-2.08-1.35-3.08-2.08a16.6,16.6,0,0,0-2.73-1,.89.89,0,0,0-.74.12,14.85,14.85,0,0,0-3.39,2.26c-1.15,1.19-1.2,1.29-.18,2.58a4.51,4.51,0,0,0,.54.44m-.1-8.32a5.81,5.81,0,0,0,2.75-.05,2.81,2.81,0,0,1,1.52.13,21.44,21.44,0,0,1,4.47,2c.65.42,1.34.79,2.09,1.22a5.94,5.94,0,0,1,1.71-3c.32-.32.57-.71.87-1.06a1.77,1.77,0,0,0,.43-1.63c-.22-.95-.46-1.88-.71-2.9a6.71,6.71,0,0,0-1,.13c-1.83.47-3.63,1.09-5.48,1.42a35.25,35.25,0,0,0-4,.88,4.39,4.39,0,0,0-2.54,2,2.53,2.53,0,0,0-.13,1M93.28,225.34c.71-.51,1.23-.88,1.74-1.27.83-.62,1.63-1.29,2.49-1.89a11.8,11.8,0,0,1,5.46-2.46,2.35,2.35,0,0,0,1.06-.42c.87-.58,1.69-1.22,2.54-1.83a1.11,1.11,0,0,0,.52-1.49v0c-.3-.79-.71-1.52-1-2.33a4.94,4.94,0,0,0-2.32-2.53c-.18-.09-.36-.16-.54-.23-.51.3-1.15.36-1.28,1.08.57.28.82.74.51,1.28a5.42,5.42,0,0,1-1.06,1.36,8.86,8.86,0,0,0-1.76,2.1,3.84,3.84,0,0,1-1.21,1.23,5.78,5.78,0,0,0-2.49,2.66,1.3,1.3,0,0,1-.35.48A4.12,4.12,0,0,0,94,223.44c-.12.55-.8.87-.71,1.9m29.57,109.9a35.33,35.33,0,0,0-.51-6.81,17.22,17.22,0,0,0-3.93.07,21.32,21.32,0,0,0-4.15.22,38.27,38.27,0,0,0-.79,4.63,7.91,7.91,0,0,0,.11,1.08,35.23,35.23,0,0,0,9.27.81m115.91-38.79a1.28,1.28,0,0,0,0-.39,11.36,11.36,0,0,1-1-4.56,1.2,1.2,0,0,0-.61-1.25,9.31,9.31,0,0,0-3.56,1.29,11.31,11.31,0,0,1-4.27,1.88,1.55,1.55,0,0,0-1.32.83c.28,1.26.56,2.57.84,3.87a44.94,44.94,0,0,0,9.91-1.66M91.61,140.38a10.89,10.89,0,0,0-.56,1.87,22.32,22.32,0,0,0-.13,3.92,11.21,11.21,0,0,1-.14,3.11,14.16,14.16,0,0,0-.2,1.95,1.68,1.68,0,0,0,.2.48,6.48,6.48,0,0,1,3.2-1.87,1.39,1.39,0,0,1,1.42.44,5.18,5.18,0,0,1,1.3,5.93,1.73,1.73,0,0,0-.15.55c0,.11.06.31.14.34a.81.81,0,0,0,.51,0,.91.91,0,0,0,.44-.36,4.81,4.81,0,0,0,.71-3.74,18.84,18.84,0,0,0-2-5.53,11.5,11.5,0,0,1-.67-1.62,12,12,0,0,0-4.1-5.5M268.43,59.65c.14.1.22.22.34.26a14.34,14.34,0,0,0,7.15.5,6.43,6.43,0,0,0,4.76-4.75.84.84,0,0,0-.35-1.13.86.86,0,0,0-.48-.09,13.11,13.11,0,0,0-7,1.47,16.91,16.91,0,0,0-4.18,3.25,1.75,1.75,0,0,0-.23.5m-61.93,7a5.21,5.21,0,0,0-2.8-.55c-1,.08-2.08.11-3.11.2a45.72,45.72,0,0,0-6.18.74.5.5,0,0,0-.28.66.45.45,0,0,0,.06.12,1.79,1.79,0,0,0,.27.28A11.72,11.72,0,0,1,197.73,72a2.06,2.06,0,0,0,.51.51,1.48,1.48,0,0,0,.47-.06c1.64-.79,3.28-1.57,4.91-2.38.4-.22.79-.46,1.17-.71a3.73,3.73,0,0,0,1.74-2.63m46.95,100.94c.12.83.17,1.48.32,2.1.24,1.08.58,2.14.85,3.22a7.8,7.8,0,0,1,.16,4.44,3.1,3.1,0,0,1-.93,1.89c-.71.67-1.46,1.32-2.17,2a7.14,7.14,0,0,0-.63.82c1,.51,1.68,1.4,2.81,1.77a17.49,17.49,0,0,0,.64-2.1,12.94,12.94,0,0,1,1.21-3.53,25.46,25.46,0,0,0,1.08-2.31c.65-1.71,1.27-3.44,1.83-5.18a11.9,11.9,0,0,0,.76-2.7,16.81,16.81,0,0,1-2.83.24,24,24,0,0,1-3.14-.67m-108.6,109.5c-1,1-1.66,1.67-2.39,2.32-.93.82-1.88,1.62-2.88,2.37-1.57,1.15-3.21,2.22-4.79,3.37a3.37,3.37,0,0,0-1.27,1.27c1.07.24,2-.32,2.91-.42s1.92-.37,2.88-.54,1.94-.32,2.9-.51a11.26,11.26,0,0,0,3-.75c-.43-2.24-.07-4.5-.37-7.12m134.07,5.65a23.15,23.15,0,0,0-2.64,1.31,25.23,25.23,0,0,1-5.16,2.34c-1.29.48-2.61.82-3.85,1.41-1.52.73-3.08,1.39-4.66,2a10.7,10.7,0,0,0-1.39.71c-.18.11-.5.18-.37.6a15.91,15.91,0,0,0,3.62-.65c2.14-.57,4.27-1.21,6.42-1.77a23.1,23.1,0,0,1,2.87-.56,2.91,2.91,0,0,0,1.45-.51l4.37-3.32c.08-.07.09-.24.16-.44l-.82-1.18m-33.5-14.45a2.85,2.85,0,0,0,.71.12c.59,0,1.17-.13,1.76-.21a47.93,47.93,0,0,1,8.79-.65h1.58c.13,0,.26-.15.61-.37-.64-.19-1.05-.34-1.47-.44a21,21,0,0,1-7.59-3.12,3.49,3.49,0,0,0-1.8-.73c-.14.16-.36.28-.39.43a8,8,0,0,1-1.61,3.32,2.1,2.1,0,0,0-.6,1.66M39.54,148.81c-.17,1-.38,1.8-.44,2.63a6.58,6.58,0,0,0,.16,1.93,16.41,16.41,0,0,0,.71,1.8,5.74,5.74,0,0,0,3.81,3.36.5.5,0,0,0,.68-.23.45.45,0,0,0,0-.36c-.41-2-.81-3.94-1.27-5.9a2.92,2.92,0,0,0-.66-1.19,6.84,6.84,0,0,0-3-2M154.66,303.51c-1.14-.55-2.24-1.11-3.36-1.64a3,3,0,0,0-.78-.1c-.06.41-.13.73-.15,1.05-.12,2.67.22,5.33.28,8,0,1,0,2,0,2.95,0,.27-.08.66.47.82.17-.34.32-.67.48-1a6.91,6.91,0,0,0,1.29-4l1.72-6m-43.19,25.21a2.62,2.62,0,0,0-.68-.24c-3.45,0-6.91.11-10.36.18-.09,0-.17.13-.25.21s.07.28.15.32a17.49,17.49,0,0,0,2.2.79,9.75,9.75,0,0,1,3,1.28,5.35,5.35,0,0,0,1.94.85,11.72,11.72,0,0,1,3,1,4.63,4.63,0,0,0,1,.14,10.19,10.19,0,0,1,0-4.53M265.23,54.86c.21-.1.29-.12.32-.16A35.71,35.71,0,0,0,270.37,43a19,19,0,0,0,.32-2.12c0-.11-.05-.31-.13-.34a.72.72,0,0,0-.5,0,2.36,2.36,0,0,0-.58.51,13,13,0,0,0-3,5.69c-.58,2.54-1,5.11-1.45,7.67a2.2,2.2,0,0,0,.17.45M210.66,303.25a11.45,11.45,0,0,1,3.35,3.08c.24.28.51.55.75.8a7.47,7.47,0,0,0,2.9-1.34,9.8,9.8,0,0,0-5.22-6.22,7.78,7.78,0,0,0-1.78,3.68M36.1,149.62c-.85.8-1.48,1.46-2.17,2a7.79,7.79,0,0,0-2.21,4.24,4.37,4.37,0,0,0,0,1.35.72.72,0,0,0,.8.64h0a2.39,2.39,0,0,0,.75-.16,4.9,4.9,0,0,0,3-3.38,15.26,15.26,0,0,0-.16-4.72M100.56,210a5,5,0,0,0-3.93,1.84,2.77,2.77,0,0,1-2.2,1.06c-.17,0-.34.16-.46.22a18,18,0,0,0-.81,2.68c-.13,1-.86,1.77-.51,3.05.59-.65.95-1.25,1.43-1.77s1-1.08,1.47-1.58a17.14,17.14,0,0,1,1.64-1.43A16.44,16.44,0,0,1,99,213c.62-.35,1.27-.64,2-1-.64-.51-.23-1.22-.41-1.95m-11-35.52.31.05c.13-.14.31-.26.36-.43a72.76,72.76,0,0,0,2.54-9.05,22.42,22.42,0,0,1,.71-4.06c.38-1,.66-2.12,1-3.18a3.08,3.08,0,0,0,.07-.68A1.33,1.33,0,0,0,93,157a6.34,6.34,0,0,0-.36,1.22,17.28,17.28,0,0,1-.84,3.82,3.5,3.5,0,0,0-.13,2.28,2.1,2.1,0,0,1-.38,2,3.52,3.52,0,0,0-.77,2.35,16.73,16.73,0,0,1-.41,2.11c-.28,1.18-.39,2.42-.58,3.63m89.66,95.62c-.11.78-.21,1.35-.26,1.92a2.35,2.35,0,0,0,.55,1.82,14,14,0,0,0,2.78,2.54c.73-.22,1.49-.41,2.22-.66.21-.06.36-.29.59-.5-.59-.6-1.09-1.1-1.57-1.61s-1-1.17-1.57-1.75a7.24,7.24,0,0,0-2.74-1.79M82.48,172.6a13.77,13.77,0,0,0,4.41-4c.55-.81,1.13-1.6,1.68-2.41a1.77,1.77,0,0,0,.31-.7.54.54,0,0,0-.31-.39,1.43,1.43,0,0,0-.73.2c-.9.5-1.77,1.08-2.68,1.58a9.13,9.13,0,0,0-2.85,2.54c1,.77,1,.91.66,1.75-.19.41-.41.81-.6,1.22a.72.72,0,0,0,.11.19m71.09,110.24a38.23,38.23,0,0,0-1.38-3.89,8.83,8.83,0,0,0-1.81-2.74c-.19-.18-.37-.35-.69-.15a33.47,33.47,0,0,0,0,3.47c.11,1.14-.35,2.34.33,3.48a8.71,8.71,0,0,0,3.52-.17m50.85,28.8,7.13-2.94a6.5,6.5,0,0,0-2.21-3.1c-1.47,2.07-3.3,3.71-4.92,6M88,170.88a3,3,0,0,0-2,1.55,9,9,0,0,1-2.06,2c-.07,0,0,.24,0,.36s.19.2.3.22a11.1,11.1,0,0,1,5,2.47,10.81,10.81,0,0,0,1.13.78,1.46,1.46,0,0,0,.51.07,1.29,1.29,0,0,0-.79-1.33,8.37,8.37,0,0,1-1.4-.71,2.12,2.12,0,0,1-1-2.33c.15-.77.28-1.52.4-2.32a5.34,5.34,0,0,0,0-.8M195,298.22a4.58,4.58,0,0,0,.89.2,5.66,5.66,0,0,0,1.17-.09,2.25,2.25,0,0,0,1.9-2,2.15,2.15,0,0,0-1.31-2.21.8.8,0,0,0-.71,0,3.74,3.74,0,0,0-1.91,4.09M83.12,178.84c1.75.2,3.36.39,5,.55a3.38,3.38,0,0,0,1-.11.37.37,0,0,0,.24-.26.6.6,0,0,0-.11-.34.23.23,0,0,0-.15-.1A14.88,14.88,0,0,1,85.66,177a5.76,5.76,0,0,0-2.45-.51.72.72,0,0,0-.81.51,3,3,0,0,0,.69,1.8m41.21,49.37c-.24.1-.4.11-.48.2a1.8,1.8,0,0,1-2.12.58,1.62,1.62,0,0,0-2.21.57c-.11.17-.47.2-.71.26-.64.14-.67.74-.87,1.19-.08.18,0,.45.09.75a28.29,28.29,0,0,0,3.11-.9c1-.39,2.13,0,3-.9-.1-.51.46-1,.18-1.75m70.55,73.9a10.72,10.72,0,0,1-3.42-3.18,1.81,1.81,0,0,0-1-.56c-.51-.17-1.11-.74-1.57-.07s.19,1.09.35,1.63a.92.92,0,0,0,.24.31,5.37,5.37,0,0,0,5.38,1.87m83-32.3c.23,1.31,1.48,1.52,2.23,2.29l2-.85c.13-.27.26-.56.42-.84s.51-.39.32-.84l-3.47-.95-1.53,1.18M96.19,174.71a13.22,13.22,0,0,1-2.56-4.86c-.24.35-.47.55-.51.77a33.87,33.87,0,0,0-.61,5.31c1.24-.24,2.2-.93,3.66-1.22m76.59,100c.14.31.16.46.24.5,1,.74,2,1.46,3,2.18s1.63.6,2.72-.36l-2-2.75c-2.14,1-2.14,1-3.93.41M79,228.46a10.68,10.68,0,0,0-4.71,2.37,2.43,2.43,0,0,0-.32.67c.19.09.33.21.43.18,1.82-.42,3.64-.87,5.54-1.33a3.22,3.22,0,0,0-.94-1.9m145.66,75.39c-.86.66-1.59,1.19-2.28,1.77a1.36,1.36,0,0,0-.4.63.66.66,0,0,0,.08.53.62.62,0,0,0,.51.18,11.5,11.5,0,0,0,3.82-1.86c.16-.12.18-.44.3-.73l-2-.51M191.8,306c-.32-.17-.65-.33-1-.47a10.12,10.12,0,0,1-4.32-2.58,3.4,3.4,0,0,0-.77-.6.61.61,0,0,0-.51.05.54.54,0,0,0-.16.51,4,4,0,0,0,2.63,2.45,11.63,11.63,0,0,0,4.13.64m94.5-31.87,1.75,3c1.26-1,1.34-1.26.86-2.65-.83,0-1.61-.68-2.61-.3m-78.57,23.16-.25-.21-2,2c-.1.09-.24.17-.27.28a2,2,0,0,0-.19.91c.08.47,0,1.07.8,1.22.45-.91.92-1.82,1.36-2.75.22-.46.39-.95.58-1.43m11.15,11.17c-.44-.89-.57-1-1.09-.83a7.94,7.94,0,0,0-1.62.68,1.22,1.22,0,0,0-.65,1.52,6.12,6.12,0,0,0,3.34-1.37m65.21-30.67c.28,0,.44.05.51,0A1.3,1.3,0,0,0,285,276a1.32,1.32,0,0,0-.46-.42,1,1,0,0,0-.74,0c-.25.11-.25.39-.15.67.17.51.29,1,.46,1.58M71.51,221.51a3.62,3.62,0,0,0,3-.47,1.83,1.83,0,0,0-.18-.46c-.51-.61-.76-.66-1.29-.28s-.79.64-1.52,1.21M41.23,51c-.42-1.6-.42-1.6-1.63-1.78.25.83.95,1.18,1.63,1.78M185,284.31l-.15-.3a5.65,5.65,0,0,0-.57.38s0,.24.09.31.51,0,.64-.39m15,11.9-.39-.25c0,.1-.13.23-.1.3a2.26,2.26,0,0,0,.34.35l.14-.4m-189.38-177a1.21,1.21,0,0,0-.24-.21l-.14,0,.23.23.14-.06M292.12,273.86l-.24-.24-.1.12.31.28v-.15m-83.83,19.39-.14-.3c-.06.08-.18.17-.17.24a1.41,1.41,0,0,0,.18.37c0-.1.08-.21.13-.31M42.78,61.56a.47.47,0,0,1-.06.15l.19-.09-.14-.07m238.4,224.36s0-.1,0-.11H281a.34.34,0,0,0,0,.18l.15-.05"/><path id="Path_5564" data-name="Path 5564" class="cls-2" d="M318.87,82.67c1.71-1.06,2.24-1.16,3.51.77a6.3,6.3,0,0,1,1.46,3.26l-.91,1a1.85,1.85,0,0,1-.62-.07,6.09,6.09,0,0,1-3.44-5"/><path id="Path_5565" data-name="Path 5565" class="cls-2" d="M326.92,100.7a17.08,17.08,0,0,1,1.87-.51.92.92,0,0,1,1,.43,8.64,8.64,0,0,1,.76,1.56c.29.79.51,1.61.78,2.45a6.73,6.73,0,0,1-.46.83c-.5.71-.92.75-1.61.23a7.1,7.1,0,0,1-2.33-3.5,5.17,5.17,0,0,1,0-1.47"/><path id="Path_5566" data-name="Path 5566" class="cls-2" d="M320.2,90.34c-.22.37-.42.77-.67,1.13a.77.77,0,0,1-.88.26,4,4,0,0,1-.91-.36c-1.72-.91-3.44-1.85-5.15-2.78-.08,0-.11-.22-.16-.33,1.53-1,1.83-1.05,3.17-.48,1,.43,2,.88,3,1.32a2.8,2.8,0,0,1,1.55,1.24"/><path id="Path_5567" data-name="Path 5567" class="cls-2" d="M331.94,96.37a4.19,4.19,0,0,1,3-.45,12.68,12.68,0,0,0,2.13.19l1.53.14c0,1.66-.48,2.2-1.82,2.11a7,7,0,0,1-4.06-1.16c-.24-.19-.44-.43-.84-.83"/><path id="Path_5568" data-name="Path 5568" class="cls-2" d="M323.18,100.62a1,1,0,0,1-.13,1.09,18.1,18.1,0,0,1-1.72,2.61,2.84,2.84,0,0,1-1.32.76,1.07,1.07,0,0,1-1.31-.76,1,1,0,0,1,0-.62,3.06,3.06,0,0,1,1.45-2,25.43,25.43,0,0,1,2.66-1.2c.09,0,.24.07.35.12"/><path id="Path_5569" data-name="Path 5569" class="cls-2" d="M339,89.08a8.94,8.94,0,0,1,.37,1,.65.65,0,0,1-.38.84l-.12,0c-1.36.16-2.72.32-4.06.44a2.43,2.43,0,0,1-1.85-.46c1-1.24,2.68-1.75,6.08-1.84"/><path id="Path_5570" data-name="Path 5570" class="cls-2" d="M326.7,87.39a9.51,9.51,0,0,1,5.43-2.23.55.55,0,0,1,.44.28.72.72,0,0,1,0,.54,1.43,1.43,0,0,1-.46.62c-1,.65-2,1.27-3,1.86a1.13,1.13,0,0,1-1.29-.14c-.35-.28-.71-.57-1.15-.94"/><path id="Path_5571" data-name="Path 5571" class="cls-2" d="M39.8,132.46a6.84,6.84,0,0,1,.47-2.53,1.67,1.67,0,0,1,1.57-1.25,3.48,3.48,0,0,1,.79,0,1.55,1.55,0,0,1,1.47,1.1,11.12,11.12,0,0,1,.42,4.06,2,2,0,0,1-.51,1,11.25,11.25,0,0,1-1,.93,1.79,1.79,0,0,1-2.53,0,1.77,1.77,0,0,1-.51-1.17c-.07-.59-.09-1.19-.15-2.09"/><path id="Path_5572" data-name="Path 5572" class="cls-2" d="M111.21,224.53h.05c-.82-.09-1.59-.62-1.66-1.17a.84.84,0,0,1,.43-.82,1.87,1.87,0,0,1,2.17-.34,1.38,1.38,0,0,1,.46,1.58c-.12.5-.56.78-1.46.75"/><path id="Path_5573" data-name="Path 5573" class="cls-2" d="M57.13,234.47l.71,1.81,1.59.76c.15.47.27.9.39,1.29a16,16,0,0,1,1.52.94,2.29,2.29,0,0,1,.71,2.8,2.5,2.5,0,0,1-2.48,1.22,5.82,5.82,0,0,1-1.27-.45c-.3-.14-.59-.3-.88-.47-.5.37-1,.73-1.44,1a1.41,1.41,0,0,1-1.66-.06,2.46,2.46,0,0,1-1-3.23c.26-.59.57-1.17.86-1.75-.12-.66-.26-1.29-.34-1.94a1.56,1.56,0,0,1,.94-1.74,2.8,2.8,0,0,1,2.28-.24"/></g></g></g></g></svg>